<?xml version="1.0" standalone="no"?>
<!DOCTYPE svg PUBLIC "-//W3C//DTD SVG 1.1//EN" "http://www.w3.org/Graphics/SVG/1.1/DTD/svg11.dtd" >
<svg xmlns="http://www.w3.org/2000/svg">
<metadata></metadata>
<defs>
<font id="ecuyerdaxregular" horiz-adv-x="985" >
<font-face units-per-em="2048" ascent="1638" descent="-410" />
<missing-glyph horiz-adv-x="1021" />
<glyph unicode="&#xd;" horiz-adv-x="81" />
<glyph unicode=" "  horiz-adv-x="1021" />
<glyph unicode="&#x09;" horiz-adv-x="1021" />
<glyph unicode="&#xa0;" horiz-adv-x="1021" />
<glyph unicode="!" horiz-adv-x="550" d="M41 1139q0 117 63.5 186.5t171.5 69.5q104 0 169 -69t65 -185q0 -49 -3 -69.5t-11.5 -52.5t-12.5 -54q-16 -39 -18 -50l-55 -131l-35 -86l-27 -71l-29 -97l-16 -106h-55l-6 57q-4 47 -30 122t-71 181l-55 134l-27 94q-18 68 -18 127zM68 168q0 84 60 146.5t148 62.5 q84 0 145.5 -61.5t61.5 -147.5q0 -89 -59 -148q-59 -61 -148 -61q-88 0 -148 60.5t-60 148.5zM92 1141h268v51l-8 39h-241l-17 -45zM94 1106l4 -53l11 -35h235l14 88h-264zM117 983l12 -45l18 -45h158l29 90h-217zM125 164l6 -45h207l4 45l-4 43h-207zM129 1266h215 q-16 40 -41 69l-37 4q-76 0 -137 -73zM143 242h187q-15 44 -58 75q-51 -6 -71.5 -16t-57.5 -59zM145 84q23 -35 50 -53q18 -12 77 -25q37 33 58 78h-185zM162 858l8 -20l27 -66l26 -63l41 84l29 65h-131z" />
<glyph unicode="&#x22;" horiz-adv-x="491" d="M41 1356h182l-73 -404h-35zM59 1339l7 -30h106l6 30h-119zM74 1264l20 -113h49l21 113h-90zM102 1106l17 -88l16 88h-33zM268 1356h183l-74 -404h-35zM287 1339l6 -30h106l7 30h-119zM301 1264l21 -113h49l20 113h-90zM330 1106l16 -88l16 88h-32z" />
<glyph unicode="#" horiz-adv-x="1998" d="M41 385v195h373l213 321h-330v195h459l182 272h383l-182 -272h192l182 272h383l-180 -272h242v-195h-369l-213 -321h326v-195h-453l-221 -332h-385l221 332h-192l-219 -332h-385l219 332h-246zM68 410h286l-16 -25h199l16 25h377l-17 -25h199l16 25h439v84h-1499v-84z M68 532h1499v23h-342l57 86h-197l-57 -86h-379l58 86h-199l-57 -86h-383v-23zM145 92h199l66 101h-199zM240 236h198l70 104h-199zM324 924h372l-59 -90h197l59 90h381l-60 -90h197l59 90h353v18h-1499v-18zM324 983h1499v88h-258l12 19h-197l-12 -19h-381l12 19h-196 l-12 -19h-467v-88zM537 684h198l70 109h-197zM723 92h199l65 101h-199zM799 580h192l213 321h-192zM817 236h199l67 104h-198zM831 1133h197l72 108h-197zM932 1284h196l31 45h-196zM1114 684h197l71 109h-196zM1409 1133h197l71 108h-196zM1509 1284h197l31 45h-197z" />
<glyph unicode="$" horiz-adv-x="1734" d="M41 938q0 211 180 348q86 68 202 102.5t251 34.5h20v176h47v-178q59 0 116.5 -13t71 -17.5t64.5 -22.5v231h47v-249q109 -45 230 -136l243 189h31v-520h-43q-88 145 -203 245q-53 47 -114 89q-12 8 -68 38q-39 20 -76 39v-397l39 -4l82 -16l86 -21q55 -12 83 -20.5 t83 -30.5q135 -49 208 -151.5t73 -237.5q0 -207 -167 -334t-452 -127l-35 2v-180h-47v182q-104 0 -155 16l-97 31v-229h-47v246q-80 29 -133 59l-143 96l-19 12l-268 -200h-47v567h47q82 -141 234.5 -270t328.5 -209v391l-76 10q-578 78 -577 459zM86 938l4 -45h217l-49 39 l-33 51h-137zM94 858l12 -45l21 -45h739l-231 35l-139 22l-111 33h-291zM94 1018h117l-10 65l2 25h-80l-12 -35zM125 35l164 127h-164v-127zM125 197h168l-39 30l-45 45l-39 43l-45 58v-176zM141 1141h66l18 61l15 27l20 31q-45 -27 -67.5 -49.5t-51.5 -69.5zM150 733 l43 -49l51 -39h1136q-29 16 -55.5 26.5t-77.5 24.5q-14 4 -68.5 17.5t-84.5 19.5h-944zM305 610l33 -14l55 -18q6 -2 27.5 -9.5t44 -13.5t70 -17.5t81.5 -15.5l21 -2h891q-41 53 -88 90h-1135zM307 1163q0 -94 96 -137q39 -18 117 -37.5t174 -36.5v424h-24 q-162 0 -262.5 -59.5t-100.5 -153.5zM741 57l127 -39q27 -8 54.5 -10t70.5 -2v420l-252 37v-406zM741 944l252 -39v412l-102 31q-33 10 -73 17t-77 7v-428zM874 485l103 -14q102 -14 185 -32.5t149 -41.5h266l-10 45l-19 43h-674zM1040 4h29q178 0 276.5 49t98.5 144 q0 78 -92 133l-52 22l-65 25l-176 39l-19 2v-414zM1323 1169l59 -59l43 -47v106h-102zM1323 1204h102v82zM1389 362l41 -30q6 -4 18 -22.5t27 -37.5h98l8 70v20h-192zM1456 86l66 57q20 33 43 95h-78l4 -37q0 -49 -35 -115z" />
<glyph unicode="%" horiz-adv-x="2732" d="M41 965q0 197 142.5 332t357.5 135h1527l-976 -1481h-433l947 1435h-844q129 -55 205.5 -168.5t76.5 -252.5q0 -201 -139 -333t-358 -132q-215 0 -360.5 133t-145.5 332zM84 967l2 -47h182v90h-182zM90 1044h180l4 54l7 37h-166zM92 885q6 -41 12.5 -56.5t14.5 -31.5h162 l-9 34l-2 54h-178zM133 1167h154l12 50l16 40h-114l-39 -40zM137 762q6 -12 15.5 -26.5t13.5 -18.5l41 -45h108l-26 90h-152zM238 1292h92q26 49 69 82q-55 -8 -84 -28q-14 -4 -32.5 -16.5t-44.5 -37.5zM250 637l55 -39l64 -35l-21 33l-18 41h-80zM395 891q0 -197 33 -270 q31 -78 113 -78q45 0 81.5 30.5t49.5 96.5l10 88l4 133v219q0 283 -147 283q-43 0 -76 -26t-49 -69l-15 -81l-4 -119v-207zM659 553q20 4 37 11t29 18q16 8 63 55h-81q-13 -43 -48 -84zM659 1382l27 -49l19 -41h83l-61 54q-18 18 -68 36zM713 1257l12 -90h145l-24 47l-29 43 h-104zM715 672h102l27 43l24 47h-145zM725 797h158l12 41l12 47h-180v-74zM727 1135l2 -91h178l-10 46l-12 45h-158zM729 920h182l2 45l-2 45h-182v-90zM748 -6h223l73 117h-221zM850 152h223l68 100h-223zM944 293h223l68 104h-223zM1038 434h224l65 105h-221zM1133 578 h223l67 104h-223zM1229 723h221l68 100h-222zM1323 862h221l68 103h-223zM1415 1006h221l70 104h-221zM1509 1151h222l69 102h-221zM1604 1288h221l63 98h-221zM1688 418q0 195 144 330t351 135q214 0 361 -135q147 -133 147 -330q0 -201 -141.5 -334t-354.5 -133 q-217 0 -362 131t-145 336zM1733 418l2 -47h182l-2 45l2 22v21h-182zM1737 494h182v43l8 47h-164l-16 -41zM1739 336l12 -47l16 -43h162l-8 45l-2 45h-180zM1780 618h153l13 44l16 47h-117l-37 -45zM1786 211l31 -45l16 -21l25 -22h106l-27 88h-151zM1882 741h94l31 52 l39 34q-63 -12 -86 -28l-31 -19zM1898 86l52 -33l65 -37l-37 70h-80zM2044 342q0 -190 30.5 -269t112.5 -79q45 0 82 30.5t49 98.5l11 86l4 133v217q-1 285 -146 285q-92 0 -129 -105l-10 -69l-4 -119v-209zM2306 4q45 12 64 29q25 10 63 53h-80q-14 -43 -47 -82zM2306 836 l23 -37l22 -58h86l-31 29l-32 27zM2361 123h101l26 41l27 47h-143l-2 -12zM2361 709l6 -39l5 -52h147q-8 18 -23.5 45t-29.5 46h-105zM2374 246h155l13 43l12 47h-178v-14zM2374 584l2 -27v-63h180l-8 47l-15 43h-159zM2376 371h184l2 47l-2 41h-184v-88z" />
<glyph unicode="&#x26;" horiz-adv-x="1832" d="M41 352q0 111 55.5 187.5t142.5 126t253 86.5l24 8l-49 69q-92 129 -92 258q0 147 118.5 241.5t309.5 94.5q184 0 292.5 -78.5t108.5 -218.5q0 -35 -6 -63.5t-29 -77.5q-12 -23 -18 -33q-16 -27 -39 -49q-39 -35 -115 -84l287 -409q25 27 43.5 51t26.5 39.5t12 42.5l4 53 q0 156 -184 186v47h606v-47l-31 -10l-41 -14l-57 -37l-51 -39l-43 -43l-121 -129l-131 -145l131 -185l43 -59q23 -31 63 -47q66 -27 164 -27h74v-47h-739l-70 96q-240 -141 -457 -141q-207 0 -346 112.5t-139 284.5zM88 362q0 -37 12 -90h258l-22 45l-14 45h-234zM90 397 h221l-10 35l-6 53h-180l-17 -45zM113 238l28 -50l33 -41h260l-24 31l-35 60h-262zM135 520h158l2 60l16 73q-76 -31 -108 -55q-18 -14 -27.5 -24.5t-40.5 -53.5zM211 113q139 -109 295 -109l78 6l-66 45l-55 58h-252zM422 1083q0 -29 10 -65h225l-24 47l-17 41h-192z M428 1141h180l-6 55l2 35h-141l-23 -43zM438 580q0 -102 88 -258q70 -129 131.5 -185.5t128.5 -56.5q39 0 76 13t86 48l-397 570q-113 -25 -113 -131zM440 983q4 -14 15.5 -38.5t29.5 -51.5h256l-53 80l-8 10h-240zM489 1266h121l15 47q2 6 13 23.5t17 27.5 q-104 -31 -166 -98zM510 858l61 -90h258l-63 90h-256zM596 733l63 -88h256l-61 88h-258zM682 610l63 -90h259l-64 90h-258zM760 1235q0 -80 96 -217l109 -154q186 101 186 271q0 98 -75 168.5t-191 70.5q-125 0 -125 -139zM770 485l61 -88h259l-64 88h-256zM856 362l64 -90 h256l-62 90h-258zM942 238l64 -91h258l-64 91h-258zM1030 113l43 -64h258l-43 64h-258zM1329 782q12 -8 24.5 -21t28.5 -34h125l33 55h-211zM1401 692q20 -49 20 -98v-12l66 110h-86z" />
<glyph unicode="'" horiz-adv-x="266" d="M41 1356h184l-73 -404h-35zM59 1339l9 -30h106l6 30h-121zM74 1264l22 -113h49l19 113h-90zM104 1106l17 -88l16 88h-33z" />
<glyph unicode="(" horiz-adv-x="813" d="M41 688q0 346 200.5 580.5t530.5 277.5v-43q-92 -23 -137 -69q-72 -76 -119 -281q-20 -90 -32.5 -213t-12.5 -252q0 -358 82 -598q31 -94 78 -140t141 -75v-43q-164 20 -297 88t-233 186q-201 238 -201 582zM94 690l2 -45h211v88h-211zM98 610l11 -90h204l-6 90h-209z M98 768h209l6 90h-204zM117 485l12 -53l10 -35h189l-4 21l-9 67h-198zM117 893h198l13 90h-189zM152 362l12 -36l26 -54h160l-18 90h-180zM152 1018h182l2 18l14 70h-160zM209 238l29 -45l32 -46h117l-29 91h-149zM209 1141h151l27 90h-117l-24 -33zM299 113l45 -45 q27 -27 45.5 -42.5t38.5 -27.5l72 -43l-60 76l-41 82h-100zM301 1266h100l31 69l68 88l-84 -53l-72 -59z" />
<glyph unicode=")" horiz-adv-x="813" d="M41 -125q57 12 80 27q12 6 26.5 17t30.5 28q74 74 119 278q8 39 17.5 97.5t18.5 147.5t9 218q0 348 -82 598q-35 100 -80 148q-25 25 -57.5 41t-81.5 28v43q326 -37 528.5 -274.5t202.5 -583.5q0 -348 -198.5 -582.5t-532.5 -273.5v43zM264 -37q31 16 53.5 32.5 t38.5 31.5q27 25 76 86h-102q-10 -33 -28 -73t-38 -77zM264 1417q27 -51 42.5 -87t21.5 -54l2 -10h102q-23 35 -29 41q-24 33 -47 47q-12 16 -44.5 35.5t-47.5 27.5zM340 147h115l24 39l27 52h-144q-2 -31 -10 -50zM342 1231l23 -90h141l-25 47l-26 43h-113zM371 272h151 l33 90h-172zM371 1106l14 -88h170l-33 88h-151zM387 397h178l19 88h-189l-2 -20zM387 983l2 -22l4 -68h191l-19 90h-178zM395 520h195l8 90h-199v-20l-2 -49zM395 858l2 -24v-46l2 -20h199l-8 90h-195zM399 645h201v88h-201v-88z" />
<glyph unicode="*" horiz-adv-x="735" d="M41 1167l33 103l225 -72v242h131v-232l227 76l37 -113l-229 -79l137 -195l-104 -74l-127 181l-129 -187l-117 84l139 193zM66 1180l63 -21h446l64 21l-21 65l-231 -76v105h-70v-105l-231 76zM154 903l55 -39l65 94h-81zM223 1001h84l45 64l45 -64h84l-73 105l30 8h-172 l31 -8zM317 1321h70v96h-70v-96zM430 958l66 -94l55 39l-39 55h-82z" />
<glyph unicode="+" d="M41 553v242h301v333h279v-333h323v-242h-323v-336h-279v336h-301zM74 582h303v-25h153v25h258v88h-714v-88zM74 715h714v49h-258v65h-153v-65h-303v-49zM377 250h153v104h-153v-104zM377 399h153v113h-153v-113zM377 874h153v115h-153v-115zM377 1032h153v66h-153v-66z " />
<glyph unicode="," horiz-adv-x="497" d="M41 168q0 88 59.5 148.5t149.5 60.5t148.5 -64.5t58.5 -167.5q0 -80 -29 -153.5t-84 -126.5q-39 -47 -98 -74q-39 -18 -150 -41l-10 41q68 12 107 51q43 35 43 76q0 29 -39 47q-156 74 -156 203zM94 166q0 -20 10 -47h213l-2 43l-8 45h-209zM111 242h188l-23 51l-32 37 q-61 -10 -83 -25.5t-50 -62.5zM119 84q35 -41 57 -55q2 -2 19.5 -9.5t27.5 -11.5l58 -22l22 49l12 49h-196z" />
<glyph unicode="-" d="M41 553v242h903v-242h-903zM74 582h714v86h-714v-86zM74 713h714v51h-714v-51z" />
<glyph unicode="." horiz-adv-x="497" d="M41 168q0 88 59.5 148.5t147.5 60.5t148.5 -60.5t60.5 -148.5q-1 -85 -60 -148q-61 -61 -149 -61q-92 0 -149.5 61.5t-57.5 147.5zM98 164l6 -45h205l6 51l-2 37h-211zM115 242h190q-16 53 -59 88q-47 -10 -74 -21.5t-57 -66.5zM119 84q23 -35 49 -53q18 -12 78 -25 q25 25 51 78h-178z" />
<glyph unicode="/" horiz-adv-x="1648" d="M41 -133l1087 1644h480l-1086 -1644h-481zM139 -84h248l84 127h-248zM254 88h248l76 115h-248zM358 248h248l76 114h-248zM463 406h248l73 112h-245zM567 563h248l76 117h-248zM674 725h246l75 113h-245zM778 881h246l76 114h-248zM883 1040h245l76 115h-246zM987 1200 h246l76 113h-246zM1092 1356h245l70 106h-246z" />
<glyph unicode="0" horiz-adv-x="1634" d="M41 682q0 305 224 517t542 212q332 0 559 -209q227 -213 227 -518q0 -309 -221 -522q-109 -102 -244 -154.5t-305 -52.5q-332 0 -557 209t-225 518zM98 645h297l-2 51l2 37h-297v-88zM102 610q0 -35 17 -90h282l-2 21l-2 57l-2 12h-293zM102 768h293l6 90h-282l-10 -47z M129 485l14 -45l21 -43h252l-2 21l-8 67h-277zM129 893h277l14 90h-254l-21 -47zM182 362q8 -16 33 -53q12 -18 25 -37h202l-10 37l-10 53h-240zM184 1018h244l23 88h-207l-31 -43zM268 238l43 -48l49 -43h134l-41 91h-185zM274 1141h189q18 51 45 90h-135q-59 -43 -99 -90z M406 113l81 -47l101 -35l-43 37l-33 45h-106zM422 1266h110l39 41l47 36q-68 -14 -104.5 -28.5t-91.5 -48.5zM575 481l9 -127v-46t6 -42q0 -18 2 -28q12 -35 14 -52q43 -182 205 -182q80 0 135 47t72.5 122t23 108.5t5.5 70.5l8 236v217q0 305 -49 432q-51 125 -183 125 q-70 0 -123 -39t-78.5 -106.5t-36 -170t-10.5 -253.5v-312zM948 4q121 25 221 109h-122q-14 -33 -37 -56zM965 1356q49 -43 73 -90h113q-20 14 -29 20q-28 21 -53 33l-45 18zM1055 1231l28 -90h183l-35 47l-41 43h-135zM1061 147h145l39 43l35 48h-197l-10 -52zM1090 272 h210l46 90h-244zM1090 1106l8 -51l4 -37h235l-22 43q-8 23 -27 45h-198zM1104 397h256l26 88h-278v-20zM1104 983l4 -90h274l-12 45l-16 45h-250zM1110 520h285l8 47l4 43h-297v-90zM1110 645h299l2 37l-2 51h-299v-88zM1110 768h297l-16 90h-281v-90z" />
<glyph unicode="1" horiz-adv-x="1171" d="M41 1157v47h90q92 0 133 6l64 13l82 22q256 78 374 209h47v-1178q0 -84 10.5 -124.5t36 -63t66.5 -33.5l121 -8h65v-47h-1079v47h66q84 0 112 6q16 0 26.5 4t12.5 4l31 23q29 23 41 61q10 47 10 131v713q0 96 -32.5 132t-127.5 36h-149zM326 1171l39 -30h311v90h-150 q-49 -16 -103 -33.5t-97 -26.5zM332 47h385q-23 29 -35 66h-299q-6 -18 -21 -33zM385 1106l12 -41l4 -47h275v88h-291zM395 147h281v91h-273v-54zM403 272h273v90h-273v-90zM403 397h273v88h-273v-88zM403 520h273v90h-273v-90zM403 645h273v88h-273v-88zM403 768h273v90 h-273v-90zM403 893h273v90h-273v-90zM606 1266h70v39z" />
<glyph unicode="2" horiz-adv-x="1454" d="M41 0q0 59 5 86t12.5 48.5t21.5 39.5q12 31 33 62q29 43 85 100t126 102l73 43l107 54l80 40l47 23l63 39q35 23 68 57q25 27 40 57.5t27 73.5q20 76 21 203q0 172 -61.5 252t-200.5 80q-201 0 -334 -101.5t-133 -248.5l2 -45q68 143 225 143q100 0 160.5 -56.5 t60.5 -148.5q0 -96 -68.5 -160.5t-170.5 -64.5q-121 0 -196 83t-75 216q0 92 39 170q129 264 623 264q328 0 509 -107.5t181 -297.5q0 -168 -143.5 -290t-399.5 -165l-59 -10l-160 -31q-86 -18 -138 -38.5t-126 -65.5h875q33 0 61 22q45 39 45 133v33h47v-594h-1372zM90 47 h1151v66h-1135zM121 147h1120v91h-1067l-33 -52zM154 864q4 -31 14 -48t33 -40h186l14 35l15 53h-262zM154 899h262l-4 45l-17 45h-205l-26 -43zM201 272h1040v84h-952l-51 -45zM225 1024h152l-29 33l-31 2q-41 0 -92 -35zM250 739l45 -16h45l20 16h-110zM657 561l76 19 l76 14l63 16h-137zM762 1364l35 -27l24 -22q23 -20 37 -49h240q-39 27 -70 43t-74 30q-74 25 -192 25zM778 645h187q57 25 77 39l58 49h-248q-25 -43 -74 -88zM868 768h262q14 16 33 51q10 18 21 39h-291zM874 1231l13 -39l10 -51h297l-25 45l-32 45h-263zM897 893h301 l19 90h-312v-45zM901 1108l4 -90h314q0 41 -13 90h-305z" />
<glyph unicode="3" horiz-adv-x="1523" d="M41 350q0 98 68.5 166t166.5 68q96 0 161 -64.5t65 -169.5q0 -86 -43 -140t-123 -71q-25 0 -25 -16q0 -23 45 -49q115 -70 320 -70q80 0 128 12.5t79 42.5q74 78 73 308q0 188 -44 265t-152 77l-72 -4l-88 -13l-47 -2q-63 0 -64 47q0 47 86 47h25l92 -14l68 -2 q57 0 96 16.5t55 63.5l19 90l4 147q0 162 -54.5 219.5t-213.5 57.5q-221 0 -336 -57q-31 -16 -35 -33l14 -8h17q82 0 131 -54q47 -57 47 -143q0 -90 -62.5 -154.5t-160.5 -64.5t-156.5 59.5t-58.5 157.5q0 164 163.5 255t458.5 91q362 0 553 -94t191 -273q0 -109 -66 -180 q-45 -49 -100 -78q-39 -20 -166 -55q188 -35 284 -125q98 -92 99 -233q0 -188 -207 -303t-551 -115q-84 0 -146.5 6t-126 17.5t-107.5 26.5t-103 46q-201 111 -201 299zM86 352l2 -39h266l6 52l-2 38h-266zM96 279l19 -48l32 -41h136q43 43 61 89h-248zM104 438h244 q-31 88 -110 88q-76 0 -134 -88zM111 1067q0 -25 8 -49h239l4 43l-4 45h-243zM123 1141h227q-24 63 -49 65h-14q-43 0 -56 60q-76 -41 -108 -125zM133 983q49 -82 127 -82q29 0 50.5 18.5t39.5 63.5h-217zM182 156l64 -50q2 18 7 29.5t7 20.5h-78zM913 16q156 14 246 84 l12 13h-194l-10 -21q-4 -18 -21 -37zM913 707l11 -13l39 -49h194q-51 29 -108 47q-55 14 -136 15zM913 762q90 0 142.5 21.5t105.5 74.5h-192l-15 -43q-8 -18 -41 -53zM913 1350l29 -39l23 -45h194q-47 45 -104 65q-59 18 -142 19zM975 1231l12 -90h248l-21 51l-24 39h-215z M977 893h213l24 41l21 49h-248v-27l-4 -28zM979 610q18 -47 25 -90h258q-23 49 -62 90h-221zM987 147h223l29 39l25 52h-258l-11 -54zM989 1018h254l4 41l-4 47h-254v-88zM1008 485l6 -53v-35h276l-2 43l-14 45h-266zM1010 272h264l8 35l8 55h-276z" />
<glyph unicode="4" horiz-adv-x="1601" d="M41 342v86l1167 1016h35v-1016h318v-86h-318v-63q0 -86 10.5 -127t36 -62.5t66.5 -32.5l121 -10h84v-47h-1098v47h65q84 0 113 6q16 0 26.5 4t12.5 4l29 23q33 23 42 66t9 126v66h-719zM125 428h635v565zM741 47h383q-18 27 -32 66h-299l-23 -37zM803 147h282v17l-2 49 v25h-270l-2 -43zM813 272h270v90h-270v-90zM813 397h270v88h-270v-88zM813 520h270v90h-270v-90zM813 645h270v88h-270v-88zM813 768h270v90h-270v-90zM813 893h270v90h-270v-90zM813 1018h270v88h-190l-80 -70v-18zM932 1141h151v133z" />
<glyph unicode="5" horiz-adv-x="1478" d="M41 340q0 94 59.5 149.5t157.5 55.5q100 0 160 -62q63 -55 63 -153q0 -51 -14 -88t-45 -70q-59 -61 -164 -61q74 -45 197 -76q66 -14 119 -22.5t106 -8.5q129 0 185.5 95.5t56.5 322.5q0 211 -51.5 302t-170.5 91q-59 0 -139 -12t-145.5 -32.5t-146.5 -54.5t-124 -63h-28 l28 758l156 -22l137 -7l187 -4l135 -4l108 2l107 2q113 0 229 13l193 20v-49q-31 -68 -68 -113t-104 -96q-59 -45 -135 -80t-154 -55q-160 -45 -406 -45l-186 2q-43 0 -166 18l-10 -278q61 33 138 62.5t147 49.5q145 37 297 37q303 0 495.5 -125t192.5 -323 q0 -207 -197 -334t-514 -127q-301 0 -493.5 106.5t-192.5 278.5zM86 342q0 -33 12 -70h228l4 29l2 29v32h-246v-20zM94 397h234q-29 102 -90 103q-94 0 -144 -103zM115 238l43 -62l65 -49q41 23 57.5 44.5t38.5 66.5h-204zM178 1044l144 -16l143 -4q113 0 153.5 3t100.5 13 q104 18 203 66h-742zM184 1141h803q68 39 123 90h-926v-90zM188 1266h955l26 32l29 43l-43 -4l-197 -6l-198 -4l-162 4l-158 4l-78 2l-71 9l-101 16zM844 8q84 0 150.5 24.5t129.5 80.5h-192q-25 -60 -88 -105zM854 809q27 -18 43 -41h131q-25 10 -43.5 16.5t-34.5 8.5z M920 733l16 -35l18 -53h226l-39 45l-49 43h-172zM946 147h211q33 39 55 91h-245q-6 -55 -21 -91zM963 610l8 -51l4 -39h260l-14 47l-21 43h-237zM971 272h254l10 41l8 49h-266zM977 485l2 -65v-23h268v21l-6 67h-264z" />
<glyph unicode="6" horiz-adv-x="1574" d="M41 682q0 166 74 317q35 72 88 135.5t121 114.5q221 162 565 162q252 0 385 -74.5t133 -220.5q0 -94 -64.5 -158.5t-158.5 -64.5q-106 0 -172 65.5t-66 167.5q0 111 94 174l19 13l12 10q0 20 -45 29l-131 10q-86 0 -131 -15.5t-89 -54.5t-58.5 -97t-21.5 -114.5t-9 -111 t-2 -113.5v-72l73 35q55 27 129 39t142 12q258 0 432 -124.5t174 -309.5q0 -211 -193.5 -346t-498.5 -135q-342 0 -571.5 206t-229.5 521zM92 645h305v88h-305v-88zM96 610l4 -43l13 -47h290l-4 90h-303zM96 768h303v20l7 70h-291l-11 -41zM123 485l12 -39l23 -49h262 l-12 88h-285zM123 893h285l12 90h-260l-21 -45zM176 362l29 -45l31 -45h215l-23 90h-252zM178 1018h250l10 45l13 43h-211l-33 -43zM264 238l41 -43l57 -48h140l-23 41l-18 50h-197zM270 1141h193l20 47l25 43h-137l-54 -43zM414 113q49 -31 58 -35t28 -10l102 -35 q-49 37 -80 80h-108zM424 1266h108l37 41l33 28l-96 -28zM584 434q0 -72 8 -139.5t26 -130.5q47 -160 220 -160q141 0 178 109q6 25 13 56.5t7 66.5l8 200q0 129 -12 226q-18 158 -174 157l-47 -4l-66 -12l-49 -15l-28 -16l-84 -45v-293zM993 1106q2 -33 11 -47 q2 -14 22 -41h234l14 43l4 45h-285zM993 1141h283l-6 51l-15 39h-231l-25 -45q-6 -16 -6 -45zM995 6q76 14 117 35.5t102 71.5h-143q-19 -56 -76 -107zM1010 813l41 -45h110l-31 15.5t-38 11.5zM1057 983q53 -43 104 -43q31 0 45 8l33 35h-182zM1063 1266h174q-16 29 -43 47 l-31 14l-30 12l2 -8l-5 -24l-10 -15l-37 -16zM1069 733q6 -20 11 -39.5t10 -48.5h204q-33 49 -82 88h-143zM1079 147h170l37 46l27 45h-219zM1094 610l6 -90h248l-13 45l-20 45h-221zM1096 272h233l12 41l11 49h-250zM1102 397h254l2 33l-4 55h-252v-88z" />
<glyph unicode="7" horiz-adv-x="1517" d="M41 713l72 649h1364v-47q-66 -88 -121 -166q-43 -63 -101 -148q-94 -147 -155 -260q-31 -61 -65 -142t-58 -155l-27 -92l-26 -102l-35 -250h-608q45 109 86 168q23 33 61.5 81t58.5 73l123 137q39 43 62 65q43 45 78 78l186 172l215 178h-909q-49 0 -89 -32.5t-53 -114.5 l-12 -92h-47zM121 948l26 23q41 27 132 26h788l53 82h-985zM139 1114h1002l57 90h-1048zM154 1237h1067l51 82h-1110zM356 47h334l8 66h-305zM414 147h291l22 91h-248zM508 272h229l27 72l6 18h-186l-15 -14zM614 397h172l45 88h-131l-14 -14l-57 -59zM735 520h115l41 72 l10 18h-72l-24 -22l-55 -53zM866 645h56l55 88l-62 -45z" />
<glyph unicode="8" horiz-adv-x="1546" d="M41 377q0 94 62.5 165.5t179.5 110.5q-117 84 -170 162q-45 76 -45 174t61 193q68 94 170 145q84 41 186 62q49 10 111.5 16t136.5 6q176 0 298 -21.5t212 -68.5q172 -88 172 -266q0 -90 -46 -148.5t-167 -105.5l78 -43q225 -125 225 -348q0 -115 -57 -208t-160 -149 q-86 -49 -214 -73.5t-292 -24.5q-145 0 -280 20q-205 31 -333 141.5t-128 260.5zM127 983l2 -45q6 -31 14 -45h377l-24 8q-43 14 -78 33.5t-70 48.5h-221zM127 1018h190l-30 43l-11 45h-126l-13 -43zM150 352q0 -350 616 -350q424 0 424 180q0 43 -32 80t-73 55 q-31 23 -127 60l-618 241q-190 -55 -190 -266zM160 858l30 -45l17 -22l24 -23h609l-232 90h-448zM166 1141h106l2 45l15 45h-51q-16 -14 -35 -38t-37 -52zM272 733l45 -33l39 -20l64 -35h719q-29 14 -67 30.5t-58 24.5l-86 33h-656zM283 1266h20l10 16zM387 1208 q0 -25 15.5 -48t50.5 -50q68 -53 184 -94l487 -180q185 47 185 215q0 156 -141.5 233.5t-430.5 77.5q-182 0 -266 -37t-84 -117zM504 610l233 -90h576q-23 25 -49 45l-62 45h-698zM827 485l113 -45l115 -43h317q-12 53 -33 88h-512zM1124 362q63 -43 99 -90h147l4 31l2 33 v26h-252zM1202 76l64 39h-35zM1239 238l8 -58l-2 -33h60q37 43 55 91h-121z" />
<glyph unicode="9" horiz-adv-x="1562" d="M41 930q0 205 187.5 343t478.5 138q190 0 352 -59q211 -80 337 -260.5t126 -405.5q0 -174 -72 -320.5t-203 -248.5q-94 -78 -233.5 -120t-306.5 -42q-262 0 -404.5 79t-142.5 222q0 92 62.5 154.5t160.5 62.5q109 0 170 -61q66 -59 65 -166q0 -143 -149 -219l98 -19 l119 -4q82 0 127 17.5t84 64.5q23 25 37 68q20 43 29 92q14 61 14 129l6 166v24q-61 -23 -101 -35t-79 -20q-35 -8 -81 -12t-87 -4q-248 0 -421 127t-173 309zM96 932l2 -39h260l-2 45l2 45h-258zM104 858l13 -45l22 -45h232l-11 90h-256zM106 1018h254l9 88h-224l-22 -41z M162 733l41 -51q6 -6 21.5 -16.5t31.5 -20.5h154l-19 41l-14 47h-215zM168 1141h209l10 47l16 43h-147l-49 -43zM209 238l10 -48l25 -43h229l10 48l4 43h-278zM209 272h278l-8 45q0 16 -12 45h-229q-23 -35 -29 -90zM270 397h176q-35 33 -84 33l-45 -6zM276 113 q14 -12 28 -22.5t28 -16.5l71 -29q37 35 56 68h-183zM301 1266h117l39 65q-55 -10 -73.5 -19t-32 -16.5t-50.5 -29.5zM315 610l60 -26l82 -23l-29 49h-113zM528 807l4 -72l5 -41l14 -49q35 -96 147 -96l45 2l54 6q100 23 186 72v276q0 113 -12.5 196t-40.5 144 q-53 117 -195 117q-59 0 -102 -25.5t-68 -72.5l-12 -39l-16 -92l-9 -240v-86zM883 10q18 2 33.5 4t29.5 9q23 4 50.5 19t53 35.5t42.5 35.5h-119l-37 -56zM907 1348q41 -41 62 -82h108l-49 37l-39 20q-14 8 -82 25zM985 1231l14 -39l15 -51h182l-37 45l-43 45h-131zM987 147 h141l74 91h-188q-2 -25 -10 -39q-2 -20 -17 -52zM1020 272h205l22 43l25 47h-244v-20zM1020 1106l10 -88h238l-23 43q-8 23 -26 45h-199zM1032 397h254l29 88h-279v-20zM1032 983l2 -16l2 -54v-20h275l-29 90h-250zM1036 520h287l8 45l4 45h-297v-67zM1036 838l2 -33v-37 h295q0 27 -6 43l-8 47h-283v-20zM1038 645h299l2 37l-2 51h-299v-88z" />
<glyph unicode=":" horiz-adv-x="497" d="M41 168q0 88 59.5 148.5t147.5 60.5t148.5 -60.5t60.5 -148.5q-1 -85 -60 -148q-61 -61 -149 -61q-92 0 -149.5 61.5t-57.5 147.5zM41 778q0 90 57.5 150.5t149.5 60.5q88 0 148.5 -62.5t60.5 -148.5q-1 -84 -60 -147q-63 -63 -149 -64q-90 0 -148.5 63.5t-58.5 147.5z M98 164l6 -45h205l6 51l-2 37h-211zM98 784l4 -47h209l4 51l-4 39h-207zM115 242h190q-16 53 -59 88q-47 -10 -74 -21.5t-57 -66.5zM115 702q37 -72 131 -84q37 27 55 84h-186zM119 84q23 -35 49 -53q18 -12 78 -25q25 25 51 78h-178zM119 862h182q-6 21 -20 39 q-8 14 -35 37q-47 0 -74 -17.5t-53 -58.5z" />
<glyph unicode=";" horiz-adv-x="497" d="M41 168q0 84 60.5 146.5t148.5 62.5q90 0 148.5 -64.5t58.5 -167.5q0 -80 -29 -153.5t-84 -126.5q-39 -47 -98 -74q-39 -18 -150 -41l-10 41q68 12 107 51q43 35 43 76q0 31 -39 47q-156 74 -156 203zM41 778q0 86 59 152q59 59 148 59q92 0 149.5 -59.5t57.5 -151.5 q-1 -88 -60 -147q-61 -63 -147 -64q-86 0 -146.5 64.5t-60.5 146.5zM94 166q0 -20 10 -47h213l-2 43l-8 45h-209zM96 784l6 -47h207l6 51l-4 39h-207zM111 242h188l-23 51l-32 37q-61 -10 -83 -25.5t-50 -62.5zM115 702q14 -37 46 -57t83 -27q31 27 57 84h-186zM119 84 q35 -41 57 -55q25 -10 47 -21l58 -22l22 49l12 49h-196zM119 862h182q-8 33 -22 43l-35 33q-47 0 -74 -18q-10 -8 -24.5 -23.5t-26.5 -34.5z" />
<glyph unicode="&#x3c;" horiz-adv-x="1081" d="M41 586l571 549h428l-557 -549l557 -553h-428zM119 586l61 -62h193l-62 62l56 53h-193zM219 684h195l116 115h-196zM223 481l117 -112h192l-116 112h-193zM381 844h197l114 114h-196zM385 322l115 -113h192l-114 113h-193zM541 1001h196l105 101h-199zM547 164l100 -101 h193l-101 101h-192z" />
<glyph unicode="=" d="M41 422v242h903v-242h-903zM41 743v244h903v-244h-903zM74 451h714v86h-714v-86zM74 584h714v49h-714v-49zM74 772h714v88h-714v-88zM74 905h714v49h-714v-49z" />
<glyph unicode="&#x3e;" horiz-adv-x="1081" d="M41 33l557 553l-557 549h428l571 -549l-571 -553h-428zM145 1102l105 -101h196l-102 101h-199zM147 63h193l100 101h-192zM295 209h192l115 113h-192zM295 958l115 -114h196l-114 114h-197zM455 369h192l117 112h-193zM457 799l116 -115h195l-115 115h-196zM614 524h193 l61 62l-55 53h-192l55 -53z" />
<glyph unicode="?" horiz-adv-x="1091" d="M41 1040q0 154 132 258.5t329 104.5q233 0 391 -123t158 -305q0 -207 -183 -334q-66 -45 -112 -59q-12 -6 -46 -12.5t-118 -18.5l-43 -6q-12 0 -28.5 -11.5t-16.5 -50.5v-26h-47v467h59q106 0 171 52t65 138q0 53 -19.5 95t-58.5 77q-80 68 -197 68q-125 0 -223 -58 q-41 -25 -67.5 -57.5t-26.5 -60.5q0 -18 16 -19l19 6l24 9l33 12h24q68 0 115 -53.5t47 -131.5q0 -84 -52 -136t-132 -52q-84 0 -148.5 69.5t-64.5 157.5zM96 1038q0 -45 27 -92h194l7 45l-7 47h-221zM139 1071h168q-20 57 -53 57q-16 0 -55 -22l-29 -23zM147 913 q19 -18 48 -30q27 -14 49 -15q37 0 61 45h-158zM270 168q0 88 59.5 148.5t149.5 60.5q84 0 145.5 -61.5t61.5 -147.5q0 -85 -59 -148q-61 -61 -148 -61q-88 0 -148.5 60.5t-60.5 148.5zM328 164l6 -45h205l6 51l-2 37h-211zM344 242h191q-17 53 -60 88q-47 -10 -73.5 -21.5 t-57.5 -66.5zM348 84q20 -37 51 -53l31 -13l45 -12q25 25 51 78h-178zM504 692q109 0 188 27q43 16 69.5 29.5t59.5 42.5h-317v-99zM504 823h348l25 39l20 51h-209q-14 -6 -39.5 -17t-42.5 -15l-88 -9h-14v-49zM733 1298q41 -53 55 -102h72q-29 43 -47 55l-31 23zM735 946 h170l4 27l2 39v26h-116q-18 -47 -60 -92zM799 1161l4 -55l-2 -35h106l-10 47l-18 43h-80z" />
<glyph unicode="@" horiz-adv-x="1183" d="M41 614q0 229 160.5 392t390.5 163q227 1 389 -161t162 -394q0 -244 -163 -400.5t-388 -156.5t-388 163t-163 394zM96 614q0 -209 145.5 -355t350.5 -146q127 0 239.5 62.5t184.5 176.5h-369v25h51q66 0 66 49l-12 37l-45 82h-285l-6 -35q0 -51 16 -78q35 -55 131 -55 v-25h-373v25q55 6 101.5 44t97.5 132l285 510h24l297 -535l58 -98q35 92 34 184q0 211 -143 355.5t-352 144.5q-207 0 -351.5 -146.5t-144.5 -353.5zM268 377h117l-16 33h-54zM332 426h33v14l4 31zM430 567h262l-131 244zM573 834l21 -35h156l-25 45h-145zM590 860h125 l-25 45h-76zM602 782l25 -47h157l-24 47h-158zM627 922h53l-27 51zM637 719l25 -43h157l-24 43h-158zM672 657l24 -45h158l-27 45h-155zM705 596l24 -47l160 2l-25 45h-159zM739 532l25 -45h158l-25 45h-158zM770 377h215l-18 33h-179q0 -15 -18 -33zM774 471l4 -8l13 -37 h167l-24 45h-160z" />
<glyph unicode="A" horiz-adv-x="2070" d="M41 0v47q115 0 205 86t194 270l568 1014h49l641 -1153l61 -100q12 -16 27.5 -32.5t36.5 -33.5q63 -51 178 -51h29v-47h-1078v47h105q53 0 92 25.5t39 68.5q0 29 -25 76l-90 166h-567q-14 -41 -14 -76q0 -72 34.5 -134t102.5 -95l43 -21q16 -8 55 -8l59 -2v-47h-745z M195 47h233l-31 66h-110l-51 -39zM322 147h67l-2 31l6 60l-37 -52l-14 -16zM520 430h522l-262 481zM807 961l39 -68h311l-49 90h-291zM838 1018h249l-49 88h-149zM864 858l49 -90h314l-49 90h-314zM909 1141h111l-55 98zM932 733l49 -88h315l-51 88h-313zM1001 610l50 -90 h315l-51 90h-314zM1069 485l49 -88h316l-50 88h-315zM1137 360l49 -88h317l-49 88h-317zM1198 47h430l-37 66h-356q-6 -35 -37 -66zM1206 238l8 -17q10 -18 15.5 -35.5t9.5 -38.5h334l-49 91h-318z" />
<glyph unicode="B" horiz-adv-x="1853" d="M41 0v47h65q84 0 113 6q16 0 26.5 4t12.5 4l31 23q29 23 41 61q10 47 10 131v826q0 86 -9 127t-38 63.5t-68 30.5l-119 6h-65v49h1155l166 -4l70 -10l67 -21q133 -41 205 -128t72 -203q0 -113 -59.5 -188.5t-196.5 -133.5q292 -92 292 -344q0 -166 -145 -262 q-68 -45 -166 -64.5t-278 -19.5h-1182zM324 47h342v66h-291l-23 -37zM324 1329q31 -25 51 -63h291v63h-342zM385 147h281v91h-273v-60zM385 1231l6 -45l2 -45h273v90h-281zM393 272h273v90h-273v-90zM393 397h273v88h-273v-88zM393 520h273v90h-273v-90zM393 645h273v88 h-273v-88zM393 768h273v90h-273v-90zM393 893h273v90h-273v-90zM393 1018h273v88h-273v-88zM821 47h140q35 0 62.5 1t61 7t82.5 39q113 68 113 268q0 178 -113 259q-45 29 -80 34l-73 9l-109 2h-84v-619zM821 715h111l78 2l73 8q41 10 86 43q102 72 103 258q0 176 -103 250 q-33 25 -96 39t-168 14h-84v-614zM1124 688l47 -22l39 -21h199l-94 29l-94 14q39 4 85 16t93 29h-193l-28 -18zM1159 1329l45 -31q16 -6 37 -32h223q-57 37 -114 51l-68 8l-90 4h-33zM1184 47h28q106 0 167 14.5t122 51.5h-244l-32 -33zM1245 768h228l38 27q23 23 50 63 h-263q-16 -43 -22 -49zM1249 610q31 -33 58 -90h278q-31 47 -102 90h-234zM1268 1231q29 -49 43 -90h258l-29 47q-12 20 -35 43h-237zM1282 147h264q35 31 66 91h-291l-16 -45zM1309 893h268q18 47 25 90h-279l-2 -45zM1317 1106l6 -43l2 -45h277l-3 45l-16 43h-266z M1319 485l8 -32l8 -56h295l-8 45l-18 43h-285zM1329 272h295l8 39l2 39l-2 12h-295v-53z" />
<glyph unicode="C" horiz-adv-x="1662" d="M41 696q0 317 221 522t569 205q90 0 181 -24q70 -18 176 -66l74 -33l59 -8q106 0 203 99h37l26 -576l-33 -8q-6 12 -31.5 65.5t-56.5 106.5q-68 113 -129 180q-80 92 -190 150q-49 23 -103.5 38t-115.5 15q-158 0 -248 -176q-45 -90 -67.5 -212t-22.5 -288 q0 -139 18 -256q8 -53 23.5 -109.5t36.5 -107.5q80 -197 274 -197q197 0 367 121t274 338l39 -20q-10 -23 -18 -45q-16 -35 -35 -60l-74 -100q-35 -47 -75 -85t-83 -69q-197 -141 -477 -141q-348 0 -583.5 211t-235.5 530zM94 692l2 -47h299l-2 31l2 57h-299zM98 768h299 l13 90h-297zM100 610l9 -61l8 -29h286l-8 90h-295zM123 893h293l20 90h-282l-17 -45zM127 485l16 -47l21 -41h266l-10 41l-10 47h-283zM170 1018h279l14 45l20 43h-258l-32 -51zM182 362l33 -55l29 -35h231l-35 90h-258zM254 1141h246l55 90h-209l-51 -45zM272 238l47 -48 l56 -43h166l-25 39l-27 52h-217zM395 1266h189l49 53l59 53l-80 -10l-43 -10l-63 -25l-49 -24zM426 113q100 -63 219 -88l-47 45l-33 43h-139zM1305 1255l28 -24h105l-2 51q-14 -6 -27.5 -11t-30.5 -11zM1368 1196l47 -63l31 -43l-6 106h-72z" />
<glyph unicode="D" horiz-adv-x="2013" d="M41 0v47h65q84 0 113 6q16 0 26.5 4t12.5 4l31 23q29 20 41 61q10 47 10 131v826q0 86 -9 127t-38 63.5t-68 30.5l-119 6h-65v49h1149l80 -4l47 -2l86 -16q168 -33 272 -103q135 -88 216 -244.5t81 -326.5q0 -154 -67 -293q-35 -74 -81 -133t-110 -109 q-45 -37 -101.5 -63.5t-119.5 -44.5l-100 -16l-113 -13l-90 -8l-125 -2h-1024zM324 47h342v66h-291l-23 -37zM324 1329q31 -25 51 -63h291v63h-342zM385 147h281v91h-273v-60zM385 1231l6 -45l2 -45h273v90h-281zM395 272h271v90h-271v-90zM395 397h271v88h-271v-88z M395 520h271v90h-271v-90zM395 645h271v88h-271v-88zM395 768h271v90h-271v-90zM395 893h271v90h-271v-90zM395 1018h271v88h-271v-88zM821 47h178l113 6q55 0 108.5 24.5t84.5 61.5q131 150 131 553l-2 74l-9 135q0 43 -6 88t-16 82q-20 72 -66 135q-63 92 -122.5 103.5 t-109.5 15.5t-122 4h-162v-1282zM1255 47q57 0 114.5 17.5t107.5 48.5h-136l-28 -29q-16 -16 -58 -37zM1255 1329q47 -18 93 -63h125q-51 31 -104 47t-114 16zM1370 147h156l49 41l43 50h-201l-18 -43zM1378 1231l25 -41l27 -49h182l-41 47l-49 43h-144zM1432 272h213l57 90 h-244zM1442 1106l12 -43l10 -45h230l-27 45l-29 43h-196zM1464 397h254l19 41l16 47h-272zM1473 983l10 -90h262l-33 90h-239zM1485 520h276l15 90h-285l-2 -20zM1487 858l4 -90h283l-19 90h-268zM1491 645h287l2 33l-4 55h-283v-37z" />
<glyph unicode="E" horiz-adv-x="1802" d="M41 0v47h65q84 0 113 6q16 0 26.5 4t12.5 4l31 23q29 23 41 61q10 47 10 131v826q0 86 -9 127t-38 63.5t-68 30.5l-119 6h-65v49h1702v-501h-43q-63 86 -148.5 173t-175.5 157.5t-158.5 96t-181.5 25.5h-215v-581h53q119 0 208 54t169 187h49v-532h-49l-28 47l-33 41 l-57 53q-16 16 -27.5 24.5t-34.5 20.5q-92 55 -197 55h-53v-651h211l55 8q51 6 82 15.5t80 27.5q63 25 162 101q170 127 305 305l45 2v-506h-1720zM324 47h342v66h-291l-23 -37zM324 1329q31 -25 51 -63h291v63h-342zM385 147h281v91h-273v-60zM385 1233l6 -47l2 -45h273v92 h-281zM393 272h273v90h-273v-90zM393 397h273v88h-273v-88zM393 520h273v90h-273v-90zM393 645h273v88h-273v-88zM393 768h273v90h-273v-90zM393 893h273v90h-273v-90zM393 1018h273v88h-273v-88zM1044 707l64 -39l49 -37l33 -31v107h-146zM1055 739h135v105 q-31 -33 -37 -39q-16 -14 -45 -33zM1241 47h379v80h-229l-58 -37zM1274 1329l61 -35l60 -43h207v78h-328zM1438 162h182v166q-23 -25 -61.5 -61t-75.5 -68zM1440 1217l55 -48q27 -23 58.5 -57.5t48.5 -52.5v158h-162z" />
<glyph unicode="F" horiz-adv-x="1783" d="M41 0v47h65q84 0 113 6q16 0 26.5 4t12.5 4l31 23q29 23 41 61q10 47 10 131v826q0 86 -9 127t-38 63.5t-68 30.5l-119 6h-65v49h1702v-501h-43q-63 86 -148.5 173t-175.5 157.5t-158.5 96t-181.5 25.5h-215v-581h53q119 0 208 54t169 187h49v-532h-49l-28 47l-33 41 l-57 53q-16 16 -27.5 24.5t-34.5 20.5q-92 55 -197 55h-53v-422q0 -84 9.5 -124.5t38 -63t65.5 -33.5l121 -8h65v-47h-1079zM324 47h383q-14 20 -19.5 29.5t-15.5 36.5h-297l-23 -37zM324 1329q31 -25 51 -63h291v63h-342zM385 147h283l-2 17v74h-273v-60zM385 1233l6 -47 l2 -45h273v92h-281zM395 272h271v90h-271v-90zM395 397h271v88h-271v-88zM395 520h271v90h-271v-90zM395 645h271v88h-271v-88zM395 768h271v90h-271v-90zM395 893h271v90h-271v-90zM395 1018h271v88h-271v-88zM1044 707l64 -39l49 -37l33 -31v107h-146zM1055 739h135v105 q-31 -33 -37 -39q-16 -14 -45 -33zM1274 1329l61 -35l60 -43h207v78h-328zM1440 1217l55 -48q27 -23 58.5 -57.5t48.5 -52.5v158h-162z" />
<glyph unicode="G" horiz-adv-x="2066" d="M41 702q0 156 58.5 289t174.5 240q212 192 562 192h4q117 0 200 -18l90 -29q16 -4 55.5 -22.5t51.5 -22.5l74 -31l53 -8q100 0 203 97h41l20 -508l-53 -9l-19 39l-28 50l-74 104q-31 43 -74 88t-86 82q-31 25 -72.5 50.5t-85.5 41.5t-94.5 24.5t-91.5 8.5 q-166 0 -245 -133q-115 -195 -115 -545q0 -342 112 -535q78 -133 259 -133q156 0 229 97q55 74 55 266q0 150 -39 195.5t-176 45.5h-78v48h1073v-48h-98h-56.5t-49 -8t-56.5 -45q-16 -20 -24 -37.5t-15 -50.5q-12 -59 -12 -170v-96l4 -86q0 -53 17 -119l-27 -18 q-101 71 -236 71h-4q-86 0 -243 -45l-107 -30l-59 -11l-64 -10l-137 -8q-350 0 -583.5 214t-233.5 533zM94 698l4 -53h299v88h-301zM98 768h303l5 51l6 39h-297l-9 -41zM102 610l9 -53l10 -37h285l-9 90h-295zM123 893h295l10 51l10 39h-280l-21 -49zM131 485l14 -45l23 -43 h262l-10 43l-8 45h-281zM174 1018h275l14 39l22 49h-256l-28 -43zM186 360l21 -34l39 -54h227l-20 52l-13 36h-254zM256 1141h246l24 41l31 49h-209l-39 -33zM274 238q53 -55 103 -88l162 -3l-27 41l-25 50h-213zM397 1266h187l39 45l61 55q-90 -12 -149 -29 q-27 -10 -58 -25.5t-80 -45.5zM432 115q61 -31 199 -80l-70 80h-129zM1210 57l39 11q111 30 209 30h6l52 -2l51 -8v62h-305q-6 -31 -52 -93zM1221 618l43 -65h319l8 27l8 22l9 16h-387zM1272 182h295v90h-283zM1276 520l8 -47l4 -43h281l6 90h-299zM1286 305h281v92h-279 v-24zM1364 1243l12 -12h105l-2 43q-53 -31 -115 -31zM1407 1196l45 -51l35 -51l-4 102h-76z" />
<glyph unicode="H" horiz-adv-x="2254" d="M41 0v47h65q84 0 113 6q16 0 26.5 4t12.5 4l31 23q29 23 41 61q10 47 10 131v826q0 86 -9 127t-38 63.5t-68 30.5l-119 6h-65v49h1026v-49h-12q-82 0 -117 -6q-33 0 -66 -29q-29 -16 -41 -65q-2 -6 -5 -23.5t-3 -27.5l-2 -76v-352l613 2v350q0 86 -9.5 127t-38 63.5 t-67.5 30.5l-119 6h-10v49h1024v-49h-66q-82 0 -116 -6q-33 0 -66 -29q-29 -16 -41 -65q-2 -6 -5 -23.5t-3 -27.5l-2 -76v-826q0 -84 9 -124.5t38 -63t66 -33.5l120 -8h66v-47h-1024v47h10q84 0 113 6q16 0 26.5 4t12.5 4l30 23q29 23 41 61q10 47 11 131v426h-613v-426 q0 -88 9.5 -126.5t38 -61t65.5 -33.5l121 -8h12v-47h-1026zM324 47h383q-14 20 -19.5 29.5t-15.5 36.5h-297l-23 -37zM324 1329q31 -25 51 -63h297l12 32q10 20 23 31h-383zM385 147h283l-2 17v74h-273v-60zM385 1231l6 -45l2 -45h273v76l2 14h-283zM395 272h271v90h-271 v-90zM395 397h271v88h-271v-88zM395 520h271v90h-271v-90zM395 645h271v88h-271v-88zM395 768h271v90h-271v-90zM395 893h271v90h-271v-90zM395 1018h271v88h-271v-88zM1417 47h383q-14 20 -19 29.5t-16 36.5h-297l-22 -37zM1417 1329q31 -25 51 -63h297l13 32q10 20 22 31 h-383zM1479 147h282l-2 17v74h-272v-60zM1479 1231l6 -45l2 -45h272v76l2 14h-282zM1489 272h270v90h-270v-90zM1489 397h270v88h-270v-88zM1489 520h270v90h-270v-90zM1489 645h270v88h-270v-88zM1489 768h270v90h-270v-90zM1489 893h270v90h-270v-90zM1489 1018h270v88 h-270v-88z" />
<glyph unicode="I" horiz-adv-x="1161" d="M41 0v47h65q84 0 113 6q16 0 26.5 4t12.5 4l31 23q29 23 41 61q10 47 10 131v826q0 86 -9 127t-38 63.5t-68 30.5l-119 6h-65v49h1079v-49h-65q-82 0 -117 -6q-33 0 -66 -29q-29 -16 -41 -65q-2 -6 -5 -23.5t-3 -27.5l-2 -76v-826q0 -84 9.5 -124.5t38 -63t65.5 -33.5 l121 -8h65v-47h-1079zM324 47h383q-14 20 -19.5 29.5t-15.5 36.5h-297l-23 -37zM324 1329q31 -25 51 -63h297l12 32q10 20 23 31h-383zM385 147h283l-2 17v74h-273v-60zM385 1231l6 -45l2 -45h273v76l2 14h-283zM395 272h271v90h-271v-90zM395 397h271v88h-271v-88zM395 520 h271v90h-271v-90zM395 645h271v88h-271v-88zM395 768h271v90h-271v-90zM395 893h271v90h-271v-90zM395 1018h271v88h-271v-88z" />
<glyph unicode="J" horiz-adv-x="1497" d="M41 311q0 94 65.5 159t161.5 65t160 -57.5t64 -149.5q0 -129 -148 -201q-20 -10 -22 -33q0 -39 61 -67l59 -17q45 -10 99 -10q82 0 107.5 31.5t25.5 150.5v920q0 94 -10 129q-6 37 -35 60.5t-70 31.5l-119 6h-65v49h1081v-49h-65l-113 -4l-41 -10l-33 -23 q-27 -18 -34 -49t-9 -43t-2 -39l-2 -61v-627q0 -168 -32.5 -252t-129.5 -151q-37 -27 -86 -50.5t-100 -35.5q-111 -29 -252 -29q-223 0 -369.5 101.5t-146.5 254.5zM96 307l2 -12h228l6 45l-6 43h-215zM102 258l13 -47l28 -41h97l34 43q20 14 37 45h-209zM127 418h186 q-37 55 -90 55t-96 -55zM174 133l25 -22l37 -23l-7 45h-55zM657 1329q31 -25 52 -63h299l12 30l20 33h-383zM688 8q170 18 246 105h-207q0 -38 -6 -56q-10 -25 -33 -49zM721 1231l6 -45l2 -45h272v90h-280zM729 147h227q14 31 20.5 49.5t12.5 41.5h-260v-91zM729 272h266 l4 70v20h-270v-90zM729 397h270l2 21v67h-272v-88zM729 520h272v90h-272v-90zM729 645h272v88h-272v-88zM729 768h272v90h-272v-90zM729 893h272v90h-272v-90zM729 1018h272v88h-272v-88z" />
<glyph unicode="K" horiz-adv-x="2394" d="M41 0v47h65q84 0 113 6q16 0 26.5 4t12.5 4l31 23q29 23 41 61q10 47 10 131v826q0 86 -9 127t-38 63.5t-68 30.5l-119 6h-65v49h1079v-49h-65q-82 0 -117 -6q-33 0 -66 -29q-25 -14 -41 -65l-8 -51l-2 -76v-504l527 381q127 90 127 201q0 149 -181 149h-2h-51v49h977 v-49h-27q-170 0 -332.5 -82t-353.5 -221l-174 -127l436 -522q70 -82 121 -135q66 -68 117 -109q27 -20 61.5 -39.5t59.5 -30.5q66 -16 168 -16h59v-47h-1159v47h63q57 0 79 13.5t22 52.5q0 23 -19 53l-39 53l-339 412l-140 -101v-254q0 -84 9.5 -124.5t38 -63t65.5 -33.5 l121 -8h16v-47h-1030zM324 47h383q-14 20 -19.5 29.5t-15.5 36.5h-297l-23 -37zM324 1329q31 -25 51 -63h297l12 32q10 20 23 31h-383zM385 147h283l-2 17v74h-273v-60zM385 1231l6 -45l2 -45h273v76l2 14h-283zM395 272h271v90h-271v-90zM395 397h271v88h-271v-88zM395 520 h271v90h-271v-90zM395 645h271v88h-271v-88zM395 768h271v90h-271v-90zM395 893h271v90h-271v-90zM395 1018h271v88h-271v-88zM999 664l15 -19h317l-76 88h-157zM1042 610l74 -90h318l-74 90h-318zM1143 485l74 -88h321l-76 88h-319zM1145 768h82l-31 39zM1245 362l72 -90 h323l-73 90h-322zM1346 238l26 -31l33 -60h340l-76 91h-323zM1393 47h434l-53 66h-361q0 -39 -20 -66zM1452 1329q37 -33 51 -63h164l68 63h-283zM1518 1118l114 113h-114l8 -57z" />
<glyph unicode="L" horiz-adv-x="1802" d="M41 0v47h65q141 0 187.5 40t46.5 189v873q0 96 -33 129q-51 51 -201 51h-65v49h1079v-49h-65q-135 0 -168 -20q-66 -43 -66 -207v-1055h162q184 0 346 90q188 111 387 367l45 2v-506h-1720zM324 47h342v66h-291l-23 -37zM324 1329q31 -25 51 -63h297l12 32q10 20 23 31 h-383zM385 147h281v91h-273v-60zM385 1231l6 -45l2 -45h273v63l2 27h-283zM395 272h271v90h-271v-90zM395 397h271v88h-271v-88zM395 520h271v90h-271v-90zM395 645h271v88h-271v-88zM395 768h271v90h-271v-90zM395 893h271v90h-271v-90zM395 1018h271v88h-271v-88zM1241 47 h379v92h-211l-80 -51zM1456 176h164v152q-74 -78 -164 -152z" />
<glyph unicode="M" horiz-adv-x="2611" d="M41 0v47q330 0 330 373v790q-82 119 -267 119h-57v49h795l514 -860l440 860h774v-49h-65q-84 0 -119 -6q-14 0 -31.5 -8t-32.5 -19q-31 -25 -38 -55.5t-9 -41.5t-2 -38l-2 -59v-826q0 -92 9.5 -128.5t39.5 -61.5q23 -14 62 -31l123 -8h65v-47h-1081v47h65q84 0 113 6 q16 0 26.5 4t12.5 4l31 23q29 23 41 61q10 47 10 131v969l-645 -1245h-39l-672 1112v-692q0 -373 303 -373v-47h-694zM242 47h204l-34 45h-113l-29 -22zM309 1329q14 -6 21.5 -11t21.5 -18l41 -34h309l-38 63h-355zM332 127l63 2l-10 43l-6 37l-19 -41zM422 1231l14 -21 l31 -53l10 -16h301l-55 90h-301zM498 1106l53 -88h301l-53 88h-301zM573 983l54 -90h299l-54 90h-299zM647 858l53 -90h301l-53 90h-301zM721 733l55 -88h299l-53 88h-301zM797 610l53 -90h301l-55 90h-299zM870 485l54 -88h301l-54 88h-301zM944 362l55 -90h232l31 62 l-17 28h-301zM1020 238l53 -91h92l47 91h-192zM1094 113l28 -45l27 45h-55zM1772 47h382q-18 27 -32 66h-299q-6 -18 -21 -33zM1833 147h283v17l-2 49v25h-271l-2 -43zM1843 272h271v90h-271v-90zM1843 397h271v88h-271v-88zM1843 520h271v90h-271v-90zM1843 645h271v88 h-271v-88zM1843 768h271v90h-271v-90zM1843 893h271v90h-271v-90zM1843 1018h271v88h-271v-88zM1843 1141h271v22l2 54v14h-273v-90zM1843 1266h279q5 30 32 63h-311v-63z" />
<glyph unicode="N" horiz-adv-x="2078" d="M41 0v47q330 0 330 373v747l-47 45l-29 23l-45 31l-43 30l-43 23l-45 6l-56 4h-8v49h785l807 -757v335q0 373 -304 373v49h695v-49l-88 -4q-12 -2 -20.5 -5t-43.5 -17q-178 -78 -178 -347v-1001h-45l-1231 1161v-696q0 -373 303 -373v-47h-694zM227 1329l43 -24l56 -39 h399l-70 63h-428zM242 47h204l-34 45h-113l-29 -22zM332 127l63 2l-10 43l-6 37l-19 -41zM369 1231l45 -39l53 -51h391l-96 90h-393zM504 1106l96 -88h389l-96 88h-389zM637 983l94 -90h389l-94 90h-389zM768 858l96 -90h389l-96 90h-389zM899 733l96 -88h389l-96 88h-389z M1032 610l94 -90h390l-95 90h-389zM1163 485l97 -88h389l-97 88h-389zM1296 362l95 -90h268v90h-363zM1427 238l97 -91h135v91h-232zM1524 1329l59 -43h111q12 20 16 25.5t19 17.5h-205zM1559 113l100 -95v95h-100zM1616 1251l41 -73l6 30l14 43h-61z" />
<glyph unicode="O" horiz-adv-x="1935" d="M41 694q0 340 295 559q231 170 598 170h4q431 0 692 -204q264 -207 264 -545q0 -172 -74.5 -321.5t-215.5 -248.5q-216 -149 -600 -149h-5q-223 0 -385.5 46t-298.5 155q-274 213 -274 538zM98 692l2 -47h318v88h-320v-41zM102 610l9 -45l12 -45h311l-8 45l-4 45h-320z M102 768h318l12 90h-313l-10 -47zM129 893h309l25 90h-295l-23 -49zM133 485l17 -47l24 -41h291l-12 35l-13 53h-307zM186 1018h289l39 88h-264l-37 -47zM193 362l28 -47l39 -43h254l-39 90h-282zM281 1141h254l20 37l39 53h-211zM291 238l53 -50l55 -41h191l-58 91h-241z M436 1266h185l49 53l47 45l-152 -33q-51 -18 -129 -65zM455 113q117 -66 252 -88l-54 49l-37 39h-161zM604 692l4 -119q0 -23 1 -35t16 -81l28 -121q8 -35 15.5 -58.5t23.5 -60.5q39 -106 110.5 -159.5t176.5 -53.5q172 0 268 172t96 488v26q0 314 -96 502q-98 184 -264 184 h-45l-47 -10q-35 -8 -60 -27q-100 -68 -163 -247q-16 -43 -26.5 -86t-20 -98.5t-13.5 -103.5t-4 -112zM1167 6q37 0 63.5 7t57.5 20.5t64.5 33t70.5 46.5h-157q-44 -64 -99 -107zM1171 1366l50 -51l34 -49h150l-53 37l-49 20zM1276 1231l24 -49l19 -41h225l-45 47l-47 43 h-176zM1286 147h180l54 54l32 37h-225zM1333 1106l25 -88h266l-27 47l-26 41h-238zM1339 272h240l31 45l24 45h-270l-10 -47zM1366 983l16 -90h295l-35 90h-276zM1372 397h279l18 45l14 43h-297zM1386 858l7 -90h313l-18 90h-302zM1391 520h303l14 90h-313zM1395 645h317v37 l-2 51h-315v-88z" />
<glyph unicode="P" horiz-adv-x="1933" d="M41 0v47h65q84 0 113 6q16 0 26.5 4t12.5 4l31 23q29 23 41 61q10 47 10 131v826q0 86 -9 127t-38 63.5t-68 30.5l-119 6h-65v49h1210q170 0 273 -18q51 -8 94 -25q20 -6 36.5 -14t51.5 -27q86 -47 135 -135q23 -39 37 -84t14 -96q0 -90 -51 -179t-133 -136.5t-178 -63.5 q-96 -20 -279 -20h-430v-301q0 -86 9.5 -127t38 -63.5t65.5 -33.5l121 -8h65v-47h-1079zM324 47h383q-14 20 -19.5 29.5t-15.5 36.5h-297l-23 -37zM324 1329q31 -25 51 -63h297l12 32q10 20 23 31h-383zM385 147h283l-2 17v74h-273v-60zM385 1231l6 -45l2 -45h273v76l2 14 h-283zM395 272h271v90h-271v-90zM395 397h271v88h-271v-88zM395 520h271v90h-271v-90zM395 645h271v88h-271v-88zM395 768h271v90h-271v-90zM395 893h271v90h-271v-90zM395 1018h271v88h-271v-88zM821 625h299q139 0 209 86t70 276q0 342 -279 342h-71q-133 0 -183 -49 q-20 -20 -32.5 -68.5t-12.5 -113.5v-473zM1296 625h23q88 0 158.5 24.5t136.5 83.5h-213q-41 -70 -105 -108zM1296 1329l37 -18l41 -45h185q-16 10 -39 22q-37 21 -72 29q-14 4 -27.5 6t-29.5 4l-72 4zM1399 1231l22 -43l15 -47h239l-30 47l-15 20l-26 23h-205zM1419 768 h226q33 41 49 90h-250q-8 -49 -25 -90zM1442 1106l10 -88h260l-8 43l-12 45h-250zM1448 893h256l6 45l2 45h-260v-22z" />
<glyph unicode="Q" horiz-adv-x="1961" d="M41 694q0 172 84 322.5t235 253.5q224 155 574 155h4q436 0 697 -204.5t261 -544.5q0 -336 -262 -549q51 -39 101 -39q66 0 106 49q37 49 37 152h43v-37q0 -186 -91 -299t-245 -113q-170 0 -297 140q-127 -25 -272 -25q-195 0 -359 37q-270 61 -443 256.5t-173 445.5z M100 692l2 -47h318v88h-320v-41zM104 610l9 -45l12 -45h311l-8 45l-4 45h-320zM104 768h318l12 90h-313l-10 -47zM131 893h309l25 90h-295l-23 -49zM135 485l17 -47l24 -41h291l-12 35l-13 53h-307zM188 1018h289l39 88h-264l-37 -47zM195 362l28 -47l39 -43h254l-39 90 h-282zM283 1141h254l20 37l39 53h-211zM293 238l53 -50l55 -41h191l-57 91h-242zM438 1266h185l49 53l47 45l-152 -33q-51 -18 -129 -65zM457 113q117 -66 252 -88l-54 49l-37 39h-161zM606 694q0 -119 28 -259t72 -239.5t110.5 -145.5t172.5 -46q66 0 113 19q25 10 45 25 t45 44l-37 74l-31 49q-80 127 -168 127q-29 0 -45 -16q-6 -4 -17 -23.5t-24 -42.5l-47 23q51 111 136 174t178 63q111 0 190 -94q18 133 19 254q0 266 -84 481t-283 215q-190 0 -281.5 -213t-91.5 -469zM969 397h264q-39 29 -68.5 44.5t-70.5 15.5q-66 0 -125 -60zM1040 362 q43 -29 56 -47l39 -43h188l-27 47l-30 43h-226zM1159 238l55 -91h256l48 48l36 43h-395zM1174 10l75 10l66 25l6 -10l6 -10h227l-20 12q-12 8 -27.5 20.5t-31.5 30.5l-13 10l-12 15h-217l14 -27l-51 -57zM1174 1364l49 -49l34 -49h150q-67 43 -102 57l-56 18zM1280 1231 l43 -90h223l-37 39l-55 51h-174zM1335 1106l27 -88h266l-24 41l-31 47h-238zM1341 272h240l27 39l26 51h-266zM1358 -10q94 -88 209 -88q78 0 135 57l-45 14l-39 17h-260zM1370 983l12 -90h295l-14 41l-21 49h-272zM1376 397h275l18 45l17 43h-297zM1386 858l9 -90h313 l-8 43l-12 47h-302zM1393 520h303l16 90h-315zM1397 645h317v35l-2 53h-315v-88z" />
<glyph unicode="R" horiz-adv-x="1978" d="M41 0v47h65q84 0 113 6q16 0 26.5 4t12.5 4l31 23q29 23 41 61q10 47 10 131v826q0 86 -9 127t-38 63.5t-68 30.5l-119 6h-65v49h1137l182 -2q109 0 229 -43q94 -37 152.5 -123t58.5 -190q0 -301 -370 -365l235 -446q49 -90 107 -125q33 -20 72.5 -28.5t92.5 -8.5v-47 h-649l-356 651h-111v-375q0 -84 9.5 -124.5t38 -63t65.5 -33.5l121 -8h12v-47h-1026zM324 47h383q-14 20 -19.5 29.5t-15.5 36.5h-297l-23 -37zM324 1329q31 -25 51 -63h291v63h-342zM385 147h283l-2 17v74h-273v-60zM385 1231l6 -45l2 -45h273v90h-281zM395 272h271v90 h-271v-90zM395 397h271v88h-271v-88zM395 520h271v90h-271v-90zM395 645h271v88h-271v-88zM395 768h271v90h-271v-90zM395 893h271v90h-271v-90zM395 1018h271v88h-271v-88zM821 698h129q324 0 324 314q0 172 -107 258q-74 59 -235 59h-111v-631zM991 651l4 -6h262l109 47 l39 17l41 24h-219l-41 -31l-47 -20l-62 -18zM1014 610l49 -90h260l-47 90h-262zM1081 485l49 -88h259l-48 88h-260zM1149 362l49 -90h256l-47 90h-258zM1159 1329l43 -29l37 -34h252l-39 22l-51 21l-49 14l-54 4l-61 2h-78zM1217 238l47 -91h256l-47 91h-256zM1257 768h240 q53 43 84 90h-276l-19 -43zM1266 1231l28 -53l17 -37h282l-24 45l-37 45h-266zM1284 113l35 -66h254l-35 66h-254zM1315 893h284l11 39l10 51h-291l-4 -45zM1319 1106l6 -39l4 -49h293l-2 53l-12 35h-289z" />
<glyph unicode="S" horiz-adv-x="1734" d="M223.5 1284q182.5 139 456.5 139q313 0 590 -209l243 189h33v-520h-43q-78 123 -164 209q-129 129 -307 206.5t-358 77.5q-166 0 -265.5 -56t-99.5 -159q0 -88 99 -135q31 -14 47 -20q35 -14 73 -21l203 -39l350 -53q29 -4 88.5 -18.5t87 -21.5t48.5 -13 q51 -14 112.5 -36t114.5 -60.5t90 -90.5q72 -102 72 -237q0 -211 -166 -336t-457 -125l-92 4l-70 8l-57 6l-74 21q-55 14 -97 29.5t-76 33t-85 52.5q-12 8 -100 69l-19 12l-268 -200h-49v567h49q37 -68 74 -113l100 -106q53 -55 122 -107.5t144 -95.5q221 -131 494 -131 q176 0 273.5 49t97.5 144q0 88 -84 135l-54 22l-63 23l-113 24l-112 23l-394 55q-577 80 -577 458q0 208 182.5 347zM86 938l4 -45h244l-58 35q-18 16 -43 55h-143zM94 1018h123q-6 23 -10 39t-4 30v21h-80l-12 -35zM96 858l13 -49l20 -41h832l-326 49q-76 12 -127 22.5 t-80 18.5h-332zM125 35l164 127h-164v-127zM125 197h168l-39 30l-45 45l-39 43l-45 58v-176zM141 1141h68l18 61l9 21q2 8 26 37q-45 -25 -69 -50q-16 -16 -52 -69zM150 733l45 -51l49 -37h1163q-29 16 -55.5 27.5t-51 20.5t-38.5 14q-43 14 -99 26h-1013zM305 610l33 -14 q27 -10 39 -14q35 -12 69.5 -22.5t83 -22t88.5 -15.5l21 -2h899l-35 47l-45 43h-1153zM874 485l103 -14q102 -14 185 -32.5t149 -41.5h268l-8 45l-17 43h-680zM1323 1169l49 -47l53 -59v106h-102zM1325 1204h100v82zM1389 362l41 -30q6 -4 18 -22.5t27 -37.5h98l6 41l2 39 v10h-192zM1458 86q43 33 64 57l20 43l21 52h-74l2 -37l-6 -49z" />
<glyph unicode="T" horiz-adv-x="1806" d="M41 770v608h1724v-608h-47q-8 31 -26.5 71t-40.5 79l-45 79l-60 80q-102 127 -205 201q-68 49 -163 49h-37v-1053q0 -86 10 -126.5t35.5 -62t66.5 -32.5l121 -8h66v-47h-1080v47h66q84 0 113 6q16 0 26 4t13 4l30 23q29 23 41 61q10 47 10 131v1053h-32l-60 -2 q-18 -4 -24 -5t-37 -14.5t-88 -60.5q-86 -76 -142 -141q-66 -78 -112 -168l-37 -70l-39 -98h-47zM88 1069q27 43 43 67.5t57 80.5h-100v-148zM88 1251h129l43 41l41 37h-213v-78zM643 47h383l-22 31l-13 35h-297l-22 -37zM705 147h282l-2 17v74h-272v-54zM713 272h272v90 h-272v-90zM713 397h272v88h-272v-88zM713 520h272v90h-272v-90zM713 645h272v88h-272v-88zM713 768h272v90h-272v-90zM713 893h272v90h-272v-90zM713 1018h272v88h-272v-88zM713 1141h272v92h-272v-92zM713 1266h272v63h-272v-63zM1346 1329l40 -29l62 -49h172v78h-274z M1485 1217q76 -80 135 -162v162h-135z" />
<glyph unicode="U" horiz-adv-x="2007" d="M41 1329v49h1081v-49h-65l-113 -4l-41 -8l-33 -25q-25 -18 -35 -56t-10 -75l-2 -59v-737q0 -152 68 -234q39 -49 110 -84q63 -29 144 -29q109 0 224.5 56.5t172.5 144.5q20 33 34.5 68t23 77t12.5 95t4 133v364q0 373 -305 373v49h655v-49q-289 -29 -289 -373v-385 q0 -143 -19.5 -226t-74.5 -165q-74 -111 -234.5 -168t-390.5 -57q-254 0 -411 102q-31 18 -76 62q-31 35 -33 39q-14 18 -30.5 44.5t-28.5 65.5l-25 76l-10 90l-4 125v541q0 94 -8 129t-35 58.5t-72 33.5l-119 8h-65zM324 1329q31 -25 51 -63h299q6 31 33 63h-383zM385 1231 l8 -43l2 -47h271v22l2 54v14h-283zM395 485l2 -49l4 -39h265v88h-271zM395 520h271v90h-271v-90zM395 645h271v88h-271v-88zM395 768h271v90h-271v-90zM395 893h271v90h-271v-90zM395 1018h271v88h-271v-88zM406 362l10 -51l14 -39h244l-4 41l-2 49h-262zM446 238l31 -48 l37 -43h201l-21 43l-14 48h-234zM553 113l65 -47l74 -31l80 -23q10 -4 39 -5t49 -1q-49 27 -72 47l-51 60h-184zM1493 1329l51 -37h123l31 37h-205zM1577 1257l33 -43l18 -45l2 33q0 16 21 55h-74z" />
<glyph unicode="V" horiz-adv-x="2074" d="M41 1329v49h1094v-49h-134q-104 0 -104 -82q0 -20 12 -57l17 -53l16 -31l356 -653l246 440q55 100 55 176q0 102 -70.5 181t-176.5 79h-47v49h729v-49q-55 -6 -81 -17.5t-81 -56.5l-51 -43l-47 -51l-82 -108l-93 -154l-536 -967h-37l-659 1209q-102 188 -297 188h-29z M250 1329l41 -24l41 -39h373l10 28l18 35h-483zM360 1231l23 -33l35 -57h317l-8 16q-18 35 -25 74h-342zM436 1106l49 -88h318l-49 88h-318zM504 983l49 -90h317l-49 90h-317zM571 858l50 -90h317l-49 90h-318zM639 733l49 -88h318l-50 88h-317zM707 610l49 -90h317l-49 90 h-317zM774 485l49 -88h318l-49 88h-318zM842 362l49 -90h309l4 7l-45 83h-317zM909 238l49 -91h175l49 91h-273zM977 113l67 -123l70 123h-137zM1509 1329q43 -31 70 -63h176l43 63h-289zM1602 1231l38 -78q10 -31 11 -74l22 43l62 109h-133z" />
<glyph unicode="W" horiz-adv-x="2988" d="M41 1329v49h1001v-49h-47q-131 0 -131 -63l4 -33l21 -45l332 -658l241 527q-47 102 -69 131q-16 31 -54.5 66.5t-72.5 52.5q-16 6 -48 12t-63 10v49h932v-49h-45q-76 0 -103.5 -13t-27.5 -50q0 -29 24 -78l330 -658l164 357q43 96 43 170q0 106 -67.5 183t-176.5 89v49 h719v-49q-59 0 -90 -10l-31 -12q-29 -14 -47 -29q-82 -51 -145 -135q-29 -37 -62 -96l-65 -127l-443 -971h-36l-533 1042l-477 -1042h-35l-567 1108l-47 92q-51 98 -116 139t-171 41h-41zM264 1329l49 -35l31 -28h348q0 28 23 63h-451zM371 1231l20 -31l23 -43l10 -16h303 l-16 30q-12 20 -19 60h-321zM440 1106l47 -88h301l-45 88h-303zM504 983l45 -90h303l-45 90h-303zM567 858l45 -90h301l-45 90h-301zM631 733l45 -88h301l-45 88h-301zM694 610l45 -90h301l-47 90h-299zM758 485l45 -88h299l-45 88h-299zM821 362l45 -90h240l29 62l-15 28 h-299zM885 238l45 -91h121l39 91h-205zM948 113l45 -88l41 88h-86zM1309 1329q35 -18 51 -35l31 -28h348q-1 28 22 63h-452zM1417 1231q29 -33 43 -74l8 -16h306l-17 30q-12 20 -18 60h-322zM1487 1106l45 -88h303l-45 88h-303zM1550 983l45 -90h303l-45 90h-303zM1614 858 l45 -90h301l-45 90h-301zM1677 733l45 -88h301l-45 88h-301zM1741 610l45 -90h299l-45 90h-299zM1804 485l45 -88h299l-45 88h-299zM1868 362l45 -90h239l27 62l-14 28h-297zM1931 238l45 -91h119l41 91h-205zM1995 113l45 -88l41 88h-86zM2367 1329l39 -33l33 -30h187 l12 16l16 23l21 24h-308zM2468 1231q29 -39 37 -68l10 -37l6 -39q39 82 80 144h-133z" />
<glyph unicode="X" horiz-adv-x="2148" d="M41 0v47l61 6q111 12 299 125q203 119 394 305l84 82l-453 549l-51 60q-20 25 -38 43t-38 34q-51 47 -98 66q-49 12 -142 12v49h1094v-49h-92q-102 0 -103 -61q0 -20 11.5 -44t27.5 -42l236 -279l119 109q80 74 104.5 110.5t24.5 85.5q0 51 -49.5 86t-118.5 35h-37v49 h784v-49l-45 -2q-88 0 -144 -16.5t-124 -56.5t-150 -101l-75 -59l-82 -76l-170 -160l448 -547l47 -57l62 -68q37 -39 80 -67l39 -27l47 -20l47 -13l67 -12v-47h-1030v47h47q109 0 109 64q0 33 -45 86l-275 323l-125 -114q-59 -55 -95 -103.5t-36 -89.5q0 -74 60.5 -120 t161.5 -46h49v-47h-887zM246 47h313q-18 31 -24 51h-175l-57 -28zM279 1329q16 -12 28 -20q25 -18 49 -43h392v14q0 27 14 49h-483zM389 1231l25 -29l37 -47l14 -14h350l-14 14l-27 37l-18 39h-367zM422 133h108q0 41 29 88zM494 1106l73 -88h351l-74 88h-350zM596 983 l74 -90h350l-74 90h-350zM698 858l76 -90h350l-75 90h-351zM803 733l74 -88h350l-74 88h-350zM905 610l74 -90h350l-74 90h-350zM1008 485l75 -88h349l-74 88h-350zM1112 362l74 -90h350l-76 90h-348zM1214 238l29 -33l35 -58h364l-36 39l-41 52h-351zM1260 47h495l-35 25 l-45 41h-389l-4 -37zM1475 1329q18 -10 38 -43h146l59 43h-243zM1528 1176l31 28l57 47h-88l4 -34z" />
<glyph unicode="Y" horiz-adv-x="2074" d="M41 1329v49h1087v-49h-73q-158 0 -158 -78q0 -35 37 -88l340 -477l176 248q78 109 78 205q0 88 -57.5 139t-155.5 51h-41v49h760v-49q-135 0 -254 -92t-285 -328l-203 -288v-345q0 -92 9.5 -128.5t39.5 -61.5q23 -14 62 -31l123 -8h65v-47h-1081v47h65q84 0 113 6 q16 0 26.5 4t12.5 4l31 23q29 23 41 61q10 47 10 131v242l-469 668q-100 143 -252 143h-47zM264 1329l41 -26l37 -37h360l9 34l28 29h-475zM369 1231l14 -19l49 -71h322l-21 26q-8 10 -15 27.5t-13 36.5h-336zM457 1106l63 -88h320l-64 88h-319zM545 983l63 -90h320l-64 90 h-319zM633 858l63 -90h318l-62 90h-319zM721 733l61 -88h320l-64 88h-317zM793 47h383q-18 27 -33 66h-299q-6 -18 -21 -33zM807 610l57 -80v-10h271v78l-9 12h-319zM854 147h283v17l-2 49v25h-271l-2 -43zM864 272h271v90h-271v-90zM864 397h271v88h-271v-88zM1487 1329 l29 -29l26 -34h146l69 63h-270zM1559 1231q18 -55 18 -103v-8l39 60l41 51h-98z" />
<glyph unicode="Z" horiz-adv-x="1607" d="M41 0v39l924 1290h-152q-238 0 -389 -117q-43 -35 -74 -63q-41 -39 -71 -80l-66 -86l-59 -106l-48 2v499h1461v-41l-926 -1290h100q233 0 414 143q98 76 174 160l92 105l76 108h39v-563h-1495zM104 47h336l47 66h-335zM154 1096l45 73l55 62h-100v-135zM154 1266h137 q33 26 94 63h-231v-63zM176 147h336l63 91h-335zM264 272h336l64 90h-336zM352 397h336l66 88h-336zM442 520h336l64 90h-336zM530 645h336l64 88h-336zM618 768h336l66 90h-336zM709 893h335l64 90h-336zM797 1018h336l63 88h-336zM885 1141h336l63 90h-334zM975 1266h336 l45 63h-334zM1030 47h377v86h-238l-82 -51zM1214 170h193v188l-35 -36l-82 -86z" />
<glyph unicode="[" horiz-adv-x="819" d="M41 -168v1714h737v-86h-307v-1550h307v-78h-737zM94 29v-119h213v119h-213zM94 74h213v114h-213v-114zM94 233h213v115h-213v-115zM94 391h213v115h-213v-115zM94 551h213v113h-213v-113zM94 709h213v114h-213v-114zM94 866h213v115h-213v-115zM94 1026h213v113h-213 v-113zM94 1184h213v114h-213v-114zM94 1341h213v119h-213v-119z" />
<glyph unicode="\" horiz-adv-x="1648" d="M41 1511h479l1088 -1644h-482zM133 1462l70 -106h246l-70 106h-246zM231 1313l76 -113h246l-76 113h-246zM336 1155l76 -115h245l-75 115h-246zM440 995l76 -114h246l-74 114h-248zM545 838l76 -113h245l-75 113h-246zM649 680l76 -117h248l-76 117h-248zM756 518 l73 -112h248l-76 112h-245zM858 362l76 -114h248l-76 114h-248zM963 203l75 -115h248l-76 115h-247zM1069 43l84 -127h248l-84 127h-248z" />
<glyph unicode="]" horiz-adv-x="819" d="M41 -90h307v1550h-307v86h737v-1714h-737v78zM403 29v-119h211v119h-211zM403 74h211v114h-211v-114zM403 233h211v115h-211v-115zM403 391h211v115h-211v-115zM403 551h211v113h-211v-113zM403 709h211v114h-211v-114zM403 866h211v115h-211v-115zM403 1026h211v113 h-211v-113zM403 1184h211v114h-211v-114zM403 1341h211v119h-211v-119z" />
<glyph unicode="^" horiz-adv-x="960" d="M41 1262l205 372h469l205 -372h-328l-113 202l-110 -202h-328zM123 1311h135l55 102h-135zM203 1458h135l45 80h115l45 -80h135l-70 127h-336zM567 1413l56 -102h135l-56 102h-135z" />
<glyph unicode="_" horiz-adv-x="1206" d="M41 -147h1124v-68h-1124v68z" />
<glyph unicode="`" horiz-adv-x="526" d="M41 1634h377l67 -372h-34zM166 1585l184 -166l-28 166h-156z" />
<glyph unicode="a" horiz-adv-x="1673" d="M41 0v39q92 0 164 67q39 37 75.5 88.5t79.5 129.5l455 811h39l514 -924q12 -23 27.5 -47.5t21.5 -32.5q14 -25 49 -51q49 -41 144 -41h22v-39h-862v39h84q41 0 72.5 20.5t31.5 53.5q0 25 -18 61l-72 133h-454q-12 -35 -13 -61q0 -59 31 -109q27 -51 80 -74l35 -16 q8 -4 43 -8h49v-39h-598zM164 39h188q-18 31 -24 51h-90l-41 -31zM266 119h53v24l5 47l-29 -40l-12 -13zM426 344h418l-211 385zM655 768l31 -53h248l-39 71h-231zM680 815h199l-39 70h-119zM700 686l39 -72h252l-41 72h-250zM737 913h88l-45 78zM754 588l41 -72h252l-41 72 h-252zM811 489l39 -73h252l-41 73h-250zM864 389l39 -72h252l-39 72h-252zM918 289l40 -70h254l-41 70h-253zM967 39h344l-29 51h-285q-6 -27 -30 -51zM975 190l6 -12q16 -35 18 -59h269l-39 71h-254z" />
<glyph unicode="b" horiz-adv-x="1499" d="M41 0v39h53l90 4q8 0 31 6l25 19q25 20 33 49.5t8 103.5v662q0 63 -7.5 98t-25 48t-30.5 20.5t-30 9.5l-94 6h-53v39h926l131 -4l57 -8l53 -17q111 -37 166.5 -103.5t55.5 -160.5q0 -92 -46 -149q-50 -64 -159 -109q233 -74 233 -277q0 -131 -115 -208 q-53 -35 -129.5 -51.5t-226.5 -16.5h-946zM268 37h273v51h-232l-18 -29zM268 1063q23 -18 41 -51h232v51h-273zM317 117h224v71h-217v-47zM317 983l5 -35l2 -37h217v72h-224zM324 217h217v72h-217v-72zM324 315h217v72h-217v-72zM324 414h217v73h-217v-73zM324 514h217v72 h-217v-72zM324 612h217v74h-217v-74zM324 713h217v71h-217v-71zM324 813h217v70h-217v-70zM666 37h112q63 0 94 6t70 31q90 53 90 215q0 143 -90 207q-37 25 -63 26l-60 6l-86 2h-67v-493zM666 573h151l60 9q27 6 67 32q82 59 82 207q0 139 -82 201q-27 20 -79 31.5 t-132 11.5h-67v-492zM909 549l37 -19l31 -16h160l-76 23l-76 12q63 6 143 37h-153l-25 -17zM936 1063l37 -25q14 -8 28 -26h179q-29 16 -48.5 25.5t-41.5 15.5l-56 6l-71 4h-27zM956 37h23q76 0 116 8t66.5 19.5t48.5 23.5h-194l-27 -27zM1006 612h182l31 23q10 10 19 21.5 t19 29.5h-208l-19 -41zM1008 487q23 -27 32 -43q6 -16 15 -30h223q-23 35 -82 73h-188zM1024 983q20 -35 33 -72h207l-23 37q-8 16 -29 35h-188zM1034 117h211q29 25 53 71h-233l-12 -36zM1057 713h213q14 35 20 71h-223l-2 -34zM1063 883l4 -33l2 -37h221l-2 37l-12 33 h-213zM1065 387l6 -27l6 -45h236l-6 37l-15 35h-227zM1073 217h236l6 31l2 31l-2 10h-236v-43z" />
<glyph unicode="c" horiz-adv-x="1347" d="M41 592q0 254 177 418t456 164q72 0 140.5 -19.5t143.5 -52.5l60 -27l47 -6q88 0 162 80h30l21 -461l-27 -6l-69 137q-33 55 -66 99q-8 10 -37 45q-39 43 -72.5 69.5t-80.5 50.5l-84 31q-39 10 -90 10q-127 0 -199 -140t-72 -400q0 -117 12.5 -189.5t22.5 -109.5t27 -80 q63 -156 219 -156t292 96.5t222 270.5l31 -17q-23 -55 -43 -84l-60 -79q-31 -43 -58.5 -69t-66.5 -54q-158 -113 -383 -113q-279 0 -467 169t-188 423zM84 590l2 -39h240l-2 24l2 48h-240zM88 524l8 -49l6 -24h230l-6 73h-238zM88 649h238l10 74h-238zM106 750h236l16 71 h-227l-12 -35zM111 424l12 -39l16 -33h213l-8 33l-8 39h-225zM145 850h222l12 37l16 33h-207l-26 -41zM154 326l26 -45l23 -27h186l-29 72h-206zM211 948h197l45 72h-168l-41 -35zM227 225l37 -37l45 -34h131l-18 30l-23 41h-172zM326 1049h149l39 43l49 41l-65 -9l-33 -8 l-51 -18l-39 -21zM350 125q78 -51 174 -70l-37 35l-26 35h-111zM1053 1040l22 -20h84l-2 41l-45 -19zM1104 993l37 -51l24 -35l-4 86h-57z" />
<glyph unicode="d" horiz-adv-x="1626" d="M41 0v39h51l90 4q14 0 33 6l25 19q20 16 32 49q4 27 6.5 48t2.5 56v662q0 63 -8.5 99t-30.5 50q-20 20 -54 27l-96 6h-51v39h920l63 -4l37 -2l69 -13q131 -25 218 -81q109 -72 173 -198t64 -259q0 -123 -53 -236q-29 -57 -67 -105t-87 -87q-39 -31 -82 -52.5t-94 -35.5 l-80 -13l-90 -10l-71 -6l-101 -2h-819zM266 39h275v51h-234q-14 -27 -18 -29zM266 1065q27 -25 41 -51h234v51h-275zM315 119h226v71h-219v-47zM315 985l7 -35v-37h219v72h-226zM324 219h217v72h-217v-72zM324 317h217v72h-217v-72zM324 416h217v73h-217v-73zM324 516h217 v72h-217v-72zM324 614h217v74h-217v-74zM324 715h217v71h-217v-71zM324 815h217v70h-217v-70zM666 39h141l90 4q47 0 87 18.5t67 51.5q106 119 106 442l-2 59l-6 107q0 41 -3 66.5t-14.5 65.5t-22.5 60.5t-32 53.5q-49 72 -100 82t-94 13t-88 3h-129v-1026zM1012 39 q51 0 97 15.5t81 35.5h-109l-22 -22q-12 -12 -47 -29zM1012 1065q39 -16 73 -51h101q-74 43 -174 51zM1104 119h125l39 33l35 38h-162l-15 -34zM1110 985l20 -33l21 -39h145l-32 37l-39 35h-115zM1153 219h170l47 72h-196zM1161 885l10 -33l9 -37h182l-21 37l-22 33h-158z M1180 317h202l15 33l14 39h-219zM1186 786l8 -71h209l-25 71h-192zM1196 416h221l10 73h-227l-2 -16zM1198 688l2 -74h227l-16 74h-213zM1200 516h230l2 27l-5 45h-225v-31z" />
<glyph unicode="e" horiz-adv-x="1458" d="M41 0v39h51l90 4q14 0 33 6l25 19q20 16 32 49q4 27 6.5 48t2.5 56v662q0 63 -8.5 99t-30.5 50q-20 20 -54 27l-96 6h-51v39h1362v-402h-35q-113 147 -256 265q-78 57 -134 77.5t-140 20.5h-172v-467h41q96 0 167.5 45t135.5 150h39v-426h-39l-25 36l-24 33l-48 43 q-31 27 -49 35q-72 45 -157 45h-41v-520h168l45 6q35 4 69.5 14.5t63 21.5t73.5 42q18 12 52 37q135 102 243 243l37 3v-406h-1376zM266 39h275v51h-234q-14 -27 -18 -29zM266 1065q27 -25 41 -51h234v51h-275zM315 119h226v71h-219v-47zM315 987l7 -37v-37h219v74h-226z M322 219h219v72h-219v-72zM322 317h219v72h-219v-72zM322 416h219v73h-219v-73zM322 516h219v72h-219v-72zM322 614h219v74h-219v-74zM322 715h219v71h-219v-71zM322 815h219v70h-219v-70zM844 565l51 -30l39 -29l27 -25v84h-117zM852 592h109v84q-10 -10 -29 -27.5 t-37 -30.5zM1001 39h304v63h-185l-45 -30zM1026 1065l49 -29l49 -35h164v64h-262zM1157 129h148v133q-53 -57 -111 -102zM1159 975l45 -39q29 -25 46.5 -45.5t37.5 -42.5v127h-129z" />
<glyph unicode="f" horiz-adv-x="1443" d="M41 0v39h53l90 4q12 0 31 6l25 19q25 20 32 49q4 27 6.5 48t2.5 56v662q0 63 -8.5 99t-30.5 50q-20 20 -54 27l-94 6h-53v39h1362v-402h-35q-113 147 -256 265q-78 57 -133 77.5t-141 20.5h-172v-467h43q92 0 164.5 45t136.5 150h39v-426h-39l-23 36l-26 33l-48 43 q-14 14 -25 21.5t-24 13.5q-72 45 -155 45h-43v-338q0 -76 6 -101.5t31.5 -47t52.5 -27.5l96 -6h53v-39h-864zM266 39h307q-18 26 -28 51h-238l-16 -29zM266 1065q27 -25 41 -51h234v51h-275zM315 119h228l-2 12v59h-217v-47zM315 987l7 -37l2 -37h217v74h-226zM324 219h217 v72h-217v-72zM324 317h217v72h-217v-72zM324 416h217v73h-217v-73zM324 516h217v72h-217v-72zM324 614h217v74h-217v-74zM324 715h217v71h-217v-71zM324 815h217v70h-217v-70zM844 565l51 -30l39 -29l27 -25v84h-117zM852 592h109v84q-10 -10 -29 -27.5t-37 -30.5z M1028 1065l49 -29l47 -35h166v64h-262zM1159 975l45 -39q27 -23 45 -43q12 -14 41 -45v127h-131z" />
<glyph unicode="g" horiz-adv-x="1669" d="M41 578q0 125 45 228t141 193q168 154 453 154q100 0 160 -14l73 -23l84 -37l60 -24l43 -6q80 0 162 77h32l17 -407l-43 -6l-15 30l-22 39l-60 84q-29 41 -58.5 72t-68.5 66q-51 43 -129 73q-41 14 -65.5 19.5t-81.5 5.5q-133 0 -197 -107q-92 -154 -92 -434 q0 -272 90 -428q61 -106 207 -106q125 0 185 75q43 61 43 213q0 125 -31 160t-142 35h-61v37h858v-37h-78q-59 0 -82.5 -7t-46 -35t-32 -69t-9.5 -70.5v-68.5v-76l2 -69q0 -37 15 -95l-23 -16q-78 57 -190 57q-70 0 -197 -34l-84 -25l-47 -8l-51 -8l-111 -6q-279 0 -466 171 t-187 427zM84 573l2 -43h240v72h-240zM86 629h244l2 41l6 30h-238l-6 -32zM90 504l6 -43l8 -31h228l-6 74h-236zM106 729h236l8 41l8 31h-223l-16 -39zM113 403l12 -36l18 -35h209l-8 35l-6 36h-225zM147 829h220l12 31l18 39h-204l-25 -35zM158 303l16 -29l31 -41h182 l-16 41l-11 29h-202zM213 928h197l20 33l25 38h-168l-31 -26zM227 205q41 -45 82 -70l129 -2l-20 33l-21 39h-170zM326 1028h149l31 35l49 45q-74 -8 -119 -23q-23 -8 -51.5 -24.5t-58.5 -32.5zM354 106q35 -18 66 -30q6 -2 92 -33l-55 63h-103zM977 61l31 9q98 24 167 24h5 l41 -2l41 -6v49h-244q-6 -29 -41 -74zM985 510l35 -53h254l8 22l6 17l6 14h-309zM1026 160h236v73h-226zM1028 430l8 -37l2 -35h226l4 72h-240zM1036 258h226v74h-224v-19zM1100 1010l10 -11h82v35q-41 -24 -88 -24h-4zM1135 971l34 -41l29 -41l-4 82h-59z" />
<glyph unicode="h" horiz-adv-x="1820" d="M41 0v39h53l90 4q12 0 31 6l25 19q25 20 32 49q4 27 6.5 48t2.5 56v662q0 63 -8.5 99t-30.5 50q-20 20 -54 27l-94 6h-53v39h821v-39h-10q-66 0 -94.5 -5t-50.5 -24q-25 -14 -33 -53l-6 -41l-2 -59v-283l489 2v281q0 63 -9 99t-28 50q-25 20 -55 27l-94 6h-8v39h819v-39 h-54q-68 0 -92 -6q-31 -2 -53 -23q-20 -12 -33 -53l-6 -41l-2 -59v-662q0 -76 6 -101.5t35 -48t49 -26.5l96 -6h54v-39h-819v39h8l90 4q8 0 31 6l24 19q25 20 33 49q4 27 6 48t2 56v342h-489v-342q0 -10 2 -50t6 -58.5t29.5 -40t52.5 -27.5l96 -6h10v-39h-821zM266 39h307 q-18 26 -28 51h-238l-16 -29zM266 1065q27 -25 41 -51h238l10 26l18 25h-307zM315 119h228l-2 12v59h-217v-47zM315 985l7 -35l2 -37h217v62l2 10h-228zM324 219h217v72h-217v-72zM324 317h217v72h-217v-72zM324 416h217v73h-217v-73zM324 516h217v72h-217v-72zM324 614h217 v74h-217v-74zM324 715h217v71h-217v-71zM324 815h217v70h-217v-70zM1143 39h305l-27 51h-237l-19 -29zM1143 1065q23 -18 41 -51h237l9 26l18 25h-305zM1192 119h225l-2 12v59h-217v-47zM1192 985l4 -35l2 -37h217v62l2 10h-225zM1200 219h215v72h-215v-72zM1200 317h215v72 h-215v-72zM1200 416h215v73h-215v-73zM1200 516h215v72h-215v-72zM1200 614h215v74h-215v-74zM1200 715h215v71h-215v-71zM1200 815h215v70h-215v-70z" />
<glyph unicode="i" horiz-adv-x="944" d="M41 0v39h51l90 4q8 0 31 6l25 19q23 18 32 48.5t9 104.5v662q0 37 -2.5 62.5t-7.5 48t-22.5 35.5t-31.5 20.5t-27 9.5l-96 6h-51v39h862v-39h-51q-66 0 -94 -6q-27 -2 -50.5 -18.5t-35.5 -57.5l-6 -41l-2 -59v-662q0 -61 8 -102q8 -25 32.5 -46.5t49.5 -27.5l98 -6h51 v-39h-862zM266 39h307q-18 26 -28 51h-238q-14 -27 -18 -29zM266 1065q23 -18 41 -51h238l10 26l18 25h-307zM315 119h226v71h-219v-47zM315 985l4 -35l3 -37h219v72h-226zM324 219h217v72h-217v-72zM324 317h217v72h-217v-72zM324 416h217v73h-217v-73zM324 516h217v72 h-217v-72zM324 614h217v74h-217v-74zM324 715h217v71h-217v-71zM324 815h217v70h-217v-70z" />
<glyph unicode="j" horiz-adv-x="1214" d="M41 266q0 74 52 126t130 52t128 -46t50 -119q0 -104 -118 -160q-16 -12 -17 -27q0 -31 49 -55l47 -12q10 -2 33 -5.5t45 -3.5q68 0 87.5 26t19.5 120v737q0 80 -8 102q-4 29 -28 48.5t-56 25.5l-95 4h-53v41h867v-41h-54l-90 -2l-33 -8l-24 -18q-23 -16 -26 -34t-7 -32 t-4 -39l-2 -49v-502q0 -135 -24.5 -199.5t-104.5 -123.5q-33 -20 -72 -39t-78 -29q-83 -24 -191 -24h-9q-180 0 -297 80.5t-117 205.5zM86 252h182l6 37l-6 35h-172l-10 -62v-10zM90 223l10 -39l23 -32h78l26 34q16 10 31 37h-168zM111 350h147q-27 45 -72 45q-42 0 -75 -45 zM147 123l21 -19l29 -18l-4 37h-46zM535 1079q20 -16 40 -49h240l10 25l17 24h-307zM559 23q133 14 197 83h-166q0 -35 -4 -45zM586 1001l4 -36l2 -35h217v71h-223zM592 135h182q12 23 16.5 34t10.5 38h-209v-72zM592 233h213l4 58v16h-217v-74zM592 334h217v72h-217v-72z M592 432h217v72h-217v-72zM592 532h217v72h-217v-72zM592 631h217v71h-217v-71zM592 731h217v72h-217v-72zM592 831h217v70h-217v-70z" />
<glyph unicode="k" horiz-adv-x="1931" d="M41 0v39h51l90 4q14 0 33 6l25 19q20 16 32 49q4 27 6.5 48t2.5 56v662q0 63 -8.5 99t-30.5 50q-20 20 -54 27l-96 6h-51v39h862v-39h-51q-66 0 -94.5 -5t-50.5 -24q-23 -12 -33 -53l-8 -41v-463l419 305q102 72 103 160q0 121 -146 121h-41v39h781v-39h-21 q-72 0 -135 -16.5t-131 -49.5q-125 -63 -283 -178l-139 -100l348 -420q53 -61 97 -106q51 -53 96 -89t94 -55q49 -12 135 -12h47v-39h-927v39h51q47 0 63.5 10t16.5 41q0 20 -15 43l-30 43l-273 330l-110 -82v-203q0 -76 6 -101.5t31.5 -47t52.5 -27.5l96 -6h12v-39h-823z M266 39h307q-18 26 -28 51h-238q-14 -27 -18 -29zM266 1065q27 -25 41 -51h238l10 26l18 25h-307zM315 119h228l-2 12v59h-219v-47zM315 985l7 -35v-37h219v62l2 10h-228zM324 219h217v72h-217v-72zM324 317h217v72h-217v-72zM324 416h217v73h-217v-73zM324 516h217v72h-217 v-72zM324 614h217v74h-217v-74zM324 715h217v71h-217v-71zM324 815h217v70h-217v-70zM807 530l12 -14h254l-61 72h-125zM842 489l59 -73h254l-59 73h-254zM922 389l59 -72h258l-61 72h-256zM924 614h65l-24 33zM1004 291l57 -72h260l-59 72h-258zM1085 190l21 -24l27 -47 h272l-62 71h-258zM1122 39h348l-43 51h-288q0 -33 -17 -51zM1169 1065q29 -25 41 -51h131l56 51h-228zM1223 895l92 90h-92l6 -45z" />
<glyph unicode="l" horiz-adv-x="1458" d="M41 0v39h53q115 0 151 31.5t36 150.5v699q0 78 -27 104q-45 41 -160 41h-53v39h864v-39h-53q-106 0 -135 -16q-51 -39 -51 -166v-844h129q154 0 276 72q76 43 151.5 115.5t157.5 176.5l37 3v-406h-1376zM266 39h275v51h-234l-16 -29zM266 1065q27 -25 41 -51h238l10 26 l18 25h-307zM315 119h226v71h-217v-47zM315 985l7 -35l2 -37h217v52l2 20h-228zM324 219h217v72h-217v-72zM324 317h217v72h-217v-72zM324 416h217v73h-217v-73zM324 516h217v72h-217v-72zM324 614h217v74h-217v-74zM324 715h217v71h-217v-71zM324 815h217v70h-217v-70z M1001 39h304v74h-170l-64 -41zM1174 141h131v121q-55 -58 -131 -121z" />
<glyph unicode="m" horiz-adv-x="2105" d="M41 0v39q264 0 264 297v633q-68 96 -213 96h-45v39h635l412 -688l352 688h618v-39h-51q-68 0 -94.5 -4t-51 -22.5t-32.5 -47.5l-8 -61v-709q0 -80 7 -106.5t32 -44.5q16 -12 49 -25l98 -6h51v-39h-864v39h53l90 4q12 0 31 6l25 19q25 20 33 49q4 27 6 48t2 56v776 l-516 -997h-31l-539 891v-555q0 -297 244 -297v-39h-557zM203 39h164l-29 35h-90l-23 -19zM256 1065l35 -25l33 -26h247l-30 51h-285zM274 102l52 2l-9 33l-6 31l-14 -33zM346 985l12 -16l25 -43l8 -13h240l-43 72h-242zM408 885l43 -70h239l-43 70h-239zM467 786l43 -71 h240l-43 71h-240zM526 688l43 -74h242l-43 74h-242zM586 588l45 -72h237l-41 72h-241zM647 489l41 -73h242l-45 73h-238zM705 389l43 -72h241l-43 72h-241zM764 291l45 -72h184l25 49l-12 23h-242zM825 190l43 -71h74l37 71h-154zM885 90l22 -35l21 35h-43zM1425 39h308 q-17 22 -27 51h-240q-2 -8 -16 -27zM1475 119h227v12l-2 39v20h-217v-34zM1483 219h217v72h-217v-72zM1483 317h217v72h-217v-72zM1483 416h217v73h-217v-73zM1483 516h217v72h-217v-72zM1483 614h217v74h-217v-74zM1483 715h217v71h-217v-71zM1483 815h217v70h-217v-70z M1483 913h217v19l2 43v10h-219v-72zM1483 1014h223q6 25 27 51h-250v-51z" />
<glyph unicode="n" horiz-adv-x="1679" d="M41 0v37q264 0 264 299v598l-37 37l-24 18l-35 25l-35 24l-35 17l-35 6l-51 2v41h627l645 -608v270q0 297 -242 297v41h555v-41l-69 -2l-51 -19q-143 -61 -144 -276v-801h-35l-985 928v-557q0 -299 242 -299v-37h-555zM190 1063l35 -19l43 -30h320l-56 49h-342zM203 37 h164l-29 37h-90l-23 -19zM274 102h52q-8 20 -9 35l-6 31l-14 -33zM303 985l37 -31l43 -41h311l-76 72h-315zM412 885l77 -70h312l-78 70h-311zM518 786l76 -71h311l-76 71h-311zM623 686l77 -72h312l-78 72h-311zM727 586l78 -70h311l-78 70h-311zM834 487l75 -71h312 l-76 71h-311zM940 389l76 -72h311l-76 72h-311zM1047 291l73 -74h215v74h-288zM1151 190l76 -71h108v71h-184zM1227 1063l49 -33h88q16 25 27 33h-164zM1255 90l80 -76v76h-80zM1300 1001l33 -59l6 25l11 34h-50z" />
<glyph unicode="o" horiz-adv-x="1564" d="M41 563q0 274 235 449q185 135 480 135q348 0 558 -163t210 -437q0 -141 -58.5 -258t-173.5 -197q-174 -119 -483 -119q-182 0 -309 37t-240 123q-219 172 -219 430zM88 524h254v72h-254v-72zM90 498l6 -37l10 -37h250l-6 37l-4 37h-256zM90 623h254l10 73h-250 q-8 -25 -8 -39zM113 723h245l21 72h-236l-18 -39zM115 397l14 -39l18 -32h234l-10 28l-11 43h-245zM158 823h231l31 70h-211l-31 -37zM162 299l24 -39l31 -33h203l-31 72h-227zM233 922h203l17 28l30 43h-168zM242 199l43 -39l43 -33h153l-47 72h-192zM358 1022h148l39 43 l37 35q-8 -2 -57.5 -12.5t-67 -16.5t-40 -17.5t-59.5 -31.5zM373 98q100 -55 200 -69l-43 39l-28 30h-129zM492 563l4 -96l12 -92l22 -99l33 -94q35 -90 89.5 -130t140.5 -40q139 0 214.5 135.5t75.5 391.5v22q0 254 -77.5 401.5t-210.5 147.5h-35l-39 -8l-47 -21 q-78 -53 -131 -198q-25 -70 -34 -132.5t-13 -106.5t-4 -81zM942 14q31 0 53.5 6.5t51.5 18.5q41 18 100 59h-125q-35 -49 -80 -84zM946 1102l39 -41l29 -39h119l-43 29l-39 16zM1030 993l19 -39l14 -32h180l-35 36l-39 35h-139zM1038 127h144l43 43l26 29h-180zM1075 893 l21 -70h213l-23 37l-20 33h-191zM1079 227h193l24 35l21 37h-217l-8 -39zM1102 795l12 -72h236l-27 72h-221zM1106 326h223l14 36l13 35h-238zM1118 696l4 -73h252l-16 73h-240zM1120 424h244l10 74h-250zM1124 524h254v31l-2 41h-252v-72z" />
<glyph unicode="p" horiz-adv-x="1562" d="M41 0v39h53l90 4q8 0 31 6l25 19q25 20 32 49q4 27 6.5 48t2.5 56v662q0 63 -7.5 98t-31 53.5t-54.5 24.5l-94 6h-53v39h969q68 0 123 -4t94 -10l76 -21l71 -33q70 -39 107 -108q18 -31 29.5 -65t11.5 -79q0 -41 -8.5 -75.5t-30.5 -69.5q-41 -72 -103.5 -106.5 t-141.5 -51t-228 -16.5h-344v-242q0 -43 2 -63.5t6 -43t32.5 -45t49.5 -26.5l96 -6h53v-39h-864zM268 39h305l-26 51h-238l-18 -29zM268 1065q23 -18 41 -51h238l8 26l18 25h-305zM317 119h226l-2 12v59h-217v-47zM317 985l5 -35l2 -37h217v62l2 10h-226zM326 219h215v72 h-215v-72zM326 317h215v72h-215v-72zM326 416h215v73h-215v-73zM326 516h215v72h-215v-72zM326 614h215v74h-215v-74zM326 715h215v71h-215v-71zM326 815h215v70h-215v-70zM666 500h239q111 0 166 71q57 66 57 220q0 274 -223 274h-57q-109 0 -146 -41q-16 -14 -26 -56 t-10 -89v-379zM1047 500h16q74 0 129 20q57 19 108 68h-172q-16 -31 -35.5 -50.5t-45.5 -37.5zM1047 1065l28 -16l33 -35h147q-37 25 -88 41l-47 8l-57 2h-16zM1128 985l17 -35l12 -37h193l-25 37l-12 17l-21 18h-164zM1145 614h180q25 35 39 74h-201q-6 -39 -18 -74z M1161 885l8 -70h209l-6 35l-10 35h-201zM1167 715h205l4 37l2 34h-209v-16z" />
<glyph unicode="q" horiz-adv-x="1585" d="M41 555q0 137 64.5 255t191.5 206q184 125 461 125q346 0 557 -165t211 -435q0 -266 -211 -441q42 -30 78 -30h2q55 0 84.5 37.5t29.5 123.5h35v-30q0 -150 -72.5 -239t-195.5 -89q-135 0 -238 113q-96 -20 -217 -21q-158 0 -286 31q-217 47 -355.5 203.5t-138.5 355.5z M88 553l2 -37h254v70h-256v-33zM92 487l6 -34l11 -37h247l-6 37l-4 34h-254zM92 614h254l8 72h-250l-8 -37zM113 715h247l19 71h-236l-18 -38zM117 387l12 -37l21 -33h231l-10 29l-9 41h-245zM158 813h231l31 72h-211l-29 -39zM164 289l22 -37l31 -35h203l-31 72h-225z M233 911h203l17 31l32 43h-170zM242 190l43 -40l45 -33h151l-45 73h-194zM358 1012h148l39 43l39 37l-123 -27q-25 -8 -45.5 -19.5t-57.5 -33.5zM373 90q90 -53 202 -72l-43 41l-30 31h-129zM494 555q0 -106 21.5 -209.5t56 -184.5t90 -120t137.5 -39q51 0 88 14.5t74 57.5 l-29 59l-25 39q-63 100 -135 100q-23 0 -35 -12q-9 -6 -32 -53l-39 18q41 86 108.5 138.5t143.5 52.5q88 0 151 -76q14 100 14 203q0 213 -66.5 385t-225.5 172q-152 0 -224.5 -170t-72.5 -375zM782 317h211l-55 37q-20 10 -55 11q-54 -1 -101 -48zM840 289q35 -23 45 -37 l30 -35h152l-23 39l-24 33h-180zM936 190l43 -73h205l39 39l28 34h-315zM946 8l62 8l51 19l6 -8l4 -9h182l-16 11q-25 16 -47 41l-10 8l-11 12h-174l13 -22l-41 -45zM946 1092l39 -41l29 -39h119q-53 37 -82 47l-43 14q-29 6 -62 19zM1032 985l35 -74h178l-31 33l-43 41 h-139zM1075 885l23 -72h213l-21 33l-24 39h-191zM1081 217h191l22 31l21 41h-213zM1094 -6q78 -72 168 -72q57 0 108 47l-37 11l-30 14h-209zM1104 786l10 -71h236l-13 33l-16 38h-217zM1108 317h221l14 37l13 33h-238zM1116 686l8 -72h250l-6 35l-10 37h-242zM1122 416h242 l14 71h-254zM1124 516h254v70h-254v-70z" />
<glyph unicode="r" horiz-adv-x="1597" d="M41 0v39h51l90 4q8 0 31 6l25 19q23 18 32 48.5t9 104.5v662q0 37 -2.5 62.5t-7.5 48t-22.5 35.5t-31.5 20.5t-27 9.5l-96 6h-51v39h909l146 -2q45 0 91 -9.5t91 -25.5q80 -29 123 -96q47 -68 47 -154q0 -242 -297 -293l188 -356q37 -72 84 -100.5t133 -28.5v-39h-518 l-284 522h-90v-301q0 -61 8 -102q8 -25 32.5 -46.5t49.5 -27.5l98 -6h8v-39h-819zM266 39h307q-18 26 -28 51h-238q-14 -27 -18 -29zM266 1065q23 -18 41 -51h234v51h-275zM315 119h226v71h-219v-47zM315 985l4 -35l3 -37h219v72h-226zM324 219h217v72h-217v-72zM324 317 h217v72h-217v-72zM324 416h217v73h-217v-73zM324 516h217v72h-217v-72zM324 614h217v74h-217v-74zM324 715h217v71h-217v-71zM324 815h217v70h-217v-70zM664 559h104q258 0 258 252q0 139 -84 205q-61 49 -188 49h-90v-506zM801 522l2 -6h211l86 39l30 12l33 21h-174 l-33 -25l-38 -16l-50 -17zM819 489l39 -73h207l-37 73h-209zM872 389l39 -72h207l-37 72h-209zM926 291l41 -72h204l-38 72h-207zM934 1065l35 -25l30 -26h201l-31 18l-41 17l-38 10l-43 4l-50 2h-63zM981 190l37 -71h205l-37 71h-205zM1014 614h190q21 17 38.5 35.5 t29.5 38.5h-221l-15 -35zM1020 985l22 -43l15 -29h225l-20 37l-29 35h-213zM1034 90l29 -51h203l-29 51h-203zM1059 715h227l8 30l9 41h-232l-4 -34zM1063 885l4 -31l4 -39h234l-2 43l-9 27h-231z" />
<glyph unicode="s" horiz-adv-x="1404" d="M41 760q0 166 146.5 276.5t365.5 110.5q250 0 471 -166l197 149h24v-415h-33q-59 92 -131 168q-106 104 -246.5 165.5t-285.5 61.5q-135 0 -214 -46t-79 -126q0 -72 80 -109q31 -16 46 -21t50 -11l162 -31l280 -43q8 -2 52.5 -12.5t77.5 -16.5l135 -41 q109 -39 167 -119.5t58 -191.5q0 -168 -133 -268.5t-365 -100.5l-73 2l-56 7l-47 6l-59 16q-47 12 -88 28.5t-55.5 25t-61.5 38.5q-72 49 -82 56l-14 10l-215 -162h-39v455h39q35 -59 59 -90l80 -86q47 -47 100 -89q41 -31 113 -73q92 -53 190.5 -79t204.5 -26q143 0 220 40 t77 114q0 72 -67 108l-43 19l-50 16l-90 21l-90 18l-315 43q-463 68 -463 369zM78 760l4 -37h194l-47 29q-16 18 -32 43h-115zM84 823h98q-4 12 -7 23.5t-3 32.5v16h-66l-8 -27zM86 696l10 -41l17 -32h665l-262 41q-115 16 -164 32h-266zM109 37l131 100h-131v-100zM109 166 h135l-31 24l-37 37l-31 33l-36 47v-141zM123 922h53l14 49l7 16l22 29q-31 -14 -55 -39q-10 -10 -18.5 -20.5t-22.5 -34.5zM129 596l35 -41l41 -31h930q-43 25 -86 39q-13 4 -44.5 14.5t-64.5 18.5h-811zM254 498l25 -13q20 -8 43.5 -16t57.5 -17.5t59.5 -15.5t64.5 -10 l16 -2h719l-27 39l-36 35h-922zM709 397l82 -12q164 -20 266 -59h215l-6 36l-13 35h-544zM1067 944l39 -37l43 -47v84h-82zM1069 973h80v65zM1120 299l33 -25q10 -8 35 -47h80l4 33l2 31v8h-154zM1176 78l51 45l16 35l17 41h-60l2 -29l-6 -41z" />
<glyph unicode="t" horiz-adv-x="1462" d="M41 616v488h1380v-488h-39q-12 47 -53 121q-2 2 -13 24.5t-24 39.5l-47 63q-82 102 -164 160q-57 41 -131 41h-28v-844q0 -37 2 -62.5t7 -47t25 -39.5q12 -8 27.5 -16.5t28.5 -10.5l96 -6h51v-39h-862v39h51l90 4q14 0 33 6l25 19q20 16 32 49q4 27 6.5 48t2.5 56v844 h-27l-47 -2l-45 -14q-35 -14 -76 -50q-68 -61 -113 -114q-53 -63 -90 -133l-28 -56l-33 -80h-37zM78 856l82 119h-82v-119zM78 1001h104l35 33l33 31h-172v-64zM522 39h307l-18 24l-10 27h-238q-14 -27 -18 -29zM571 119h228l-2 12v59h-219v-43zM578 219h219v72h-219v-72z M578 317h219v72h-219v-72zM578 416h219v73h-219v-73zM578 516h219v72h-219v-72zM578 614h219v74h-219v-74zM578 715h219v71h-219v-71zM578 815h219v70h-219v-70zM578 913h219v74h-219v-74zM578 1014h219v51h-219v-51zM1085 1065l33 -25l49 -39h138v64h-220zM1196 975 q66 -68 109 -131v131h-109z" />
<glyph unicode="u" horiz-adv-x="1622" d="M41 1069v41h864v-41h-51l-90 -2l-33 -6l-26 -21q-20 -16 -29 -43l-8 -61v-639q0 -121 53 -186q37 -43 88 -67t115 -24q88 0 180 45.5t137 116.5q35 51 47 115.5t12 181.5v293q0 297 -243 297v41h524v-41q-231 -23 -231 -297v-309q0 -119 -14.5 -182.5t-61.5 -130.5 q-59 -88 -189.5 -133.5t-310.5 -45.5q-201 0 -328 80l-61 49q-8 10 -29 33q-8 10 -22 35l-23 53q-10 25 -13 35t-7 25l-8 73l-2 99v434q0 68 -7.5 99.5t-28 51t-57.5 25.5l-94 6h-53zM266 1069q27 -20 41 -49h240q6 27 26 49h-307zM315 991l9 -35v-36h217v18l2 41v12h-228z M324 395l2 -41l4 -30h211v71h-217zM324 422h217v72h-217v-72zM324 522h217v72h-217v-72zM324 621h217v71h-217v-71zM324 721h217v72h-217v-72zM324 821h217v70h-217v-70zM332 297l8 -41l12 -33h195l-2 33l-2 41h-211zM365 197l24 -39l31 -33h160l-17 33l-10 39h-188zM451 96 l53 -37l57 -24l66 -19q23 -6 69 -6l-57 39l-41 47h-147zM1202 1069l41 -29h98l25 29h-164zM1270 1012l26 -33l15 -37l2 27q0 16 16 43h-59z" />
<glyph unicode="v" horiz-adv-x="1677" d="M41 1067v39h877v-39h-109q-82 0 -82 -66l8 -45l15 -43l12 -24l287 -522l196 352q43 82 43 141q0 84 -55 145.5t-143 61.5h-37v39h583v-39q-18 0 -39.5 -6t-27.5 -8q-25 -10 -62 -45l-41 -33l-39 -41l-65 -88l-74 -123l-430 -770h-29l-528 965q-79 149 -236 149h-2h-22z M209 1067l33 -18l32 -33h297l9 24q10 20 16 27h-387zM297 989l18 -26l27 -45h254l-6 12q-10 24 -14.5 36.5t-4.5 22.5h-274zM358 889l39 -70h254l-39 70h-254zM412 791l39 -72h254l-39 72h-254zM465 690l41 -72h254l-41 72h-254zM520 590l39 -70h254l-39 70h-254zM573 492 l39 -72h254l-39 72h-254zM629 393l39 -71h254l-39 71h-254zM682 295l39 -74h248l4 6l-37 68h-254zM735 195l41 -72h139l39 72h-219zM791 94l53 -96l55 96h-108zM1217 1067q35 -27 55 -51h141l35 51h-231zM1290 989l31 -63q8 -18 8 -58l19 33l49 88h-107z" />
<glyph unicode="w" horiz-adv-x="2406" d="M41 1053v39h801v-39h-37q-106 0 -107 -52l4 -26l17 -35l266 -526l193 422q-37 80 -56 104q-16 29 -44.5 57.5t-57.5 36.5q-25 12 -88 19v39h745v-39h-35q-59 0 -82.5 -11.5t-23.5 -40.5q0 -23 20 -61l265 -526l131 284q35 80 35 138q0 80 -55.5 144t-141.5 73v39h575v-39 q-31 0 -43 -2t-28 -7l-25 -10q-8 -4 -18 -10t-19 -12q-68 -41 -116 -109q-12 -14 -24.5 -33.5t-25.5 -42.5l-53 -102l-354 -776h-29l-426 833l-383 -833h-26l-455 887l-37 73q-23 39 -44 67t-48 42q-53 35 -137 35h-33zM219 1053l39 -29l25 -23h278q0 23 19 52h-361z M305 975l17 -25l16 -35l8 -14h244l-15 25l-14 49h-256zM360 874l37 -71h242l-37 71h-242zM412 776l34 -71h244l-37 71h-241zM461 676l37 -72h241l-37 72h-241zM512 575l37 -69h239l-34 69h-242zM563 477l37 -71h240l-37 71h-240zM614 377l35 -70h240l-35 70h-240zM666 279 l34 -72h193l22 49l-12 23h-237zM715 180l37 -74h96l31 74h-164zM766 80l37 -72l33 72h-70zM1055 1053l41 -29l24 -23h279q0 23 18 52h-362zM1141 975q12 -14 20 -28.5t15 -31.5l6 -14h245l-14 25l-14 49h-258zM1198 874l35 -71h244l-37 71h-242zM1247 776l37 -71h244l-37 71 h-244zM1298 676l37 -72h242l-37 72h-242zM1350 575l36 -69h240l-35 69h-241zM1401 477l37 -71h237l-35 71h-239zM1452 377l35 -70h239l-34 70h-240zM1503 279l35 -72h193l20 49l-10 23h-238zM1552 180l37 -74h94l33 74h-164zM1604 80l36 -72l33 72h-69zM1903 1053l30 -27 l27 -25h149l9 15l14 16l16 21h-245zM1982 975q23 -37 29 -55l8 -29l6 -31q11 25 25 49.5t39 65.5h-107z" />
<glyph unicode="x" horiz-adv-x="1734" d="M41 0v39l49 4q88 8 243.5 101.5t309.5 242.5l68 66l-363 440l-41 47l-59 61q-41 39 -80 54q-45 10 -113 10v39h875v-39h-74q-82 0 -82 -49q0 -18 10 -35q6 -16 21 -35l190 -223l95 88q61 55 81.5 86t20.5 70q0 41 -39 69.5t-94 28.5h-31v39h629v-39l-37 -2 q-63 0 -111.5 -13.5t-103.5 -45.5q-20 -12 -56 -36t-63 -44l-61 -47l-66 -62l-135 -127l358 -438l39 -47l49 -53q27 -31 64 -54l31 -22l37 -17l38 -10l54 -8v-39h-824v39h37q88 0 88 49q0 27 -37 70l-219 258l-100 -90q-51 -49 -80 -86q-25 -37 -24 -70q0 -59 48 -95 t128 -36h39v-39h-709zM205 39h250q-16 25 -19 41h-139l-47 -25zM231 1065l62 -51h313v10q0 23 10 41h-385zM319 985l19 -22l31 -37l10 -13h280l-10 13l-22 28l-15 31h-293zM346 106h86q0 33 23 72zM403 885l58 -70h280l-59 70h-279zM485 786l58 -71h280l-59 71h-279z M567 688l60 -74h280l-61 74h-279zM649 588l60 -72h280l-59 72h-281zM731 489l60 -73h280l-59 73h-281zM813 389l61 -72h279l-59 72h-281zM897 291l59 -72h281l-61 72h-279zM979 190l25 -26l26 -45h293l-31 31l-32 40h-281zM1016 39h397l-29 18l-36 33h-312l-2 -29 q-4 -10 -18 -22zM1188 1065q20 -14 31 -35h116l47 35h-194zM1231 942l24 23l45 36h-69l2 -26z" />
<glyph unicode="y" horiz-adv-x="1677" d="M41 1065v39h870v-39h-59q-125 0 -125 -64q0 -33 29 -69l272 -383l141 199q61 86 62 163q0 70 -46 112t-124 42h-33v39h608v-39q-109 0 -202 -71.5t-230 -264.5l-162 -231v-277q0 -45 2.5 -65.5t7.5 -44t29 -41.5l49 -25l99 -6h53v-39h-866v39h53l90 4q8 0 31 6l24 19 q23 18 32 48.5t9 104.5v195l-374 534q-80 115 -201 115h-39zM219 1065l33 -23l31 -28h288l7 26l22 25h-381zM303 985l12 -14l39 -58h258l-16 21q-12 14 -17.5 27.5t-7.5 23.5h-268zM375 885l49 -70h256l-51 70h-254zM444 786l52 -71h256l-52 71h-256zM514 688l51 -74h254 l-49 74h-256zM586 588l49 -72h256l-51 72h-254zM643 39h307q-16 22 -26 51h-240l-16 -27zM653 489l47 -65v-8h215v63l-6 10h-256zM692 119h226v71h-218l-2 -34zM700 219h218v72h-218v-72zM700 317h218v72h-218v-72zM1198 1065l23 -25l22 -26h117l55 51h-217zM1255 985 q14 -41 15 -88l33 47l32 41h-80z" />
<glyph unicode="z" horiz-adv-x="1302" d="M41 -6v31l737 1034h-121q-188 0 -311 -94q-35 -27 -62.5 -54.5t-54.5 -60.5l-51 -70l-47 -84l-39 2v400h1170v-33l-742 -1032h80q186 0 332 114q74 55 139 127l74 84l59 86h33v-450h-1196zM90 33h270l37 51h-268zM131 870l35 60l45 49h-80v-109zM131 1008h109l75 51h-184 v-51zM147 113h271l49 71h-268zM219 213h268l52 72h-269zM289 311h268l53 72h-268zM360 410h271l49 73h-268zM432 510h268l52 72h-269zM502 608h268l53 74h-268zM573 709h271l49 71h-268zM645 809h268l52 70h-269zM715 907h268l51 72h-266zM786 1008h271l35 51h-267zM831 33 h302v67h-191l-65 -41zM979 131h154v150l-27 -29l-66 -70z" />
<glyph unicode="{" horiz-adv-x="614" d="M41 606v33q66 20 93.5 66.5t27.5 136.5v405q0 154 63 217q55 55 164 56h184v-35q-92 0 -142 -47t-50 -166v-428q0 -88 -12 -131q-25 -78 -101 -90q63 -12 88 -65.5t25 -164.5v-405q0 -117 43 -171.5t149 -54.5v-34h-174q-141 0 -189 67.5t-48 245.5v360q0 92 -25.5 135.5 t-95.5 69.5zM113 639h110q27 16 34 22.5t19.5 27t18.5 59.5h-94q-18 -70 -88 -109zM131 596q59 -43 74 -111h86q-8 72 -55 111h-105zM209 442l2 -106h84v106h-86zM209 788h88l-2 56v51h-84v-53zM211 -8v-51.5t8 -53.5h84l-8 97v8h-84zM211 35h84v108h-84v-108zM211 186h84 v109h-84v-109zM211 938h84v109h-84v-109zM211 1090h84v108h-84v-108zM211 1239h84l4 107h-82l-6 -58v-49zM229 1389h76q21 82 113 94q-145 0 -189 -94zM236 -156q40 -86 198 -86q-88 20 -119 86h-79z" />
<glyph unicode="|" horiz-adv-x="665" d="M41 -131h51v1513h-51v50h584v-50h-52v-1513h52v-49h-584v49zM147 -2h271v92h-271v-92zM147 -37v-94h271v94h-271zM147 127h271v92h-271v-92zM147 256h271v94h-271v-94zM147 387h271v90h-271v-90zM147 514h271v94h-271v-94zM147 643h271v92h-271v-92zM147 772h271v92h-271 v-92zM147 901h271v94h-271v-94zM147 1032h271v90h-271v-90zM147 1159h271v94h-271v-94zM147 1288h271v94h-271v-94z" />
<glyph unicode="}" horiz-adv-x="614" d="M41 -238q104 0 148 52.5t44 173.5v405q0 119 12.5 166t78.5 64q-66 23 -84 120l-7 101v428q0 113 -47 166q-51 47 -145 47v35h184q109 -1 164 -56q63 -63 64 -217v-405q0 -94 26 -135q25 -45 94 -70v-29q-66 -25 -93 -65.5t-27 -141.5v-360q0 -176 -47.5 -244.5 t-190.5 -68.5h-174v34zM141 -242q156 0 199 86h-80q-27 -61 -119 -86zM158 1483q47 -6 72.5 -25.5t39.5 -68.5h76q-39 94 -188 94zM272 -113h84l9 105h-84v-8q0 -66 -9 -97zM276 1346l5 -107h84q0 70 -7 107h-82zM281 35h84v108h-84v-108zM281 186h84v109h-84v-109zM281 336 h84l2 106h-86v-106zM281 788h86l-2 54v53h-84v-107zM281 938h84v109h-84v-109zM281 1090h84v108h-84v-108zM285 485h86q12 66 73 111h-104q-43 -37 -55 -111zM285 748q4 -33 18 -60q12 -29 51 -49h109q-66 37 -88 109h-90z" />
<glyph unicode="~" horiz-adv-x="1708" d="M41 1241q0 248 83 355.5t251 107.5q109 0 200 -15.5t175 -58.5l299 -147q76 -37 144.5 -54.5t135.5 -17.5q92 0 150 33q102 55 102 205h86q0 -236 -65 -338q-76 -119 -263 -119q-96 0 -174 15.5t-170 58.5l-307 143q-156 72 -303 72q-98 0 -166 -37q-109 -61 -108 -203 h-70zM340 1524l80 -2h41t68.5 -10.5t115.5 -34.5h193q-47 23 -88 41t-74 28q-92 29 -150 29q-88 0 -121.5 -10.5t-64.5 -40.5zM707 1452l219 -104h166l-207 104h-178zM977 1323q86 -39 148.5 -60.5t119.5 -21.5l68 2l76 21q-51 0 -116 16t-128 43h-168z" />
<glyph unicode="&#xa1;" horiz-adv-x="550" d="M41 215l4 72l12 57l27 96l57 133l35 82l27 74l26 94l19 111h55l6 -60q4 -47 31 -122q18 -53 70 -179l55 -135l29 -98l12 -61l4 -62q0 -117 -63.5 -186.5t-172.5 -69.5q-102 0 -167.5 70.5t-65.5 183.5zM68 1190q0 86 61 147q59 61 145 62q88 0 148.5 -60.5t60.5 -148.5 q0 -86 -59 -147.5t-150 -61.5q-88 0 -147 63.5t-59 145.5zM88 201l2 -45l16 -43h242l8 73v15h-268zM90 236h264l-14 88h-236l-10 -45zM109 1188l6 -43h207l4 43l-4 45h-207zM113 358h217l-29 91h-158l-16 -43zM125 78q57 -76 137 -76l37 4q10 14 22.5 35.5t18.5 36.5h-215z M127 1110q27 -43 49.5 -57.5t79.5 -20.5q39 33 57 78h-186zM129 1268h184q-16 42 -57 75q-57 -6 -78 -20l-22 -18zM158 483h131l-29 70l-41 80l-26 -66l-27 -63z" />
<glyph unicode="&#xa2;" horiz-adv-x="1347" d="M41 561q0 246 169 412t441 166v213h45v-213q59 0 122 -18.5t140 -51.5l56 -25l49 -6q82 0 162 76h30l23 -463l-31 -4l-26 53l-43 82q-20 43 -50 80q-18 27 -51 66q-63 70 -151 114.5t-174 44.5q-129 0 -199 -140t-70 -394q0 -223 63.5 -379t215.5 -156q158 0 292 95.5 t218 271.5l35 -16q-72 -176 -228 -287q-35 -27 -82 -48.5t-92 -33.5q-104 -31 -209 -31v-229h-45v231q-264 0 -437 172t-173 418zM88 557l2 -45h234v33l2 53h-236zM94 479l8 -51l13 -35h221l-8 35l-2 51h-232zM94 631h234l12 84h-231l-9 -35zM121 748h227l10 47l15 39h-213 l-23 -43zM127 360q16 -47 43 -84h197l-25 84h-215zM180 866h205l16 39l27 45h-178q-45 -45 -70 -84zM190 244l37 -47l41 -39h152q-25 37 -41 86h-189zM289 983h162l43 51l63 60q-152 -18 -268 -111zM309 123l60 -37q39 -25 67 -35l33 -8l47 -14q-39 43 -78 94h-129z M1055 1001q63 -41 106 -118l-8 141l-45 -18z" />
<glyph unicode="&#xa3;" horiz-adv-x="1781" d="M41 0v47h65q84 0 113 6q16 0 26.5 4t12.5 4l31 23q29 23 41 61q10 47 10 131v359h-231v47h231v186q0 137 16 199q4 18 7.5 33.5t15.5 38.5l43 67q150 217 670 217q84 0 160.5 -6t133.5 -16q111 -25 203 -78q68 -39 110 -108.5t42 -139.5q0 -92 -65.5 -159.5t-166.5 -67.5 q-90 0 -153.5 58.5t-63.5 146.5q0 117 115 184q51 31 51 55q0 18 -16 35q-33 20 -100.5 32.5t-104.5 12.5l-90 4q-203 0 -270 -96q-47 -66 -48 -266v-332h560v-47h-560v-588h86q207 0 363 100q201 129 379 365h47v-512h-1663zM330 47h329v66h-280q-8 -23 -23 -37zM387 147 h272v91h-262l-2 -39zM397 272h262v90h-262v-90zM397 397h262v88h-262v-88zM397 520h262v90h-262v-90zM397 645h262v88h-262v-88zM397 768h262v90h-262v-90zM397 893h262v90h-258zM403 1018h256v88h-235l-12 -45zM440 1141h222l4 45l14 45h-172q-39 -39 -68 -90zM551 1266 h145l33 45l49 43l-51 -11l-45 -12q-33 -4 -72 -28zM1188 47h356v80h-215l-96 -53zM1335 1059l4 -41h256l11 72v16h-263zM1352 983q47 -84 118 -84q72 0 113 84h-231zM1360 1141h242l-13 47l-22 43h-103l-16 -10l-23 -15q-14 -8 -32.5 -25.5t-32.5 -39.5zM1378 162h166v149 l-61 -61l-64 -55zM1497 1266h43l-41 34v-12z" />
<glyph unicode="&#xa4;" horiz-adv-x="1112" d="M41 1192l33 33l178 -181q137 119 303 119q172 0 303 -119l180 181l33 -33l-180 -180q113 -137 113 -299q0 -168 -115 -301l182 -185l-33 -30l-182 184q-127 -119 -301 -119q-164 0 -297 115l-178 -182l-31 34l176 179q-121 139 -121 307q0 158 115 297zM195 715 q0 -152 104 -260.5t256 -108.5q145 0 252.5 106.5t107.5 260.5q0 150 -105 258t-255 108q-148 0 -254 -106t-106 -258z" />
<glyph unicode="&#xa5;" horiz-adv-x="2074" d="M41 1329v49h1087v-49h-73q-158 0 -158 -78q0 -35 37 -88l340 -477l176 248q78 109 78 205q0 88 -57.5 139t-155.5 51h-41v49h760v-49q-135 0 -254 -92t-285 -328l-176 -250h276v-147h-303v-147h303v-150h-301q0 -90 47 -131q47 -37 185 -37h65v-47h-1081v47h65 q129 0 180.5 29.5t51.5 138.5h-299v150h301v147h-301v147h203l-371 527q-102 143 -252 143h-47zM264 1329l33 -22l33 -29h372q6 20 37 51h-475zM367 1237l75 -111h320l-39 60q-16 27 -21 51h-335zM473 1083l76 -106h319l-75 106h-320zM561 244h303v-21h271v21h346v88h-920 v-88zM561 541h301v-19h273v19h346v86h-367l-319 4l-234 -4v-86zM580 936l75 -109h318l-76 109h-317zM686 784l78 -110h317l-77 110h-318zM793 47h383q-6 8 -15.5 26.5t-13.5 30.5q-10 31 -10 76h-277q-6 -53 -14 -65q-16 -39 -53 -68zM862 481l2 -106h271v106h-273z M1487 1329q37 -31 57 -69h142l71 69h-270zM1563 1219q14 -45 14 -99l35 51l37 48h-86z" />
<glyph unicode="&#xa7;" horiz-adv-x="1132" d="M41 582q0 82 47 151.5t141 114.5q-188 74 -188 246q0 137 112.5 224t292.5 87q102 0 193 -33q51 -18 92 -40.5t90 -61.5l156 119h22v-330h-26q-88 141 -207 217q-68 45 -151 69.5t-173 24.5q-104 0 -167.5 -33.5t-63.5 -99.5q0 -47 55 -84q45 -23 213 -51l223 -37 q205 -35 281 -88q109 -74 109 -213q0 -94 -46.5 -158.5t-140.5 -101.5q88 -33 137.5 -96.5t49.5 -157.5q0 -133 -106.5 -213t-289.5 -80q-121 0 -212 30.5t-214 118.5l-172 -126h-30v362h30q84 -145 238 -244q170 -109 358 -108q236 0 236 121q0 55 -53 86 q-29 16 -81.5 31.5t-136.5 27.5l-251 37q-367 53 -367 289zM70 582l2 -39h174q-35 14 -62 41q-27 20 -39 67h-67zM70 1092q0 -61 28 -107h531l-209 33l-105 14q-43 6 -73.5 21.5t-55.5 38.5h-116zM74 1135h82q-12 25 -13 59l7 45q6 20 32 59q-47 -25 -73 -69l-17 -35z M82 502q20 -60 90 -107h735q-86 51 -227 72l-234 35h-364zM94 8l99 78h-99v-78zM94 129h80l-33 35l-47 57v-92zM94 692h49q6 51 39 94q-29 -18 -32 -21t-19 -22zM129 944q35 -32 98 -67q59 -23 140 -41h618q-41 68 -160 108h-696zM211 725q0 -51 55 -80q33 -16 105.5 -33.5 t107.5 -23.5l223 -35l60 -10l86 -19q82 31 82 99q0 53 -56 84q-29 16 -86 33.5t-129 27.5l-251 35l-64 10q-45 6 -59 14q-74 -34 -74 -102zM258 356l70 -20q20 -6 46.5 -11.5t55.5 -9.5l207 -28q117 -16 184 -39h195q-6 55 -55 108h-703zM643 799q244 -35 299 -107h78v31 q0 47 -14 76h-363zM846 1251l76 -80v148zM913 207q52 -39 52 -90l-7 -43q-8 -27 -16 -35l25 18q10 10 20 22.5t21.5 35t11.5 92.5h-107zM942 553q61 41 74 98h-53l2 -24l-4 -33z" />
<glyph unicode="&#xa8;" horiz-adv-x="872" d="M41 1448q0 70 47 118t117 48t117 -48t47 -118q0 -72 -47 -119t-117 -47t-117 47t-47 119zM88 1460h168q0 35 -6 58q-8 18 -49 53q-47 -6 -74 -29.5t-39 -81.5zM90 1427q16 -88 111 -104q41 39 53 104h-164zM504 1448q0 70 47 118t117 48q66 0 114.5 -49t48.5 -117 q0 -72 -47 -119t-116 -47q-70 0 -117 47t-47 119zM551 1427q18 -92 113 -104q41 39 53 104h-166zM551 1460h168q0 70 -55 111q-47 -6 -74 -29.5t-39 -81.5z" />
<glyph unicode="&#xa9;" horiz-adv-x="1294" d="M41 614q0 252 177 431.5t429 179.5q254 0 428 -176q178 -178 178 -435q0 -268 -176 -440t-430 -172q-256 0 -431 180t-175 432zM102 614q0 -223 160 -387t385 -164q221 0 383 156t162 395q0 223 -160 386t-385 163q-219 1 -383 -159q-162 -162 -162 -390zM274 604 q0 139 98.5 233.5t258.5 94.5q51 0 74.5 -6t47 -17.5t38.5 -17.5q35 -20 59 -21q45 0 92 45h16l13 -260l-15 -2l-41 76l-20 33l-37 49q-68 92 -184 92q-74 0 -113 -81t-39 -224q0 -61 10.5 -115.5t26.5 -97.5q37 -88 121 -88q90 0 165 54.5t124 152.5l16 -10l-22 -48 l-33 -45l-37 -43l-35 -24q-90 -66 -215 -66q-156 0 -262.5 97.5t-106.5 238.5zM299 580h135l-2 14l2 24h-135v-38zM301 563l8 -41h129l-4 41h-133zM301 635h135l4 39h-133zM311 690h131l11 39h-127zM313 506l17 -37h121l-11 37h-127zM332 745h127l14 43h-115zM338 451 l29 -39h102l-14 39h-117zM371 803h110l25 41h-94l-21 -19zM379 397l22 -22l23 -21h76l-23 43h-98zM434 858h84l49 49q-43 0 -67 -10l-37 -23zM449 342l47 -27l51 -16l-37 43h-61zM844 854l12 -10h47v22q-25 -12 -59 -12zM872 827l35 -47l-4 47h-31z" />
<glyph unicode="&#xaa;" horiz-adv-x="976" d="M41 827v21q43 0 88 40t92 122l254 454h23l288 -518q29 -51 57.5 -74.5t80.5 -23.5h12v-21h-485v21h47q25 0 42 12t17 33l-12 31l-39 75h-256q-6 -12 -6 -34q0 -33 18 -62q12 -23 39 -41q16 -8 76 -14v-21h-336zM111 848h104l-14 31h-49zM166 895h31v14l2 25zM256 1022 h236l-119 215zM385 1260l18 -31h140l-23 39h-131zM399 1284h113l-23 41h-67zM412 1212l22 -41h139l-20 41h-141zM432 1339h49l-24 45zM442 1155l21 -37h143l-24 37h-140zM473 1102l23 -41h141l-23 41h-141zM504 1044l22 -38h142l-23 38h-141zM535 991l20 -43h143l-22 43 h-141zM561 848h195l-17 31h-161q-1 -15 -17 -31zM565 934l4 -6l11 -33h151l-22 39h-144z" />
<glyph unicode="&#xab;" horiz-adv-x="843" d="M41 584l317 307h78l-309 -307l309 -308h-78zM408 584l317 307h78l-309 -307l309 -308h-78z" />
<glyph unicode="&#xac;" horiz-adv-x="1144" d="M41 553v242h1063v-578h-295v336h-768zM74 582h770v-117h137v199h-907v-82zM74 700h907v60h-907v-60zM844 250h137v178h-137v-178z" />
<glyph unicode="&#xad;" d="M41 553v242h903v-242h-903zM74 582h714v86h-714v-86zM74 713h714v51h-714v-51z" />
<glyph unicode="&#xae;" horiz-adv-x="1294" d="M41 614q0 252 177 431.5t429 179.5q254 0 428 -176q178 -178 178 -435q0 -268 -176 -440t-430 -172q-256 0 -431 180t-175 432zM102 614q0 -223 160 -387t385 -164q221 0 383 156t162 395q0 223 -160 386t-385 163q-219 1 -383 -159q-162 -162 -162 -390zM229 307v21h29 l53 2q6 2 11.5 4t12.5 7t12 12t11.5 23.5t6.5 53.5v373q0 61 -19 84q-23 18 -88 18h-29v23h594l51 -2l21 -6l31 -15q96 -37 96 -139q0 -133 -168 -164l107 -203q37 -72 122 -71v-21h-292l-160 293h-51v-170q0 -59 24 -88l29 -10l53 -4l4 -21h-461zM356 328h172l-14 28h-135z M356 905q12 -8 23 -31h131v31h-154zM385 373h127l-2 8v33h-123zM385 860l2 -41h123v41h-125zM389 428h121v39h-121v-39zM389 483h121v41h-121v-41zM389 541h121v39h-121v-39zM389 596h121v39h-121v-39zM389 651h121v39h-121v-39zM389 707h121v38h-121v-38zM389 762h121v43 h-121v-43zM580 621h59q145 0 145 141q0 74 -49 115q-35 29 -104 28h-51v-284zM657 600l119 -4l86 39h-98l-45 -25q-31 -10 -62 -10zM668 580l22 -39h117l-23 39h-116zM698 524l21 -41h117l-21 41h-117zM727 467l23 -39h114l-20 39h-117zM733 905q27 -16 35 -31h115l-19 13 l-47 14zM758 414l22 -41h115l-23 41h-114zM776 651h109l37 39h-123zM780 860l21 -41h127q-8 18 -27 41h-121zM788 356l17 -28h115l-17 28h-115zM803 707h127l10 38h-131zM805 805l4 -43h131l-6 43h-129z" />
<glyph unicode="&#xaf;" d="M41 1321v242h903v-242h-903zM74 1350h714v88h-714v-88zM74 1483h714v49h-714v-49z" />
<glyph unicode="&#xb0;" horiz-adv-x="618" d="M41 1137q0 108 80 186q78 78 188 78q109 0 189 -78t80 -186q0 -109 -78 -186t-191 -77t-190.5 78t-77.5 185zM86 1137q1 -93 64 -156q66 -66 159 -66q88 0 158 66q31 31 48 70t17 86q0 86 -65.5 154.5t-157.5 68.5q-94 0 -158.5 -64.5t-64.5 -158.5z" />
<glyph unicode="&#xb1;" d="M41 18v244h903v-244h-903zM41 647v244h301v334h279v-334h323v-244l-323 -2v-334h-279v336h-301zM74 47h714v88h-714v-88zM74 180h714v49h-714v-49zM74 678h303v-27h153v27h258v88h-714v-88zM74 811h714v47h-258v66h-153v-66h-303v-47zM377 344h153v105h-153v-105z M377 494h153v114h-153v-114zM377 969h153v114h-153v-114zM377 1126h153v68h-153v-68z" />
<glyph unicode="&#xb2;" horiz-adv-x="700" d="M41 768l2 43q0 10 16 37q18 39 50 70l57 45q6 6 30.5 18t53.5 27l35 18l51 27l31 26q39 41 39 152q0 147 -119 147q-88 0 -148.5 -45t-60.5 -110v-21q33 63 102 64q41 0 72 -25q27 -27 27 -67q0 -43 -29 -73t-78 -30q-53 0 -88 39t-35 96q0 39 19 76q55 121 280 121 q141 0 225 -50t84 -132q0 -76 -61 -129q-29 -25 -71 -41.5t-111 -32.5l-27 -6l-72 -15q-37 -6 -61 -18l-25 -8l-32 -21h362q37 0 59 13q18 16 19 57v14h22v-266h-618zM63 788h519v31h-510zM78 834h504v40h-482zM92 1155q0 -18 21 -39h84q8 14 12 39h-117zM92 1171h117 q0 23 -8 41h-92zM113 891h469v37h-428zM125 1229h68l-13 14h-14q-20 0 -41 -14zM135 1102l41 -10l8 10h-49zM319 1020l33 8l35 6l29 6h-62zM367 1380q29 -20 43 -45h106q-26 21 -63 33t-86 12zM373 1057h84l35 18l26 21h-112zM414 1112h118l23 39h-131zM416 1321l10 -41h133 q-6 20 -24 41h-119zM426 1167h135l8 41h-139zM428 1266l2 -41h141l-6 41h-137z" />
<glyph unicode="&#xb3;" horiz-adv-x="731" d="M41 924q0 41 30.5 73.5t75.5 32.5q39 0 72 -29q29 -33 29 -77q0 -37 -17.5 -61.5t-42.5 -28.5q-18 0 -24 -11l4 -8l16 -14q47 -33 144 -33q68 0 92 27q33 39 33 139q0 90 -18.5 120.5t-69.5 30.5l-33 -2l-39 -4l-21 -2q-29 0 -28 25q0 18 39 18h10l41 -6l31 -2 q23 -2 41 8q16 4 28 31l6 39l2 65q0 76 -22.5 99.5t-97.5 23.5q-96 0 -150 -24l-12 -8l-4 -7l6 -4h8q33 0 57 -24q23 -29 23 -64q0 -43 -26.5 -69.5t-73.5 -26.5q-41 0 -69 25.5t-28 70.5q0 74 75 115t204 41q336 0 336 -166q0 -47 -31 -82q-18 -23 -45 -37l-74 -22 q172 -31 172 -160q0 -84 -95 -137.5t-247 -53.5q-133 0 -220 47.5t-87 131.5zM61 907h121l2 25v14h-121l-2 -18v-21zM66 891q6 -16 24 -39h60q18 16 28 39h-112zM70 963h110q-16 43 -51 43q-37 0 -59 -43zM72 1247l4 -22h108l2 20l-2 21h-108zM78 1280h102q-6 12 -12 19.5 t-10 9.5q-25 0 -31 26q-33 -12 -49 -55zM82 1208q23 -37 57 -37q23 0 41 37h-98zM104 838l29 -23l6 23h-35zM434 776q66 6 111 37l6 4l-88 2l-4 -10zM434 1085l4 -6l19 -22h86q-48 28 -109 28zM434 1110q70 0 111 41h-86q-2 -12 -25 -41zM434 1374l23 -39h88q-25 21 -39 27 l-33 10zM461 1321l6 -41h111l-19 41h-98zM463 1040l12 -39h115q-10 27 -27 39h-100zM463 1167h96l19 41h-111zM467 834h100l25 40h-117zM467 1225h115l2 18l-2 23h-115v-41zM477 891h119l8 39h-125zM477 985l2 -39h125l-8 39h-119z" />
<glyph unicode="&#xb4;" horiz-adv-x="526" d="M41 1262l68 372h376l-409 -372h-35zM121 1419l184 166h-153z" />
<glyph unicode="&#xb5;" horiz-adv-x="1710" d="M41 -530h55q119 0 159 34.5t40 157.5v1266q0 117 -27 149q-35 41 -170 41h-55v43h913v-43h-55q-111 0 -143 -16q-53 -35 -53 -174v-656q0 -141 96 -209q72 -51 174 -51q104 0 195.5 44t140.5 126l24 47l25 68q14 43 14 133v375q0 313 -258 313v43h553v-43 q-242 -20 -242 -313v-774q0 -41 50 -41v-33h-160v33q20 0 37 10q18 6 20 31v168q-57 -117 -192 -179.5t-365 -62.5l-115 6v-301q0 -113 27 -145q41 -47 168 -47h55v-41h-911v41zM281 -530h323l-24 36q-6 12 -7 48h-239q-12 -49 -53 -84zM281 1118q45 -33 57 -96h233 q1 39 7 55l26 41h-323zM340 -401h231v110h-229zM342 27v-113h229v113h-229zM342 70h229v114h-229v-114zM342 -131v-115h229v115h-229zM342 229h229v115h-229v-115zM342 389h229v115h-229v-115zM342 547h229v112h-229v-112zM342 705h229v114h-229v-114zM342 864h229v115h-229 v-115zM1270 1118q47 -27 73.5 -59.5t40.5 -73.5q0 76 58 133h-172z" />
<glyph unicode="&#xb6;" horiz-adv-x="946" d="M41 1006q0 37 8 74.5t23 74.5q33 74 86 125q111 98 315 98h432v-43h-98v-1550h-47v1550h-252v-1550h-49v854h-33q-172 0 -278.5 100.5t-106.5 266.5zM92 1006l4 -50h299v107h-299zM102 920l15 -48l28 -47h250v95h-293zM104 1100h291v94h-248l-24 -45zM174 788 q43 -45 97.5 -72.5t123.5 -27.5v100h-221zM178 1231h217v94q-57 0 -118.5 -25.5t-98.5 -68.5z" />
<glyph unicode="&#xb7;" horiz-adv-x="1734" d="M41 938q0 207 182.5 346t456.5 139q313 0 590 -209l243 189h33v-520h-43q-78 123 -164 209q-129 129 -307 206.5t-358 77.5q-164 0 -264.5 -58t-100.5 -157q0 -88 99 -135q23 -10 54.5 -22.5t65.5 -18.5l203 -39l350 -55q72 -12 162 -35q31 -8 74 -19.5t96 -31.5 q135 -45 208 -147.5t73 -241.5q0 -211 -163 -336t-460 -125l-92 4l-70 8l-57 6l-74 21q-59 16 -99 29.5t-76 33t-103 66.5q-47 35 -80 55l-19 12l-268 -200h-49v569h49q43 -74 74 -115l100 -106q51 -53 125 -109q61 -45 141 -92q231 -133 494 -133q178 0 274.5 49t96.5 144 q0 98 -84 135l-54 24l-63 21l-113 24l-112 23l-394 55q-578 80 -577 459zM86 940l4 -47h244l-58 35q-18 16 -43 55h-143zM94 1018h123q-6 23 -10 39t-4 30v19h-80l-12 -33zM96 858l13 -49l20 -39h832l-326 47q-131 18 -207 41h-332zM125 35l164 127h-164v-127zM125 197h168 l-39 30l-45 43l-39 43l-45 58v-174zM141 1141h68l18 61l9 21l26 37q-45 -25 -69 -50q-16 -16 -52 -69zM150 733l45 -51l49 -37h1163q-61 35 -109 49q-35 16 -135 39h-1013zM305 610l33 -14q31 -12 50.5 -18.5t60 -17.5t85 -22.5t84.5 -15.5l21 -2h899l-35 49l-45 41h-1153z M467 1874h55l174 -279l156 279h328l-205 -373h-279zM733 1550h135l64 117h-135zM815 1702h135l68 123h-135zM874 485l103 -14q100 -14 184 -32.5t150 -41.5h268q-4 39 -8 45l-17 43h-680zM1323 1167l49 -47l53 -57v104h-102zM1325 1204h100v82zM1389 362l41 -30 q8 -6 18 -19.5t27 -40.5h98l6 41l2 41v8h-192zM1458 86q23 18 39 32.5t25.5 26t19.5 41.5l21 52h-74l2 -37l-6 -49z" />
<glyph unicode="&#xb8;" horiz-adv-x="409" d="M41 -248q0 59 45 105q47 39 117 39t118 -50.5t48 -117.5q0 -92 -66.5 -154.5t-236.5 -85.5v41q131 18 131 63q0 20 -37 31q-119 27 -119 129zM88 -244l182 -4q-12 92 -90 92q-35 0 -65 -24q-27 -27 -27 -64zM96 -283q6 -16 26.5 -30.5t59.5 -26.5t62 -53q31 53 30 110 h-178z" />
<glyph unicode="&#xb9;" horiz-adv-x="571" d="M41 1268v20h27l73 2q10 0 19 2q31 10 47 15q57 18 98 39.5t70 54.5h22v-531q0 -63 21 -82q18 -23 84 -22h28v-21h-485v21h31q59 0 74 14q14 8 22 32t8 58v322q0 43 -12 59q-16 16 -59 17h-68zM170 1274l16 -14h142v40h-68zM172 766h174q-4 4 -9 15.5t-7 17.5h-135 q-4 -8 -8.5 -15.5t-14.5 -17.5zM197 1245l6 -41h125v41h-131zM201 813h127v41h-123zM205 868h123v39h-123v-39zM205 924h123v39h-123v-39zM205 979h123v41h-123v-41zM205 1036h123v39h-123v-39zM205 1092h123v38h-123v-38zM205 1147h123v41h-123v-41zM295 1317h33v16z" />
<glyph unicode="&#xba;" horiz-adv-x="915" d="M41 1118q0 156 133 252q109 78 268 78q195 0 314 -94t118 -244q0 -166 -129 -256q-49 -35 -117.5 -51.5t-154.5 -16.5q-193 0 -312.5 95.5t-119.5 236.5zM68 1096h143v39h-143v-39zM70 1079l8 -39h139l-4 39h-143zM70 1151h141l6 41h-141zM80 1208h141q0 14 10 39h-133z M82 1024l18 -39h131l-10 39h-139zM106 1264h130l18 41h-119zM111 967l28 -39h115l-18 39h-125zM150 1319h114l27 41h-96zM154 913l49 -41h86l-27 41h-108zM219 1374h84l43 47q-53 -6 -70 -14zM227 858l52 -20q12 -4 30.5 -11.5t30.5 -9.5l-39 41h-74zM295 1118 q0 -113 37 -211t131 -98q74 0 119 77t45 220v10q0 141 -43 225t-119 84q-47 0 -68 -16q-45 -31 -71 -111q-31 -80 -31 -180zM549 809q59 6 115 49h-72q-12 -24 -43 -49zM551 1421l37 -47h67l-45 29zM596 1360l20 -41h101l-41 41h-80zM602 872h80l39 41h-100zM623 1305 l10 -41h121l-25 41h-106zM627 928h106l25 39h-121zM637 1247l8 -39h133l-16 39h-125zM641 985h125l14 39h-133zM647 1192l2 -41h142l-9 41h-135zM649 1040h135l7 39h-140zM651 1096h142v39h-142v-39z" />
<glyph unicode="&#xbb;" horiz-adv-x="843" d="M41 276l309 308l-309 307h78l317 -307l-317 -308h-78zM408 276l309 308l-309 307h77l318 -307l-318 -308h-77z" />
<glyph unicode="&#xbc;" horiz-adv-x="1316" d="M41 0v31l747 1034h-122q-193 0 -316 -92q-61 -47 -117 -113l-55 -72l-47 -83h-37v401h1182v-33l-748 -1036h80q184 0 336 117l70 59l71 72q49 49 74 82l62 86h30v-453h-1210zM92 37h273l36 55h-272zM131 879l35 57l47 51h-82v-108zM131 1014h113l32 26l43 25h-188v-51z M152 119h270l51 71h-270zM221 217h273l51 74h-273zM293 317h272l53 74h-272zM342 1552h53l166 -262l150 262h313l-197 -352h-266zM365 418h272l51 74h-272zM438 518h271l51 70h-271zM508 616h272l51 72h-270zM582 717h272l51 71h-270zM596 1247h131l59 109h-129zM651 817 h273l53 70h-272zM676 1389h129l65 116h-131zM725 915h270l54 72h-273zM797 1014h272l37 51h-270zM842 37h307v72h-195l-55 -37zM991 135h158v154l-31 -31l-53 -55z" />
<glyph unicode="&#xbd;" horiz-adv-x="782" d="M41 1270l82 483l270 -98l-225 -385h-127zM70 1294h39l104 176h-113zM106 1497h121l74 125l-162 66zM385 1270l82 483l274 -98l-225 -385h-131zM418 1294h37l104 176h-110zM455 1497h118l74 125l-160 66z" />
<glyph unicode="&#xbe;" horiz-adv-x="1239" d="M41 1268v20h27l73 2q12 0 28.5 5t37.5 12q59 18 99 39.5t69 54.5h22v-531q0 -63 21 -82q18 -23 84 -22h28v-21h-485v21h31q59 0 74 14q14 8 22 32t8 58v322q0 43 -12 59q-16 16 -59 17h-68zM150 14l909 1370h49l-911 -1370h-47zM170 1274l16 -14h142v40h-68zM172 766h174 q-4 4 -9 15.5t-7 17.5h-135q-4 -8 -8.5 -15.5t-14.5 -17.5zM197 1245l6 -41h125v41h-131zM201 813h127v41h-123zM205 868h123v39h-123v-39zM205 924h123v39h-123v-39zM205 979h123v41h-123v-41zM205 1036h123v39h-123v-39zM205 1092h123v38h-123v-38zM205 1147h123v41h-123 v-41zM295 1317h33v16zM514 154v39l524 456h17v-456h143v-39h-143v-29q0 -63 22 -86l29 -12l53 -7h39v-20h-496v20h31l53 3q12 0 32 16t20 86v29h-324zM551 193h287v253zM829 20h172q-12 12 -14 31h-135q-8 -20 -23 -31zM856 68h127v38h-121zM862 121h121v43h-121v-43z M862 178h121v39h-121v-39zM862 233h121v39h-121v-39zM862 289h121v41h-121v-41zM862 346h121v39h-121v-39zM862 401h121v39h-121v-39zM862 457h121v43h-86l-35 -33v-10zM913 512h70v61z" />
<glyph unicode="&#xbf;" horiz-adv-x="1091" d="M41 387q0 207 182 334q59 43 115 61q18 6 45 11q72 12 117 18l35 6l34 8q18 12 19 52v26h47v-467h-60q-109 0 -172 -51t-63 -139q0 -102 79 -171t195 -69q129 0 224 57q33 20 63.5 56.5t30.5 62.5q0 18 -17 19l-18 -6l-25 -9l-32 -10h-25q-74 0 -118 51.5t-44 130.5 q0 82 53.5 136.5t131.5 54.5q86 0 149.5 -69.5t63.5 -160.5q0 -152 -132.5 -256t-328.5 -104q-233 0 -391 122t-158 306zM84 365h117q16 47 59 90h-170l-4 -27l-2 -37v-26zM88 332l10 -47l19 -45h80l-4 59l2 33h-107zM98 487h209q14 6 40 17.5t42 15.5l88 8h15v52h-349 l-24 -43zM135 207q25 -39 52.5 -67.5t72.5 -57.5l-24 37l-29 88h-72zM174 612h318v156q-100 0 -191 -53q-39 -25 -127 -103zM406 1194q0 86 61 147q59 61 145 62q88 0 148.5 -60.5t60.5 -148.5q0 -86 -59.5 -147.5t-149.5 -61.5q-88 0 -147 63.5t-59 145.5zM451 1198l4 -45 h211l2 39l-6 51h-205zM467 1118q14 -37 49 -59q12 -8 32.5 -15.5t49.5 -11.5q41 33 59 86h-190zM471 1278h178q-12 29 -22.5 44.5t-28.5 31.5q-53 -6 -74.5 -18.5t-52.5 -57.5zM698 369l4 -43h211l2 34l-6 54h-204zM715 291q18 -39 45 -60q12 -6 82 -22l41 39q6 6 22 43 h-190zM719 449h178q-13 24 -27 38l-24 27q-47 0 -80 -16q-20 -6 -47 -49z" />
<glyph unicode="&#xc0;" horiz-adv-x="2070" d="M41 0v47q115 0 206 87t193 269l568 1014h49l641 -1153q16 -31 35 -61q12 -20 24 -36.5t28.5 -34t37.5 -34.5q59 -51 178 -51h29v-47h-1078v47h105q55 0 93 25.5t38 70.5q0 27 -25 74l-90 166h-567q-14 -41 -14 -76q0 -72 37.5 -138.5t99.5 -92.5l43 -19q23 -8 55 -8 l59 -2v-47h-745zM195 47h233l-31 68h-110l-51 -43zM322 147h67l-2 31l6 60l-37 -50l-14 -18zM520 430h522l-262 481zM668 1837h376l68 -373h-35zM793 1788l184 -166l-29 166h-155zM807 961l39 -68h311l-49 90h-291zM838 1018h249l-49 88h-149zM864 858l49 -88h314l-49 88 h-314zM909 1141h111l-55 98zM932 733l49 -88h315l-51 88h-313zM1001 610l50 -90h315l-51 90h-314zM1069 485l49 -88h316l-50 88h-315zM1137 362l49 -90h317l-49 90h-317zM1198 47h430l-37 68h-356q-6 -37 -37 -68zM1206 238l8 -17q18 -37 25 -74h334l-49 91h-318z" />
<glyph unicode="&#xc1;" horiz-adv-x="2070" d="M41 0v47q115 0 206 87t193 269l568 1014h49l641 -1153q16 -31 35 -61q12 -20 24 -36.5t28.5 -34t37.5 -34.5q59 -51 178 -51h29v-47h-1078v47h105q55 0 93 25.5t38 70.5q0 27 -25 74l-90 166h-567q-14 -41 -14 -76q0 -72 37.5 -138.5t99.5 -92.5l43 -19q23 -8 55 -8 l59 -2v-47h-745zM195 47h233l-31 68h-110l-51 -43zM322 147h67l-2 31l6 60l-37 -50l-14 -18zM520 430h522l-262 481zM807 961l39 -68h311l-49 90h-291zM838 1018h249l-49 88h-149zM864 858l49 -88h314l-49 88h-314zM909 1141h111l-55 98zM932 733l49 -88h315l-51 88h-313z M956 1462l68 373h377l-410 -373h-35zM1001 610l50 -90h315l-51 90h-314zM1036 1620l185 166h-154zM1069 485l49 -88h316l-50 88h-315zM1137 362l49 -90h317l-49 90h-317zM1198 47h430l-37 68h-356q-6 -37 -37 -68zM1206 238l8 -17q18 -37 25 -74h334l-49 91h-318z" />
<glyph unicode="&#xc2;" horiz-adv-x="2070" d="M41 0v47q115 0 206 87t193 269l568 1014h49l641 -1153q16 -31 35 -61q12 -20 24 -36.5t28.5 -34t37.5 -34.5q59 -51 178 -51h29v-47h-1078v47h105q55 0 93 25.5t38 70.5q0 27 -25 74l-90 166h-567q-14 -41 -14 -76q0 -72 37.5 -138.5t99.5 -92.5l43 -19q23 -8 55 -8 l59 -2v-47h-745zM195 47h233l-31 68h-110l-51 -43zM322 147h67l-2 31l6 60l-37 -50l-14 -18zM520 430h522l-262 481zM672 1464l229 373h279l204 -373h-327l-156 277l-174 -277h-55zM807 961l39 -68h311l-49 90h-291zM838 1018h249l-49 88h-149zM864 858l49 -88h314l-49 88 h-314zM909 1141h111l-55 98zM932 733l49 -88h315l-51 88h-313zM938 1788l63 -117h136l-64 117h-135zM1001 610l50 -90h315l-51 90h-314zM1020 1636l67 -123h136l-68 123h-135zM1069 485l49 -88h316l-50 88h-315zM1137 362l49 -90h317l-49 90h-317zM1198 47h430l-37 68h-356 q-6 -37 -37 -68zM1206 238l8 -17q18 -37 25 -74h334l-49 91h-318z" />
<glyph unicode="&#xc3;" horiz-adv-x="2070" d="M41 0v47q115 0 206 87t193 269l568 1014h49l641 -1153q16 -31 35 -61q12 -20 24 -36.5t28.5 -34t37.5 -34.5q59 -51 178 -51h29v-47h-1078v47h105q55 0 93 25.5t38 70.5q0 27 -25 74l-90 166h-567q-14 -41 -14 -76q0 -72 37.5 -138.5t99.5 -92.5l43 -19q23 -8 55 -8 l59 -2v-47h-745zM195 47h233l-31 68h-110l-51 -43zM322 147h67l-2 31l6 60l-37 -50l-14 -18zM518 1526q86 156 169 225.5t183 69.5q111 0 258 -80q131 -70 193.5 -93.5t103.5 -23.5q96 0 166 137l19 35l39 -16q-131 -303 -344 -303q-121 0 -248 69l-146 82q-74 33 -157 33 q-61 0 -101.5 -27.5t-99.5 -130.5zM520 430h522l-262 481zM713 1704h18l33 2q94 0 194 -51h138q-70 41 -129 61t-129 21l-60 -6zM807 961l39 -68h311l-49 90h-291zM838 1018h249l-49 88h-149zM864 858l49 -88h314l-49 88h-314zM909 1141h111l-55 98zM932 733l49 -88h315 l-51 88h-313zM1001 610l50 -90h315l-51 90h-314zM1020 1622l113 -61q35 -18 79.5 -27.5t94.5 -9.5l51 4l47 20l-23 -2q-33 0 -92 17l-59 18q-25 12 -35 16q-20 10 -41 25h-135zM1069 485l49 -88h316l-50 88h-315zM1137 362l49 -90h317l-49 90h-317zM1198 47h430l-37 68h-356 q-6 -37 -37 -68zM1206 238l8 -17q18 -37 25 -74h334l-49 91h-318z" />
<glyph unicode="&#xc4;" horiz-adv-x="2070" d="M41 0v47q115 0 206 87t193 269l568 1014h49l641 -1153q16 -31 35 -61q12 -20 24 -36.5t28.5 -34t37.5 -34.5q59 -51 178 -51h29v-47h-1078v47h105q55 0 93 25.5t38 70.5q0 27 -25 74l-90 166h-567q-14 -41 -14 -76q0 -72 37.5 -138.5t99.5 -92.5l43 -19q23 -8 55 -8 l59 -2v-47h-745zM195 47h233l-31 68h-110l-51 -43zM322 147h67l-2 31l6 60l-37 -50l-14 -18zM520 430h522l-262 481zM633 1630q0 70 47 117t117 47t117 -47t47 -117q-1 -72 -48 -119q-43 -47 -116 -47q-70 0 -117 47q-23 25 -35 53.5t-12 65.5zM680 1642h168q0 35 -6 58 q-8 18 -49 53q-47 -6 -74 -29.5t-39 -81.5zM682 1610q16 -88 111 -105q41 39 53 105h-164zM807 961l39 -68h311l-49 90h-291zM838 1018h249l-49 88h-149zM864 858l49 -88h314l-49 88h-314zM909 1141h111l-55 98zM932 733l49 -88h315l-51 88h-313zM1001 610l50 -90h315 l-51 90h-314zM1069 485l49 -88h316l-50 88h-315zM1096 1630q0 70 47 117t117 47q68 0 115.5 -47t47.5 -117q0 -72 -47 -119q-43 -47 -116 -47q-70 0 -117 47q-23 25 -35 53.5t-12 65.5zM1137 362l49 -90h317l-49 90h-317zM1143 1610q18 -92 112 -105q41 39 54 105h-166z M1143 1642h168q-1 70 -56 111q-47 -6 -73.5 -29.5t-38.5 -81.5zM1198 47h430l-37 68h-356q-6 -37 -37 -68zM1206 238l8 -17q18 -37 25 -74h334l-49 91h-318z" />
<glyph unicode="&#xc5;" horiz-adv-x="2070" d="M41 0v47q115 0 206 87t193 269l568 1014h49l641 -1153q16 -31 35 -61q12 -20 24 -36.5t28.5 -34t37.5 -34.5q59 -51 178 -51h29v-47h-1078v47h105q55 0 93 25.5t38 70.5q0 27 -25 74l-90 166h-567q-14 -41 -14 -76q0 -72 37.5 -138.5t99.5 -92.5l43 -19q23 -8 55 -8 l59 -2v-47h-745zM195 47h233l-31 68h-110l-51 -43zM322 147h67l-2 31l6 60l-37 -50l-14 -18zM520 430h522l-262 481zM807 961l39 -68h311l-49 90h-291zM836 1673q0 78 57 138.5t141 60.5q82 0 139.5 -57.5t57.5 -141.5q0 -86 -55 -141q-57 -57 -142 -57q-80 0 -139 55 t-59 143zM838 1018h249l-49 88h-149zM864 858l49 -88h314l-49 88h-314zM897 1673q0 -55 41 -96t96 -41q57 0 96 39t39 98q1 60 -36 99q-37 41 -99 40q-53 0 -95 -40.5t-42 -98.5zM909 1141h111l-55 98zM932 733l49 -88h315l-51 88h-313zM1001 610l50 -90h315l-51 90h-314z M1069 485l49 -88h316l-50 88h-315zM1137 362l49 -90h317l-49 90h-317zM1198 47h430l-37 68h-356q-6 -37 -37 -68zM1206 238l8 -17q18 -37 25 -74h334l-49 91h-318z" />
<glyph unicode="&#xc6;" horiz-adv-x="2766" d="M41 0v47q37 0 57.5 7t55.5 32l59 43l66 59q143 143 309 340l649 777q-49 25 -168 24h-65v49h1703v-501h-45q-74 100 -153 182q-41 41 -80 76.5t-86 72.5q-80 66 -154.5 93.5t-189.5 27.5h-213v-581h53q119 0 203 53q94 61 172 188h51v-532h-51l-31 47l-33 43l-36 37 q-10 10 -33 27.5t-45 31.5q-92 55 -197 55h-53v-651h223l41 8q33 6 68 13q53 12 94 30q63 27 162 101q178 135 307 305l45 2v-506h-1722v47h65q84 0 121 6t63.5 28.5t38.5 63.5q10 47 11 131v121h-756q-27 -49 -37 -81.5t-10 -71.5q0 -197 235 -197h56v-47h-750zM180 47h226 l-17 51h-137zM291 133h94v29l6 76l-26 -29l-60 -62zM582 446h721v656q0 127 -29 172zM1280 47h350v66h-299l-22 -37zM1280 1329q31 -25 51 -63h299v63h-350zM1341 147h289v91h-280v-60zM1341 1233l7 -47l2 -45h280v92h-289zM1352 272h278v90h-278v-90zM1352 397h278v88h-278 v-88zM1352 520h278v90h-278v-90zM1352 645h278v88h-278v-88zM1352 768h278v90h-278v-90zM1352 893h278v90h-278v-90zM1352 1018h278v88h-278v-88zM2007 707l66 -39q41 -25 79 -68v107h-145zM2017 739h135v105l-38 -39l-41 -33zM2206 47h377v80h-230l-55 -37zM2238 1329 l62 -35l57 -43h207v78h-326zM2400 162h183v166l-68 -72l-68 -57zM2402 1217l56 -48l49 -51l57 -59v158h-162z" />
<glyph unicode="&#xc7;" horiz-adv-x="1662" d="M41 696q0 317 221 522t569 205q90 0 181 -24q70 -18 176 -66l74 -33l59 -8q106 0 203 97h37l26 -574l-33 -8q-27 55 -41 84q-27 53 -47 88q-57 100 -129.5 184t-189.5 144q-49 23 -107 39q-27 8 -53 12t-59 4q-158 0 -248 -176q-45 -90 -67.5 -212t-22.5 -288 q0 -139 18 -256q8 -53 23.5 -109.5t36.5 -107.5q80 -197 274 -197q197 0 367 123q84 59 152.5 142.5t121.5 193.5l39 -20q-27 -63 -53 -103l-74 -102q-33 -45 -75 -85t-83 -69q-197 -141 -477 -141q-348 0 -583.5 211t-235.5 530zM94 692l2 -47h299l-2 29l2 59h-299zM98 770 h299l13 88h-297zM100 610l9 -59l8 -31h286l-8 90h-295zM123 893h293l20 90h-282l-17 -43zM127 485l16 -45l21 -43h266l-10 43l-10 45h-283zM170 1018h279l14 45l20 43h-258l-32 -51zM182 362l33 -55l29 -35h231l-35 90h-258zM254 1141h246l55 90h-209l-51 -45zM272 238 l47 -48l56 -43h166l-25 41l-27 50h-217zM395 1266h189l49 51l59 55l-80 -10l-43 -12l-63 -25l-49 -25zM426 115q98 -61 219 -90l-47 47l-33 43h-139zM688 -248q0 63 46 103.5t116 40.5q72 0 119 -48.5t47 -119.5q0 -90 -67.5 -155t-235.5 -83v39q131 18 131 63q0 20 -37 31 q-119 25 -119 129zM735 -244l183 -4q-13 92 -91 92q-35 0 -65 -24q-27 -27 -27 -64zM743 -285q6 -14 27 -28q6 -4 25.5 -13.5t47 -18.5t48.5 -48q31 49 31 108h-179zM1305 1255l28 -24h105l-2 51q-14 -6 -27.5 -11t-30.5 -11zM1368 1196l47 -63l31 -43l-6 106h-72z" />
<glyph unicode="&#xc8;" horiz-adv-x="1802" d="M41 0v47h65q84 0 113 6q16 0 26.5 4t12.5 4l31 21q29 23 41 63q10 47 10 131v824q0 88 -9 129t-38 61q-25 23 -68 31l-119 8h-65v49h1702v-499h-43q-143 193 -320 329q-84 66 -157.5 93.5t-186.5 27.5h-215v-581h53q119 0 208 54t169 187h49v-532h-49l-28 47l-33 41 l-57 53q-16 16 -27.5 24.5t-34.5 20.5q-92 55 -197 55h-53v-651h211l55 8q51 6 82 15.5t80 27.5q72 31 162 101q172 131 305 307h45v-506h-1720zM324 47h342v68h-291l-23 -39zM324 1329q31 -25 51 -63h291v63h-342zM385 147h281v91h-273v-60zM385 1231l6 -45l2 -45h273v90 h-281zM393 272h273v90h-273v-90zM393 397h273v88h-273v-88zM393 520h273v90h-273v-90zM393 645h273v88h-273v-88zM393 770h273v88h-273v-88zM393 893h273v90h-273v-90zM393 1018h273v88h-273v-88zM537 1837h376l68 -373h-35zM662 1788l184 -166l-29 166h-155zM1044 707 l64 -39l49 -37l33 -31v107h-146zM1055 739h135v105q-37 -39 -82 -70zM1241 47h379v82h-229l-58 -39zM1274 1329l61 -35l60 -43h207v78h-328zM1438 162h182v166q-23 -25 -61.5 -61t-75.5 -68zM1440 1217l55 -50q25 -20 53 -51q23 -23 54 -57v158h-162z" />
<glyph unicode="&#xc9;" horiz-adv-x="1802" d="M41 0v47h65q84 0 113 6q16 0 26.5 4t12.5 4l31 21q29 23 41 63q10 47 10 131v824q0 88 -9 129t-38 61q-25 23 -68 31l-119 8h-65v49h1702v-499h-43q-143 193 -320 329q-84 66 -157.5 93.5t-186.5 27.5h-215v-581h53q119 0 208 54t169 187h49v-532h-49l-28 47l-33 41 l-57 53q-16 16 -27.5 24.5t-34.5 20.5q-92 55 -197 55h-53v-651h211l55 8q51 6 82 15.5t80 27.5q72 31 162 101q172 131 305 307h45v-506h-1720zM324 47h342v68h-291l-23 -39zM324 1329q31 -25 51 -63h291v63h-342zM385 147h281v91h-273v-60zM385 1231l6 -45l2 -45h273v90 h-281zM393 272h273v90h-273v-90zM393 397h273v88h-273v-88zM393 520h273v90h-273v-90zM393 645h273v88h-273v-88zM393 770h273v88h-273v-88zM393 893h273v90h-273v-90zM393 1018h273v88h-273v-88zM813 1464l68 373h376l-409 -373h-35zM893 1622l184 166h-153zM1044 707 l64 -39l49 -37l33 -31v107h-146zM1055 739h135v105q-37 -39 -82 -70zM1241 47h379v82h-229l-58 -39zM1274 1329l61 -35l60 -43h207v78h-328zM1438 162h182v166q-23 -25 -61.5 -61t-75.5 -68zM1440 1217l55 -50q25 -20 53 -51q23 -23 54 -57v158h-162z" />
<glyph unicode="&#xca;" horiz-adv-x="1802" d="M41 0v47h65q84 0 113 6q16 0 26.5 4t12.5 4l31 21q29 23 41 63q10 47 10 131v824q0 88 -9 129t-38 61q-25 23 -68 31l-119 8h-65v49h1702v-499h-43q-143 193 -320 329q-84 66 -157.5 93.5t-186.5 27.5h-215v-581h53q119 0 208 54t169 187h49v-532h-49l-28 47l-33 41 l-57 53q-16 16 -27.5 24.5t-34.5 20.5q-92 55 -197 55h-53v-651h211l55 8q51 6 82 15.5t80 27.5q72 31 162 101q172 131 305 307h45v-506h-1720zM324 47h342v68h-291l-23 -39zM324 1329q31 -25 51 -63h291v63h-342zM385 147h281v91h-273v-60zM385 1231l6 -45l2 -45h273v90 h-281zM393 272h273v90h-273v-90zM393 397h273v88h-273v-88zM393 520h273v90h-273v-90zM393 645h273v88h-273v-88zM393 770h273v88h-273v-88zM393 893h273v90h-273v-90zM393 1018h273v88h-273v-88zM575 1462l230 373h278l205 -373h-327l-156 277l-174 -277h-56zM842 1786 l63 -117h135l-63 117h-135zM924 1634l67 -123h135l-67 123h-135zM1044 707l64 -39l49 -37l33 -31v107h-146zM1055 739h135v105q-37 -39 -82 -70zM1241 47h379v82h-229l-58 -39zM1274 1329l61 -35l60 -43h207v78h-328zM1438 162h182v166q-23 -25 -61.5 -61t-75.5 -68z M1440 1217l55 -50q25 -20 53 -51q23 -23 54 -57v158h-162z" />
<glyph unicode="&#xcb;" horiz-adv-x="1802" d="M41 0v47h65q84 0 113 6q16 0 26.5 4t12.5 4l31 21q29 23 41 63q10 47 10 131v824q0 88 -9 129t-38 61q-25 23 -68 31l-119 8h-65v49h1702v-499h-43q-143 193 -320 329q-84 66 -157.5 93.5t-186.5 27.5h-215v-581h53q119 0 208 54t169 187h49v-532h-49l-28 47l-33 41 l-57 53q-16 16 -27.5 24.5t-34.5 20.5q-92 55 -197 55h-53v-651h211l55 8q51 6 82 15.5t80 27.5q72 31 162 101q172 131 305 307h45v-506h-1720zM324 47h342v68h-291l-23 -39zM324 1329q31 -25 51 -63h291v63h-342zM385 147h281v91h-273v-60zM385 1231l6 -45l2 -45h273v90 h-281zM393 272h273v90h-273v-90zM393 397h273v88h-273v-88zM393 520h273v90h-273v-90zM393 645h273v88h-273v-88zM393 770h273v88h-273v-88zM393 893h273v90h-273v-90zM393 1018h273v88h-273v-88zM563 1630q0 70 47 117t117 47t117 -47t47 -117q0 -68 -47 -119 q-47 -47 -117 -47t-117 47q-23 25 -35 53.5t-12 65.5zM610 1642h168q0 35 -6 58q-8 18 -49 53q-47 -6 -73.5 -29.5t-39.5 -81.5zM612 1610q16 -88 111 -105q41 39 53 105h-164zM1026 1630q0 70 47 117t117 47q63 0 113.5 -48t50.5 -116t-47 -119q-47 -47 -117 -47t-117 47 q-23 25 -35 53.5t-12 65.5zM1044 707l64 -39l49 -37l33 -31v107h-146zM1055 739h135v105q-37 -39 -82 -70zM1073 1610q18 -92 113 -105q41 39 53 105h-166zM1073 1642h168q0 70 -55 111q-47 -6 -74 -29.5t-39 -81.5zM1241 47h379v82h-229l-58 -39zM1274 1329l61 -35l60 -43 h207v78h-328zM1438 162h182v166q-23 -25 -61.5 -61t-75.5 -68zM1440 1217l55 -50q25 -20 53 -51q23 -23 54 -57v158h-162z" />
<glyph unicode="&#xcc;" horiz-adv-x="1161" d="M41 0v47h65q84 0 113 6q16 0 26.5 4t12.5 4l31 21q29 23 41 63q10 47 10 131v824q0 88 -9 129t-38 61q-25 23 -68 31l-119 8h-65v49h1079v-49h-65q-82 0 -118 -6t-65 -29q-25 -14 -41 -65l-8 -51l-2 -78v-824q0 -84 9.5 -122.5t38 -63t65.5 -35.5l121 -8h65v-47h-1079z M213 1837h377l67 -373h-34zM324 47h383q-20 31 -35 68h-297l-23 -39zM324 1329q31 -25 51 -63h297l12 32l23 31h-383zM338 1788l184 -166l-28 166h-156zM385 147h283l-2 17v74h-273v-60zM385 1231l6 -45l2 -45h273v76l2 14h-283zM395 272h271v90h-271v-90zM395 397h271v88 h-271v-88zM395 520h271v90h-271v-90zM395 645h271v88h-271v-88zM395 770h271v88h-271v-88zM395 893h271v90h-271v-90zM395 1018h271v88h-271v-88z" />
<glyph unicode="&#xcd;" horiz-adv-x="1161" d="M41 0v47h65q84 0 113 6q16 0 26.5 4t12.5 4l31 21q29 23 41 63q10 47 10 131v824q0 88 -9 129t-38 61q-25 23 -68 31l-119 8h-65v49h1079v-49h-65q-82 0 -118 -6t-65 -29q-25 -14 -41 -65l-8 -51l-2 -78v-824q0 -84 9.5 -122.5t38 -63t65.5 -35.5l121 -8h65v-47h-1079z M324 47h383q-20 31 -35 68h-297l-23 -39zM324 1329q31 -25 51 -63h297l12 32l23 31h-383zM385 147h283l-2 17v74h-273v-60zM385 1231l6 -45l2 -45h273v76l2 14h-283zM395 272h271v90h-271v-90zM395 397h271v88h-271v-88zM395 520h271v90h-271v-90zM395 645h271v88h-271v-88z M395 770h271v88h-271v-88zM395 893h271v90h-271v-90zM395 1018h271v88h-271v-88zM504 1464l67 373h377l-409 -373h-35zM584 1622l184 166h-154z" />
<glyph unicode="&#xce;" horiz-adv-x="1161" d="M41 0v47h65q84 0 113 6q16 0 26.5 4t12.5 4l31 21q29 23 41 63q10 47 10 131v824q0 88 -9 129t-38 61q-25 23 -68 31l-119 8h-65v49h1079v-49h-65q-82 0 -118 -6t-65 -29q-29 -16 -41 -65q-2 -6 -5 -23.5t-3 -27.5l-2 -78v-824q0 -84 9.5 -122.5t38 -63t65.5 -35.5 l121 -8h65v-47h-1079zM209 1464l229 373h279l205 -373h-328l-156 277l-174 -277h-55zM324 47h383q-20 31 -35 68h-297l-23 -39zM324 1329q31 -25 51 -63h297l12 32l23 31h-383zM385 147h283l-2 17v74h-273v-60zM385 1231l6 -45l2 -45h273v76l2 14h-283zM395 272h271v90h-271 v-90zM395 397h271v88h-271v-88zM395 520h271v90h-271v-90zM395 645h271v88h-271v-88zM395 770h271v88h-271v-88zM395 893h271v90h-271v-90zM395 1018h271v88h-271v-88zM475 1788l64 -117h135l-64 117h-135zM557 1636l68 -123h135l-68 123h-135z" />
<glyph unicode="&#xcf;" horiz-adv-x="1161" d="M41 0v47h65q84 0 113 6q16 0 26.5 4t12.5 4l31 21q29 23 41 63q10 47 10 131v824q0 88 -9 129t-38 61q-25 23 -68 31l-119 8h-65v49h1079v-49h-65q-82 0 -118 -6t-65 -29q-29 -16 -41 -65q-2 -6 -5 -23.5t-3 -27.5l-2 -78v-824q0 -84 9.5 -122.5t38 -63t65.5 -35.5 l121 -8h65v-47h-1079zM178 1630q0 70 47 117t117 47t117 -47t47 -117q0 -68 -47 -119q-47 -47 -117 -47t-117 47q-23 25 -35 53.5t-12 65.5zM225 1642h168q0 35 -6 58q-8 18 -49 53q-47 -6 -73.5 -29.5t-39.5 -81.5zM227 1610q16 -88 111 -105q41 39 53 105h-164zM324 47 h383q-20 31 -35 68h-297l-23 -39zM324 1329q31 -25 51 -63h297l12 32l23 31h-383zM385 147h283l-2 17v74h-273v-60zM385 1231l6 -45l2 -45h273v76l2 14h-283zM395 272h271v90h-271v-90zM395 397h271v88h-271v-88zM395 520h271v90h-271v-90zM395 645h271v88h-271v-88z M395 770h271v88h-271v-88zM395 893h271v90h-271v-90zM395 1018h271v88h-271v-88zM641 1630q0 70 47 117t117 47q63 0 113.5 -48t50.5 -116t-47 -119q-47 -47 -117 -47t-117 47q-23 25 -35 53.5t-12 65.5zM688 1610q18 -92 113 -105q41 39 53 105h-166zM688 1642h168 q0 70 -55 111q-47 -6 -74 -29.5t-39 -81.5z" />
<glyph unicode="&#xd0;" horiz-adv-x="2013" d="M41 0v47h65q141 0 187.5 40t46.5 189v328h-260v187h260v358q0 96 -33 129q-51 51 -201 51h-65v49h1149l80 -4l47 -2l86 -16q262 -47 420 -244q150 -186 149 -430q0 -211 -127 -393q-133 -197 -352 -250l-100 -16l-113 -13l-90 -8l-125 -2h-1024zM117 645h278l271 -4 l243 4v103h-243l-271 8l-278 -8v-103zM324 45l342 2v74h-289q-10 -33 -53 -76zM324 1329q27 -20 47 -53h295v53h-342zM387 1231l8 -115h271v115h-279zM389 166h277v113h-271q0 -76 -6 -113zM395 324h271v114h-271v-114zM395 481h271v115h-271v-115zM395 801h271v112h-271 v-112zM395 956h271v115h-271v-115zM821 45h178l113 8q174 0 254 185q37 82 53.5 194.5t16.5 259.5q0 244 -37 383q-55 211 -209 242q-33 8 -80 10t-127 2h-162v-538h242v-187h-242v-559zM1255 45q117 20 218 76h-119q-33 -39 -99 -76zM1255 1329q47 -23 82 -53h119l-35 18 l-59 19q-47 10 -107 16zM1376 1231q37 -47 62 -115h192l-57 64l-49 51h-148zM1391 166h149q68 51 113 113h-209l-17 -46q-4 -14 -16 -34.5t-20 -32.5zM1452 1071q14 -51 25 -115h245q-2 4 -20.5 44t-38.5 71h-211zM1456 324h227q25 41 54 114h-258l-9 -49q0 -23 -14 -65z M1483 481h268l12 49q2 8 5.5 29t5.5 37h-283zM1483 913l8 -112h278l-10 45q-2 20 -20 67h-256zM1493 641h285l2 47l-4 68h-283v-115z" />
<glyph unicode="&#xd1;" horiz-adv-x="2078" d="M41 0v47q330 0 330 373v747l-47 45l-29 21l-45 33l-43 28l-43 23l-45 8l-56 4h-8v49h785l807 -757v335q0 373 -304 373v49h695v-49l-88 -4q-12 -2 -20.5 -5t-43.5 -17q-178 -78 -178 -347v-1001h-45l-1231 1161v-696q0 -373 303 -373v-47h-694zM227 1329l43 -24l56 -39 h399l-70 63h-428zM242 47h204l-34 45h-113l-29 -22zM332 129h63l-10 43l-6 37l-19 -41zM369 1231l45 -39l53 -51h391l-96 90h-393zM479 1524q88 160 169 227.5t183 67.5q111 0 259 -80q131 -70 193.5 -93.5t102.5 -23.5q92 0 166 137l19 35l39 -16q-131 -303 -344 -303 q-125 0 -248 69l-146 82q-74 33 -157 33q-61 0 -101.5 -27.5t-99.5 -130.5zM504 1106l96 -88h389l-96 88h-389zM637 983l94 -90h389l-94 90h-389zM674 1702h18l33 2q94 0 195 -51h137q-70 41 -129 61t-129 21l-60 -6zM768 858l96 -88h389l-96 88h-389zM899 733l96 -88h389 l-96 88h-389zM981 1620l113 -61q35 -18 80 -27.5t94 -9.5l51 4l47 20l-23 -2q-33 0 -92 17l-59 18q-25 12 -35 16q-20 10 -41 25h-135zM1032 610l94 -90h390l-95 90h-389zM1163 485l97 -88h389l-97 88h-389zM1296 362l95 -90h268v90h-363zM1427 238l97 -91h135v91h-232z M1524 1329l59 -43h111q12 20 16 25.5t19 17.5h-205zM1559 115l100 -97v97h-100zM1616 1251l41 -73l6 30l14 43h-61z" />
<glyph unicode="&#xd2;" horiz-adv-x="1933" d="M41 694q0 340 295 559q231 170 598 170q434 1 696 -204q262 -207 262 -547q0 -168 -75.5 -320.5t-212.5 -247.5q-217 -150 -605 -149q-223 0 -382.5 45t-301.5 156q-274 213 -274 538zM98 692l2 -47h318v88h-320v-41zM102 610l9 -43l12 -47h311l-8 47l-4 43h-320z M102 770h318l12 88h-313l-10 -47zM129 893h309l25 90h-295l-23 -47zM133 485l17 -45l24 -43h291l-12 37l-13 51h-307zM186 1018h289l39 88h-264l-37 -47zM193 362l28 -47l39 -43h254l-39 90h-282zM281 1141h254l20 37l39 53h-211zM291 238l53 -50l55 -41h191l-58 91h-241z M436 1266h185l49 51l47 47q-47 -8 -95.5 -20.5t-56.5 -14.5q-47 -16 -129 -63zM455 115q123 -70 252 -90l-54 49l-37 41h-161zM600 1835h377l67 -373h-34zM604 692l4 -119q0 -23 1 -35t16 -81l28 -121q6 -27 10.5 -40t28.5 -79q43 -111 112.5 -162t174.5 -51q174 0 269 171 t95 489v26q0 318 -96 502t-264 184h-45l-47 -10q-37 -12 -60 -29q-100 -68 -163 -245q-16 -43 -26.5 -86t-20 -98.5t-13.5 -103.5t-4 -112zM725 1786l184 -166l-28 166h-156zM1167 6q37 0 63.5 7t65.5 24q51 25 127 78h-157q-42 -64 -99 -109zM1171 1366l50 -53l34 -47h150 l-53 34l-49 21zM1276 1231l24 -49l19 -41h225l-45 47l-47 43h-176zM1286 147h180l54 54l32 37h-225zM1333 1106l25 -88h266l-27 47l-26 41h-238zM1339 272h240l31 45l24 45h-270l-10 -47zM1366 983l16 -90h295l-35 90h-276zM1372 397h279l18 47l14 41h-297zM1386 858l7 -88 h313l-18 88h-302zM1391 520h303l14 90h-313zM1395 645h317v35l-2 53h-315v-88z" />
<glyph unicode="&#xd3;" horiz-adv-x="1933" d="M41 694q0 340 295 559q231 170 598 170q434 1 696 -204q262 -207 262 -547q0 -174 -73.5 -321.5t-214.5 -246.5q-217 -150 -605 -149q-223 0 -387 47q-80 23 -152.5 60.5t-144.5 93.5q-274 215 -274 538zM98 692l2 -47h318v88h-320v-41zM102 610l9 -43l12 -47h311l-8 47 l-4 43h-320zM102 770h318l12 88h-313l-10 -47zM129 893h309l25 90h-295l-23 -47zM133 485l17 -45l24 -43h291l-12 37l-13 51h-307zM186 1018h289l39 88h-264l-37 -47zM193 362l28 -47l39 -43h254l-39 90h-282zM281 1141h254l20 37l39 53h-211zM291 238l53 -50l55 -41h191 l-58 91h-241zM436 1266h185l49 51l47 47q-47 -8 -95.5 -20.5t-56.5 -14.5q-47 -16 -129 -63zM455 115q123 -70 252 -90l-54 49l-37 41h-161zM604 692l4 -119q0 -23 1 -35t16 -81l28 -121q6 -27 10.5 -40t28.5 -79q43 -111 112.5 -162t174.5 -51q174 0 269 171t95 489v26 q0 318 -96 502t-264 184h-45l-47 -10q-37 -12 -60 -29q-96 -66 -163 -245q-33 -94 -44.5 -167t-15.5 -121t-4 -112zM889 1462l67 373h377l-409 -373h-35zM969 1620l184 166h-154zM1167 6q37 0 63.5 7t65.5 24q51 25 127 78h-157q-42 -64 -99 -109zM1171 1366l50 -53l34 -47 h150l-53 34l-49 21zM1276 1231l24 -49l19 -41h225l-45 47l-47 43h-176zM1286 147h180l54 54l32 37h-225zM1333 1106l25 -88h266l-27 47l-26 41h-238zM1339 272h240l31 45l24 45h-270l-10 -47zM1366 983l16 -90h295l-35 90h-276zM1372 397h279l18 47l14 41h-297zM1386 858 l7 -88h313l-18 88h-302zM1391 520h303l14 90h-313zM1395 645h317v35l-2 53h-315v-88z" />
<glyph unicode="&#xd4;" horiz-adv-x="1933" d="M41 694q0 340 295 559q231 170 598 170q434 1 696 -204q262 -207 262 -547q0 -174 -73.5 -321.5t-214.5 -246.5q-217 -150 -605 -149q-223 0 -387 47q-80 23 -152.5 60.5t-144.5 93.5q-274 215 -274 538zM98 692l2 -47h318v88h-320v-41zM102 610l9 -43l12 -47h311l-8 47 l-4 43h-320zM102 770h318l12 88h-313l-10 -47zM129 893h309l25 90h-295l-23 -47zM133 485l17 -45l24 -43h291l-12 37l-13 51h-307zM186 1018h289l39 88h-264l-37 -47zM193 362l28 -47l39 -43h254l-39 90h-282zM281 1141h254l20 37l39 53h-211zM291 238l53 -50l55 -41h191 l-58 91h-241zM436 1266h185l49 51l47 47q-47 -8 -95.5 -20.5t-56.5 -14.5q-47 -16 -129 -63zM455 115q123 -70 252 -90l-54 49l-37 41h-161zM600 1464l229 373h279l205 -373h-328l-156 277l-174 -277h-55zM604 692l4 -119q0 -23 1 -35t16 -81l28 -121q6 -27 10.5 -40 t28.5 -79q43 -111 112.5 -162t174.5 -51q174 0 269 171t95 489v26q0 318 -96 502t-264 184h-45l-47 -10q-37 -12 -60 -29q-96 -66 -163 -245q-33 -94 -44.5 -167t-15.5 -121t-4 -112zM866 1788l64 -117h135l-64 117h-135zM948 1636l68 -123h135l-68 123h-135zM1167 6 q37 0 63.5 7t65.5 24q51 25 127 78h-157q-42 -64 -99 -109zM1171 1366l50 -53l34 -47h150l-53 34l-49 21zM1276 1231l24 -49l19 -41h225l-45 47l-47 43h-176zM1286 147h180l54 54l32 37h-225zM1333 1106l25 -88h266l-27 47l-26 41h-238zM1339 272h240l31 45l24 45h-270 l-10 -47zM1366 983l16 -90h295l-35 90h-276zM1372 397h279l18 47l14 41h-297zM1386 858l7 -88h313l-18 88h-302zM1391 520h303l14 90h-313zM1395 645h317v35l-2 53h-315v-88z" />
<glyph unicode="&#xd5;" horiz-adv-x="1933" d="M41 694q0 340 295 559q231 170 598 170q434 1 696 -204q262 -207 262 -547q0 -174 -73.5 -321.5t-214.5 -246.5q-217 -150 -605 -149q-223 0 -387 47q-80 23 -152.5 60.5t-144.5 93.5q-274 215 -274 538zM98 692l2 -47h318v88h-320v-41zM102 610l9 -43l12 -47h311l-8 47 l-4 43h-320zM102 770h318l12 88h-313l-10 -47zM129 893h309l25 90h-295l-23 -47zM133 485l17 -45l24 -43h291l-12 37l-13 51h-307zM186 1018h289l39 88h-264l-37 -47zM193 362l28 -47l39 -43h254l-39 90h-282zM281 1141h254l20 37l39 53h-211zM291 238l53 -50l55 -41h191 l-58 91h-241zM436 1266h185l49 51l47 47q-47 -8 -95.5 -20.5t-56.5 -14.5q-47 -16 -129 -63zM446 1524q88 160 169 227.5t184 67.5q111 0 258 -80q131 -70 193.5 -93.5t103.5 -23.5q96 0 166 137l18 35l39 -16q-131 -303 -344 -303q-121 0 -248 69l-145 82q-74 33 -158 33 q-61 0 -101 -27.5t-100 -130.5zM455 115q123 -70 252 -90l-54 49l-37 41h-161zM604 692l4 -119q0 -23 1 -35t16 -81l28 -121q6 -27 10.5 -40t28.5 -79q43 -111 112.5 -162t174.5 -51q174 0 269 171t95 489v26q0 318 -96 502t-264 184h-45l-47 -10q-37 -12 -60 -29 q-96 -66 -163 -245q-33 -94 -44.5 -167t-15.5 -121t-4 -112zM641 1702h18l33 2q94 0 195 -51h137q-70 41 -129 61t-129 21l-59 -6zM948 1620l113 -61q35 -18 80 -27.5t94 -9.5l51 4l47 20l-22 -2q-33 0 -92 17l-60 18q-25 12 -35 16q-20 10 -41 25h-135zM1167 6q37 0 63.5 7 t65.5 24q51 25 127 78h-157q-42 -64 -99 -109zM1171 1366l50 -53l34 -47h150l-53 34l-49 21zM1276 1231l24 -49l19 -41h225l-45 47l-47 43h-176zM1286 147h180l54 54l32 37h-225zM1333 1106l25 -88h266l-27 47l-26 41h-238zM1339 272h240l31 45l24 45h-270l-10 -47z M1366 983l16 -90h295l-35 90h-276zM1372 397h279l18 47l14 41h-297zM1386 858l7 -88h313l-18 88h-302zM1391 520h303l14 90h-313zM1395 645h317v35l-2 53h-315v-88z" />
<glyph unicode="&#xd6;" horiz-adv-x="1933" d="M41 694q0 340 295 559q231 170 598 170q434 1 696 -204q262 -207 262 -547q0 -168 -75.5 -320.5t-212.5 -247.5q-217 -150 -605 -149q-223 0 -382.5 45t-301.5 156q-274 213 -274 538zM98 692l2 -47h318v88h-320v-41zM102 610l9 -43l12 -47h311l-8 47l-4 43h-320z M102 770h318l12 88h-313l-10 -47zM129 893h309l25 90h-295l-23 -47zM133 485l17 -45l24 -43h291l-12 37l-13 51h-307zM186 1018h289l39 88h-264l-37 -47zM193 362l28 -47l39 -43h254l-39 90h-282zM281 1141h254l20 37l39 53h-211zM291 238l53 -50l55 -41h191l-58 91h-241z M436 1266h185l49 51l47 47q-47 -8 -95.5 -20.5t-56.5 -14.5q-47 -16 -129 -63zM455 115q123 -70 252 -90l-54 49l-37 41h-161zM580 1632q0 70 47 117t116 47q70 0 117 -47t47 -117q0 -68 -47 -119q-47 -47 -117 -47t-116 47q-23 25 -35 53.5t-12 65.5zM604 692l4 -119 q0 -23 1 -35t16 -81l28 -121q6 -27 10.5 -40t28.5 -79q43 -111 112.5 -162t174.5 -51q174 0 269 171t95 489v26q0 318 -96 502t-264 184h-45l-47 -10q-37 -12 -60 -29q-100 -68 -163 -245q-16 -43 -26.5 -86t-20 -98.5t-13.5 -103.5t-4 -112zM627 1645h168q-1 34 -7 57 q-8 18 -49 53q-47 -6 -73.5 -29.5t-38.5 -80.5zM629 1612q16 -88 110 -105q41 39 54 105h-164zM1042 1632q0 70 47.5 117t116.5 47q63 0 113.5 -48t50.5 -116t-47 -119q-47 -47 -117 -47t-116 47q-23 25 -35.5 53.5t-12.5 65.5zM1090 1612q18 -92 112 -105q41 39 53 105 h-165zM1090 1645h167q0 69 -55 110q-47 -6 -73.5 -29.5t-38.5 -80.5zM1167 6q37 0 63.5 7t65.5 24q51 25 127 78h-157q-42 -64 -99 -109zM1171 1366l50 -53l34 -47h150l-53 34l-49 21zM1276 1231l24 -49l19 -41h225l-45 47l-47 43h-176zM1286 147h180l54 54l32 37h-225z M1333 1106l25 -88h266l-27 47l-26 41h-238zM1339 272h240l31 45l24 45h-270l-10 -47zM1366 983l16 -90h295l-35 90h-276zM1372 397h279l18 47l14 41h-297zM1386 858l7 -88h313l-18 88h-302zM1391 520h303l14 90h-313zM1395 645h317v35l-2 53h-315v-88z" />
<glyph unicode="&#xd7;" horiz-adv-x="81" />
<glyph unicode="&#xd8;" horiz-adv-x="1935" d="M41 694q0 170 76 312.5t219 246.5q236 170 598 170q373 0 616 -151l181 170l34 -35l-174 -162q303 -217 303 -571q0 -172 -74.5 -321.5t-215.5 -248.5q-217 -150 -605 -149h-24q-96 0 -175 9t-145 26q-141 35 -272 116l-180 -167l-33 34l172 160q-301 225 -301 561z M98 692l2 -47h318v88h-320v-41zM102 610l9 -45l12 -45h311l-8 45l-4 45h-320zM102 768h318l12 90h-313l-10 -47zM129 893h309l25 90h-295l-23 -49zM133 485l17 -47l24 -41h291l-12 35l-13 53h-307zM186 1018h289l39 88h-264l-37 -47zM193 362l28 -47l39 -43h254l-39 90h-282 zM281 1141h254l20 37l39 53h-211zM291 238l53 -50l55 -41h191l-58 91h-241zM436 1266h185l49 53l47 45l-152 -33q-51 -18 -129 -65zM455 113q117 -66 252 -88l-54 49l-37 39h-161zM604 692q0 -137 31 -282l665 626q-92 340 -317 340h-45l-47 -10q-35 -8 -60 -27 q-100 -68 -163 -247q-16 -43 -26.5 -86t-20 -98.5t-13.5 -103.5t-4 -112zM647 354q51 -192 127 -270q74 -80 207 -80q174 0 268 172t94 486v79l-8 86l-4 74l-18 82zM1167 6q37 0 63.5 7t57.5 20.5t64.5 33t70.5 46.5h-157q-44 -64 -99 -107zM1171 1366l50 -51l34 -49h150 l-53 37l-49 20zM1276 1231l24 -49l19 -41h225l-45 47l-47 43h-176zM1286 147h180l54 54l32 37h-225zM1333 1106l25 -88h266l-27 47l-26 41h-238zM1339 272h240l31 45l24 45h-270l-10 -47zM1366 983l16 -90h295l-35 90h-276zM1372 397h279l18 45l14 43h-297zM1386 858l7 -90 h313l-18 90h-302zM1391 520h303l14 90h-313zM1395 645h317v37l-2 51h-315v-88z" />
<glyph unicode="&#xd9;" horiz-adv-x="2007" d="M41 1329v49h1081v-49h-65l-113 -4l-41 -10l-33 -23q-25 -18 -35 -56t-10 -75l-2 -61v-738q0 -145 68 -229q47 -57 110.5 -86t143.5 -29q113 0 226.5 56.5t170.5 144.5q20 33 34.5 68t23 75.5t12.5 95t4 134.5v364q0 373 -305 373v49h655v-49q-289 -29 -289 -373v-383 q0 -143 -18 -227q-23 -86 -76 -164q-76 -113 -235.5 -170t-389.5 -57q-254 0 -411 102q-20 14 -35 25q-20 16 -41 39q-35 37 -63 82q-4 6 -13.5 25.5t-15.5 39.5q-10 23 -15.5 40.5t-11.5 46t-7 49t-1 32.5l-4 125v539q0 96 -10 131q-6 37 -33 58.5t-72 31.5l-119 8h-65z M324 1329q31 -25 51 -63h299q4 14 11 30.5t22 32.5h-383zM385 1231l8 -43l2 -47h271v22l2 54v14h-283zM395 485l2 -47l4 -41h265v88h-271zM395 520h271v90h-271v-90zM395 645h271v88h-271v-88zM395 770h271v88h-271v-88zM395 893h271v90h-271v-90zM395 1018h271v88h-271v-88 zM406 362l10 -51l14 -39h244l-4 41l-2 49h-262zM446 238l31 -48l37 -43h201l-21 43l-14 48h-234zM553 115l65 -47l74 -33l80 -23q10 -4 39 -5t49 -1q-49 27 -72 47l-51 62h-184zM700 1835h377l68 -373h-35zM825 1786l185 -166l-29 166h-156zM1493 1329l51 -37h123l31 37 h-205zM1577 1257l33 -43l18 -45l2 33q0 16 21 55h-74z" />
<glyph unicode="&#xda;" horiz-adv-x="2007" d="M41 1329v49h1081v-49h-65l-113 -4l-41 -10l-33 -23q-25 -18 -35 -56t-10 -75l-2 -61v-738q0 -145 68 -229q47 -57 110.5 -86t143.5 -29q113 0 226.5 56.5t170.5 144.5q20 33 34.5 68t23 75.5t12.5 95t4 134.5v364q0 373 -305 373v49h655v-49q-289 -29 -289 -373v-383 q0 -143 -18 -227q-23 -86 -76 -164q-76 -113 -235.5 -170t-389.5 -57q-254 0 -411 102q-20 14 -35 25q-20 16 -41 39q-35 37 -63 82q-4 6 -13.5 25.5t-15.5 39.5q-10 23 -15.5 40.5t-11.5 46t-7 49t-1 32.5l-4 125v539q0 96 -10 131q-6 37 -33 58.5t-72 31.5l-119 8h-65z M324 1329q31 -25 51 -63h299q4 14 11 30.5t22 32.5h-383zM385 1231l8 -43l2 -47h271v22l2 54v14h-283zM395 485l2 -47l4 -41h265v88h-271zM395 520h271v90h-271v-90zM395 645h271v88h-271v-88zM395 770h271v88h-271v-88zM395 893h271v90h-271v-90zM395 1018h271v88h-271v-88 zM406 362l10 -51l14 -39h244l-4 41l-2 49h-262zM446 238l31 -48l37 -43h201l-21 43l-14 48h-234zM553 115l65 -47l74 -33l80 -23q10 -4 39 -5t49 -1q-49 27 -72 47l-51 62h-184zM973 1464l67 373h377l-409 -373h-35zM1053 1622l184 166h-154zM1493 1329l51 -37h123l31 37 h-205zM1577 1257l33 -43l18 -45l2 33q0 16 21 55h-74z" />
<glyph unicode="&#xdb;" horiz-adv-x="2007" d="M41 1329v49h1081v-49h-65l-113 -4l-41 -10l-33 -23q-25 -18 -35 -56t-10 -75l-2 -61v-738q0 -145 68 -229q47 -57 110.5 -86t143.5 -29q113 0 226.5 56.5t170.5 144.5q20 33 34.5 68t23 75.5t12.5 95t4 134.5v364q0 373 -305 373v49h655v-49q-289 -29 -289 -373v-383 q0 -143 -18 -227q-23 -86 -76 -164q-76 -113 -235.5 -170t-389.5 -57q-254 0 -411 102q-20 14 -35 25q-20 16 -41 39q-35 37 -63 82q-4 6 -13.5 25.5t-15.5 39.5q-10 23 -15.5 40.5t-11.5 46t-7 49t-1 32.5l-4 125v539q0 96 -10 131q-6 37 -33 58.5t-72 31.5l-119 8h-65z M324 1329q31 -25 51 -63h299q4 14 11 30.5t22 32.5h-383zM385 1231l8 -43l2 -47h271v22l2 54v14h-283zM395 485l2 -47l4 -41h265v88h-271zM395 520h271v90h-271v-90zM395 645h271v88h-271v-88zM395 770h271v88h-271v-88zM395 893h271v90h-271v-90zM395 1018h271v88h-271v-88 zM406 362l10 -51l14 -39h244l-4 41l-2 49h-262zM446 238l31 -48l37 -43h201l-21 43l-14 48h-234zM553 115l65 -47l74 -33l80 -23q10 -4 39 -5t49 -1q-49 27 -72 47l-51 62h-184zM709 1464l229 373h279l204 -373h-327l-156 277l-174 -277h-55zM975 1788l63 -117h136l-64 117 h-135zM1057 1636l67 -123h136l-68 123h-135zM1493 1329l51 -37h123l31 37h-205zM1577 1257l33 -43l18 -45l2 33q0 16 21 55h-74z" />
<glyph unicode="&#xdc;" horiz-adv-x="2007" d="M41 1329v49h1081v-49h-65l-113 -4l-41 -10l-33 -23q-25 -18 -35 -56t-10 -75l-2 -61v-738q0 -145 68 -229q47 -57 110.5 -86t143.5 -29q113 0 226.5 56.5t170.5 144.5q20 33 34.5 68t23 75.5t12.5 95t4 134.5v364q0 373 -305 373v49h655v-49q-289 -29 -289 -373v-383 q0 -143 -18 -227q-23 -86 -76 -164q-76 -113 -235.5 -170t-389.5 -57q-254 0 -411 102q-20 14 -35 25q-20 16 -41 39q-35 37 -63 82q-4 6 -13.5 25.5t-15.5 39.5q-10 23 -15.5 40.5t-11.5 46t-7 49t-1 32.5l-4 125v539q0 96 -10 131q-6 37 -33 58.5t-72 31.5l-119 8h-65z M324 1329q31 -25 51 -63h299q4 14 11 30.5t22 32.5h-383zM385 1231l8 -43l2 -47h271v22l2 54v14h-283zM395 485l2 -47l4 -41h265v88h-271zM395 520h271v90h-271v-90zM395 645h271v88h-271v-88zM395 770h271v88h-271v-88zM395 893h271v90h-271v-90zM395 1018h271v88h-271v-88 zM406 362l10 -51l14 -39h244l-4 41l-2 49h-262zM446 238l31 -48l37 -43h201l-21 43l-14 48h-234zM553 115l65 -47l74 -33l80 -23q10 -4 39 -5t49 -1q-49 27 -72 47l-51 62h-184zM639 1632q0 70 47 117t117 47t117 -47t47 -117q0 -68 -47 -119q-47 -47 -117 -47t-117 47 q-23 25 -35 53.5t-12 65.5zM686 1645h168q0 34 -6 57q-8 18 -49 53q-47 -6 -74 -29.5t-39 -80.5zM688 1612q16 -88 111 -105q41 39 53 105h-164zM1102 1632q0 70 47 117t117 47q63 0 113.5 -48t50.5 -116q-1 -68 -48 -119q-47 -47 -116 -47q-70 0 -117 47q-23 25 -35 53.5 t-12 65.5zM1149 1612q18 -92 113 -105q41 39 53 105h-166zM1149 1645h168q0 69 -55 110q-47 -6 -74 -29.5t-39 -80.5zM1493 1329l51 -37h123l31 37h-205zM1577 1257l33 -43l18 -45l2 33q0 16 21 55h-74z" />
<glyph unicode="&#xdd;" horiz-adv-x="2074" d="M41 1329v49h1087v-49h-73q-158 0 -158 -78q0 -39 37 -88l340 -477l176 248q78 113 78 205q0 88 -57.5 139t-155.5 51h-41v49h760v-49q-139 0 -258 -92t-281 -328l-203 -288v-345q0 -94 10.5 -129.5t38.5 -62.5l62 -29l123 -8h65v-47h-1081v47h65q84 0 113 6q16 0 26.5 4 t12.5 4l31 21q29 23 41 63q10 47 10 131v242l-469 670q-102 141 -252 141h-47zM264 1329l41 -26l37 -37h360l9 32l28 31h-475zM369 1231l14 -19l49 -71h322l-21 26q-8 10 -15 27.5t-13 36.5h-336zM457 1106l63 -88h320l-64 88h-319zM545 983l63 -90h320l-64 90h-319z M633 858l63 -88h318l-62 88h-319zM721 733l61 -88h320l-64 88h-317zM793 47h383q-20 29 -33 68h-299q-4 -14 -21 -35zM807 610l57 -80v-10h271v78l-9 12h-319zM854 147h283v17l-2 49v25h-271l-2 -43zM864 272h271v90h-271v-90zM864 397h271v88h-271v-88zM897 1464l68 373 h376l-409 -373h-35zM977 1622l184 166h-153zM1487 1329l29 -29l26 -34h146l69 63h-270zM1559 1231q18 -55 18 -103v-8l39 60l41 51h-98z" />
<glyph unicode="&#xde;" horiz-adv-x="1933" d="M41 2h65q141 0 187.5 40t46.5 189v1203q0 96 -33 129q-53 53 -201 53h-65v49h1008v-49q-139 0 -185 -62q-20 -29 -31.5 -85t-11.5 -136h430q330 0 485.5 -100t155.5 -299q0 -164 -98 -254q-158 -147 -543 -148h-430v-303q0 -135 33 -174q43 -53 201 -53h65v-47h-1079v47z M324 2h383q-25 31 -33 57h-303q-7 -18 -25 -36zM324 1616q43 -39 59 -88h285q6 55 39 88h-383zM387 104h281l-2 111h-271v-76zM391 1485l2 -45l2 -70h271v115h-275zM395 260h271v115h-271v-115zM395 420h271v112h-271v-112zM395 575l271 3v112h-271v-115zM395 735h271v115 h-271v-115zM395 895h271v115h-271v-115zM395 1053h271v114h-271v-114zM395 1212h271v113h-271v-113zM821 578h299q139 0 209 86t70 276q0 344 -279 344h-299v-706zM1296 578q109 0 183 28q33 12 55 25q37 20 80 59h-211q-41 -72 -107 -112zM1296 1284q25 -8 37 -20 q29 -23 49 -52h187q-109 72 -273 72zM1409 1167l18 -49l15 -65h250q-18 63 -70 114h-213zM1423 735h230l28 53l23 62h-256q-6 -59 -25 -115zM1448 1010l4 -88v-27h258l2 39v39l-8 37h-256z" />
<glyph unicode="&#xdf;" horiz-adv-x="2349" d="M41 0v41h59q127 0 169 38t42 169v1030q0 104 -51 137q-53 29 -160 29h-59v43h1178q106 0 189 -21.5t148 -66.5q129 -90 130 -273q0 -121 -97.5 -216t-234.5 -95q25 6 47 23.5t45 42.5q55 66 55 118q0 98 -100 154q-113 63 -385 64h-273v-969q0 -117 34 -162t177 -45h60 v-41h-973zM297 41h344l-18 25l-13 32h-268q-12 -31 -45 -57zM297 1444q37 -33 51 -72h1102q-45 31 -111 49q-68 23 -139 23h-903zM352 133h254l-2 88h-244q0 -63 -8 -88zM356 1337l4 -88h1203q-21 41 -68 88h-1139zM360 256h244v90h-244v-90zM360 381h244v90h-244v-90z M360 506h244v88h-244v-88zM360 629h244v88h-244v-88zM360 752h244v90h-244v-90zM360 877h244v88h-244v-88zM360 999h244v91h-244v-91zM360 1124h244v90h-244v-90zM1026 -129v430h39q98 -168 281 -289q207 -133 428 -133q154 0 256 105q76 82 75 155q0 72 -55 119 q-37 29 -104.5 54.5t-157.5 37.5l-299 45q-438 68 -438 344q0 135 65.5 212t196.5 102q-60 -38 -60 -140q0 -61 64 -98q39 -20 119 -39.5t137 -27.5l268 -41q113 -16 194 -46t142 -75q131 -98 131 -267q0 -180 -133 -319q-152 -158 -397 -158q-66 0 -129.5 10.5t-122.5 28.5 q-125 43 -258 142l-203 -154zM1057 0v-90l119 90h-119zM1057 35h123l-45 41l-78 88v-129zM1083 717l4 -43q2 -20 19 -45h532l-137 20l-104 13q-43 4 -77 18t-71 37h-166zM1083 752h127q-31 41 -39 90h-71l-13 -41zM1116 877h58q0 33 18 63l25 43q-41 -23 -66 -49zM1126 594 q33 -51 105 -88h878q-85 55 -247 88h-736zM1311 471q37 -12 97 -26.5t132 -24.5l266 -39h400q-17 41 -56 90h-839zM1337 1214q33 -8 49.5 -15t45.5 -23q12 -8 28.5 -19.5t34.5 -32.5h109l-9 43l-14 47h-244zM1483 879q29 18 53.5 40.5t36.5 36.5q33 51 33 127l-86 7l14 -39 l2 -33q0 -53 -10 -78q-6 -25 -43 -61zM1956 346q104 -33 149 -90h115v27l-4 32l-2 31h-258zM2007 -68q74 29 112 67t66 99h-55q-12 -57 -43 -96q-33 -37 -80 -70zM2128 221l6 -22l4 -39l-2 -27h62l12 41l6 47h-88z" />
<glyph unicode="&#xe0;" horiz-adv-x="1761" d="M41 0v39q170 0 338 303l479 856h41l541 -975q12 -20 28.5 -48t26.5 -38l51 -55q49 -43 152 -43h22v-39h-909v39h88q49 0 80 22.5t31 59.5q0 25 -21 63l-76 138h-479q-12 -29 -12 -62q0 -66 33 -117q27 -53 82 -80l67 -20l68 -4v-39h-631zM170 39h199l-17 29l-10 28h-94 l-43 -35zM279 127h57l-2 25l4 49l-31 -41zM446 362h441l-221 410zM571 1634h377l68 -372h-35zM688 813l33 -57h264l-43 75h-246zM696 1585l185 -166l-29 166h-156zM715 860h211l-41 76h-127zM737 725l41 -76h264l-41 76h-264zM774 963h94l-47 84zM795 621l41 -74h266l-43 74 h-264zM852 516l41 -76h268l-45 76h-264zM909 412l43 -76h265l-41 76h-267zM967 305l41 -76h268l-41 76h-268zM1020 39h362l-30 57h-301q-6 -22 -31 -57zM1026 201l6 -15q18 -33 21 -59h282l-41 74h-268z" />
<glyph unicode="&#xe1;" horiz-adv-x="1761" d="M41 0v39q170 0 338 303l479 856h41l541 -975q12 -20 28.5 -48t26.5 -38l51 -55q49 -43 152 -43h22v-39h-909v39h88q49 0 80 22.5t31 59.5q0 25 -21 63l-76 138h-479q-12 -29 -12 -62q0 -66 33 -117q27 -53 82 -80l67 -20l68 -4v-39h-631zM170 39h199l-17 29l-10 28h-94 l-43 -35zM279 127h57l-2 25l4 49l-31 -41zM446 362h441l-221 410zM688 813l33 -57h264l-43 75h-246zM715 860h211l-41 76h-127zM735 1262l68 372h377l-410 -372h-35zM737 725l41 -76h264l-41 76h-264zM774 963h94l-47 84zM795 621l41 -74h266l-43 74h-264zM815 1419l184 166 h-153zM852 516l41 -76h268l-45 76h-264zM909 412l43 -76h265l-41 76h-267zM967 305l41 -76h268l-41 76h-268zM1020 39h362l-30 57h-301q-6 -22 -31 -57zM1026 201l6 -15q18 -33 21 -59h282l-41 74h-268z" />
<glyph unicode="&#xe2;" horiz-adv-x="1761" d="M41 0v39q170 0 338 303l479 856h41l541 -975q12 -20 28.5 -48t26.5 -38l51 -55q49 -43 152 -43h22v-39h-909v39h88q49 0 80 22.5t31 59.5q0 25 -21 63l-76 138h-479q-12 -29 -12 -62q0 -66 33 -117q27 -53 82 -80l67 -20l68 -4v-39h-631zM170 39h199l-17 29l-10 28h-94 l-43 -35zM279 127h57l-2 25l4 49l-31 -41zM446 362h441l-221 410zM522 1262l230 372h278l205 -372h-328l-155 276l-174 -276h-56zM688 813l33 -57h264l-43 75h-246zM715 860h211l-41 76h-127zM737 725l41 -76h264l-41 76h-264zM774 963h94l-47 84zM788 1585l64 -117h135 l-63 117h-136zM795 621l41 -74h266l-43 74h-264zM852 516l41 -76h268l-45 76h-264zM870 1434l68 -123h135l-67 123h-136zM909 412l43 -76h265l-41 76h-267zM967 305l41 -76h268l-41 76h-268zM1020 39h362l-30 57h-301q-6 -22 -31 -57zM1026 201l6 -15q18 -33 21 -59h282 l-41 74h-268z" />
<glyph unicode="&#xe3;" horiz-adv-x="1748" d="M41 0v39q168 0 336 301l475 850h41l537 -969q12 -20 28.5 -48t26.5 -38l51 -53q47 -43 150 -43h22v-39h-903v39h88q49 0 80 22.5t31 59.5q0 23 -21 61l-76 137h-475q-12 -29 -12 -61q0 -66 33 -117q25 -51 79 -78l68 -20l68 -4v-39h-627zM170 39h197l-17 29l-10 28h-94 l-43 -35zM276 127h58l-2 23l4 49l-31 -41zM334 1315q88 160 168 226.5t182 66.5q109 0 256 -80q129 -68 191.5 -91.5t103.5 -23.5q90 0 164 135l18 35l39 -16q-131 -301 -342 -301q-119 0 -246 69l-143 82q-74 33 -158 33q-61 0 -100 -27.5t-98 -130.5zM444 360h437 l-219 406zM526 1491h19l33 2q94 0 192 -49h137q-70 39 -129 59q-57 20 -127 21l-59 -6zM684 807l33 -57h262l-43 75h-244zM711 854h209l-41 76h-127zM733 719l39 -74h262l-39 74h-262zM768 954h94l-47 84zM788 616l41 -73h265l-43 73h-263zM831 1411l113 -61 q35 -18 79 -27.5t93 -9.5l51 4l47 20l-22 -2q-33 0 -92 17l-60 18q-25 12 -32 16q-20 10 -41 25h-136zM846 512l41 -76h266l-45 76h-262zM903 408l43 -74h262l-41 74h-264zM961 303l40 -76h267l-41 76h-266zM1014 39h358l-31 57h-299q-5 -22 -28 -57zM1018 199l6 -15 q18 -33 20 -57h281l-39 72h-268z" />
<glyph unicode="&#xe4;" horiz-adv-x="1761" d="M41 0v39q170 0 338 303l479 856h41l541 -975q12 -20 28.5 -48t26.5 -38l51 -55q49 -43 152 -43h22v-39h-909v39h88q49 0 80 22.5t31 59.5q0 25 -21 63l-76 138h-479q-12 -29 -12 -62q0 -66 33 -117q27 -53 82 -80l67 -20l68 -4v-39h-631zM170 39h199l-17 29l-10 28h-94 l-43 -35zM279 127h57l-2 25l4 49l-31 -41zM446 362h441l-221 410zM483 1448q0 70 47.5 117t116.5 47q70 0 117 -47t47 -117q0 -68 -47 -119q-47 -47 -117 -47t-117 47q-23 25 -35 53.5t-12 65.5zM530 1460h168q0 35 -6 58q-8 18 -49 53q-47 -6 -73.5 -29.5t-39.5 -81.5z M532 1427q16 -88 111 -104q41 39 53 104h-164zM688 813l33 -57h264l-43 75h-246zM715 860h211l-41 76h-127zM737 725l41 -76h264l-41 76h-264zM774 963h94l-47 84zM795 621l41 -74h266l-43 74h-264zM852 516l41 -76h268l-45 76h-264zM909 412l43 -76h265l-41 76h-267z M946 1448q0 70 47 117t117 47q63 0 113.5 -48t50.5 -116t-47 -119q-47 -47 -117 -47t-117 47q-23 25 -35 53.5t-12 65.5zM967 305l41 -76h268l-41 76h-268zM993 1427q18 -92 113 -104q41 39 53 104h-166zM993 1460h168q0 70 -55 111q-47 -6 -73.5 -29.5t-39.5 -81.5z M1020 39h362l-30 57h-301q-6 -22 -31 -57zM1026 201l6 -15q18 -33 21 -59h282l-41 74h-268z" />
<glyph unicode="&#xe5;" horiz-adv-x="1728" d="M41 0v39q166 0 332 297l469 840h41l530 -957q12 -20 27.5 -47t25.5 -37l52 -55q47 -41 147 -41h23v-39h-891v39h86q47 0 77.5 21.5t30.5 58.5q0 25 -20 61l-74 135h-471q-12 -29 -12 -59q0 -66 32 -115q27 -53 80 -80l68 -18l65 -4v-39h-618zM168 39h194l-16 27l-10 28 h-92l-43 -35zM274 125h56l-2 25l4 47l-31 -41zM438 356h432l-217 402zM668 1452q0 76 56 135.5t138 59.5q80 0 136.5 -56.5t56.5 -138.5q-1 -84 -54 -139q-57 -55 -139 -56q-78 0 -136 54.5t-58 140.5zM676 797l33 -56h258l-43 74h-240zM702 844h207l-41 74h-125zM723 711 l41 -74h258l-39 74h-260zM727 1452q0 -55 41 -95t94 -40q55 0 94 38t39 97q0 57 -37 96q-37 41 -96 41q-53 0 -94 -40t-41 -97zM760 944h92l-45 82zM780 608l39 -71h262l-43 71h-258zM836 506l41 -74h262l-43 74h-260zM893 403l41 -73h260l-41 73h-260zM948 299l41 -74h262 l-39 74h-264zM1001 39h355l-29 55h-297q-6 -22 -29 -55zM1008 197l6 -15q16 -31 18 -57h279l-41 72h-262z" />
<glyph unicode="&#xe6;" horiz-adv-x="2228" d="M41 0v37q31 0 49 6l41 25q47 29 100 84l117 122l129 148l520 622l-51 13l-84 4h-51v41h1360v-400h-35l-70 91l-49 51l-62.5 62.5t-70.5 60.5q-70 57 -129 75.5t-149 18.5h-170v-461h43q94 0 163.5 41t135.5 150h41v-424h-41l-23 36l-24 31l-35 31q-29 33 -62 51 q-72 43 -155 43h-43v-522h178l33 8q74 8 135 37t123 78q141 111 245 243h37v-403h-1376v37h51l94 4q33 6 55.5 26.5t31 51.5t8.5 102v94h-605l-30 -63l-8 -57q0 -158 188 -158h43v-37h-598zM152 37h180l-13 45h-110zM240 106h75v21l7 63l-23 -24l-47 -47zM473 356h578v525 q0 96 -25 137zM1030 37h281v53h-240q-16 -31 -41 -53zM1030 1061q27 -16 41 -49h240v49h-281zM1081 119h230v71h-224zM1081 983l4 -41l2 -33h224v74h-230zM1090 217h221v72h-221v-72zM1090 315l221 2v72h-221v-74zM1090 416h221v73h-221v-73zM1090 516h221v70h-221v-70z M1090 614h221v74h-221v-74zM1090 715h221v71h-221v-71zM1090 813h221v70h-221v-70zM1612 565l53 -33l31 -20l33 -33v86h-117zM1620 590h109v86l-31 -31l-33 -27zM1772 37h301v63h-185l-55 -34zM1798 1061l49 -33l45 -29h166v62h-260zM1925 127h148v135l-50 -53l-59 -49z M1927 973l45 -39q43 -37 86 -86v125h-131z" />
<glyph unicode="&#xe7;" horiz-adv-x="1384" d="M41 563q0 254 183.5 425t467.5 171l80 -2l80 -18q53 -14 133 -54q74 -35 111 -34q84 0 166 82h32l19 -476l-25 -6l-35 74l-36 70l-56 82l-22 34l-29 33q-33 35 -73 66.5t-85 54.5q-90 45 -180 45q-127 0 -203.5 -148.5t-76.5 -406.5q0 -231 65.5 -392t224.5 -161 q160 0 301.5 99.5t227.5 277.5l32 -17l-43 -83q-23 -35 -63 -86q-55 -74 -127 -123q-166 -119 -395 -119q-145 0 -263 40t-219 130q-193 174 -192 442zM82 559l4 -39h246l-2 25l2 47h-246zM86 621h248l10 75h-246zM88 492l14 -76h236l-6 76h-244zM106 723h242l19 76h-234z M111 389l30 -76h219l-16 76h-233zM147 825h230l12 37l17 35h-213l-25 -33zM158 285l20 -37l29 -37h192l-28 74h-213zM215 926h203l22 39l25 36h-174l-39 -34zM231 182l39 -39l45 -34h138l-25 38l-18 35h-179zM332 1030h157q14 18 39 43q14 14 47 45q-66 -6 -100 -18 q-20 -2 -37 -13l-55 -30zM356 82l88 -51l95 -25l-39 39l-27 37h-117zM555 -254q0 59 43 102q47 39 115 39q70 0 115.5 -47t45.5 -116q0 -90 -65.5 -151.5t-230.5 -84.5v41q129 18 129 61q0 20 -37 31q-115 27 -115 125zM600 -250l178 -4q-12 90 -88 90q-35 0 -63 -24 q-27 -25 -27 -62zM608 -287q6 -16 24.5 -29.5t65.5 -29.5q33 -6 54 -49q31 51 30 108h-174zM1081 1022l25 -21h86l-2 41l-49 -16zM1135 973l34 -47l29 -43l-4 90h-59z" />
<glyph unicode="&#xe8;" horiz-adv-x="1460" d="M41 0v37h53q66 0 92.5 6t50 23.5t31.5 48t10.5 49t2.5 57.5v725l-11 51q-2 23 -28 41q-12 10 -45 19.5t-103 9.5h-53v39h1364v-401h-35l-55 75l-66 66q-63 68 -132.5 124t-129 76.5t-149.5 20.5h-170v-465h41q53 0 89 8t74 31q70 41 140 154h39v-426h-39l-25 37l-24 30 l-35 31q-25 29 -62 51q-74 45 -157 45h-41v-526h178l33 8l73 12l62 21q49 20 125 82q147 115 245 246h35v-406h-1378zM268 37h275v55h-234q-10 -23 -41 -55zM268 1067q20 -12 23 -23l18 -28h234v51h-275zM317 121h226v69h-219zM317 989l5 -41l2 -35h219v76h-226zM324 217 h219v74h-219v-74zM324 319h219v72h-219v-72zM324 418h219v71h-219v-71zM324 520h219v70h-219v-70zM324 616h219v72h-219v-72zM324 719h219v72h-219v-72zM324 817h219v72h-219v-72zM457 1552h358l64 -354h-33zM575 1505l175 -157l-27 157h-148zM846 567l26 -16l31 -19l27 -18 l33 -31v84h-117zM854 594h109v86q-27 -35 -66 -59zM1004 37h303v63h-183l-55 -32zM1028 1067l49 -33l49 -30h164v63h-262zM1161 131h146v131l-52 -51l-57 -51zM1163 977l45 -39l33 -35l49 -53v127h-127z" />
<glyph unicode="&#xe9;" horiz-adv-x="1456" d="M41 0v37h53q66 0 92.5 6t50 23.5t31.5 48t9.5 49t1.5 57.5v721l-9 51q-2 23 -30 41q-10 10 -43 18.5t-103 8.5h-53v41h1360v-402h-35l-55 76l-64 68q-66 68 -135.5 123t-127.5 74.5t-148 19.5h-170v-463h41q53 0 88.5 9t74.5 32q70 41 138 152h39v-424h-39l-23 36l-24 31 l-35 31q-27 29 -62 51q-74 43 -157 43h-41v-522h178l33 8l73 12l60 21q51 20 127 82q145 113 243 243h35v-403h-1374zM268 37h273v53h-232q-10 -20 -41 -53zM268 1061q18 -10 23 -21l18 -28h232v49h-273zM315 121h226v69h-219zM315 985l4 -41l3 -33h219v74h-226zM322 217 h219v72h-219v-72zM322 317h219v72h-219v-72zM322 416h219v71h-219v-71zM322 518h219v70h-219v-70zM322 614h219v72h-219v-72zM322 715h219v71h-219v-71zM322 813h219v72h-219v-72zM647 1194l64 352h358l-389 -352h-33zM723 1343l174 156h-145zM844 565l26 -16l29 -19l29 -18 l33 -31v84h-117zM852 592h109v84q-29 -33 -68 -58zM999 37h304v63h-183l-53 -32zM1026 1061l47 -31l49 -31h166v62h-262zM1157 129h146v133l-50 -53l-59 -49zM1159 973l45 -39l33 -35l51 -53v127h-129z" />
<glyph unicode="&#xea;" horiz-adv-x="1460" d="M41 0v37h53q66 0 92.5 6t50 23.5t31.5 48t10.5 49t2.5 57.5v725l-11 51q-2 23 -28 41q-12 10 -45 19.5t-103 9.5h-53v39h1364v-401h-35l-55 75l-66 66q-63 68 -132.5 124t-129 76.5t-149.5 20.5h-170v-465h41q53 0 89 8t74 31q70 41 140 154h39v-426h-39l-25 37l-24 30 l-35 31q-25 29 -62 51q-74 45 -157 45h-41v-526h178l33 8l73 12l62 21q49 20 125 82q147 115 245 246h35v-406h-1378zM268 37h275v55h-234q-10 -23 -41 -55zM268 1067q20 -12 23 -23l18 -28h234v51h-275zM317 121h226v69h-219zM317 989l5 -41l2 -35h219v76h-226zM324 217 h219v74h-219v-74zM324 319h219v72h-219v-72zM324 418h219v71h-219v-71zM324 520h219v70h-219v-70zM324 616h219v72h-219v-72zM324 719h219v72h-219v-72zM324 817h219v72h-219v-72zM420 1198l217 354h266l193 -354h-310l-149 262l-164 -262h-53zM672 1505l61 -110h129 l-61 110h-129zM750 1362l65 -117h127l-63 117h-129zM846 567l26 -16l31 -19l27 -18l33 -31v84h-117zM854 594h109v86q-27 -35 -66 -59zM1004 37h303v63h-183l-55 -32zM1028 1067l49 -33l49 -30h164v63h-262zM1161 131h146v131l-52 -51l-57 -51zM1163 977l45 -39l33 -35 l49 -53v127h-127z" />
<glyph unicode="&#xeb;" horiz-adv-x="1462" d="M41 0v37h53q66 0 93.5 6t50 23.5t30.5 48t10.5 49t2.5 57.5v725l-11 53q-2 20 -28 41q-12 8 -45 17.5t-103 9.5h-53v41h1366v-403h-35l-55 75l-66 66q-63 70 -133.5 125t-130 75.5t-147.5 20.5h-172v-465h41q55 0 91 8t74 33q70 41 138 152h39v-426h-39l-23 37l-24 30 l-37 31q-25 29 -60 51q-74 45 -159 45h-41v-526h180l33 8l73 14l60 19q51 20 127 82q145 115 245 246h35v-406h-1380zM268 37h275v55h-234q-10 -23 -41 -55zM268 1067q20 -12 25 -23l16 -28h234v51h-275zM317 121h226v69h-219zM317 989l5 -41l2 -33h219v74h-226zM324 217 h219v74h-219v-74zM324 319h219v72h-219v-72zM324 418h219v74h-219v-74zM324 520h219v70h-219v-70zM324 616h219v72h-219v-72zM324 719h219v72h-219v-72zM324 817h219v72h-219v-72zM397 1376q0 66 45 111t111 45t111 -45t45 -111q0 -67 -45 -112q-41 -45 -111 -45 q-66 0 -111 45q-23 23 -34 50t-11 62zM442 1389h160q0 33 -6 53q-8 18 -47 51q-45 -6 -69.5 -28.5t-37.5 -75.5zM444 1356q14 -82 105 -99q39 37 51 99h-156zM838 1376q0 66 45 111t110 45q63 0 109.5 -45t46.5 -111q0 -67 -45 -112q-41 -45 -111 -45q-66 0 -110 45 q-23 23 -34 50t-11 62zM848 569l26 -18l29 -19l27 -18l35 -31v86h-117zM854 594h111v86q-29 -33 -68 -59zM883 1356q16 -86 106 -99q39 37 51 99h-157zM883 1389h159q0 65 -53 104q-45 -6 -70.5 -28.5t-35.5 -75.5zM1006 37h303v63h-183l-55 -32zM1030 1067l49 -31l47 -32 h166v63h-262zM1163 131h146v131l-52 -51l-57 -51zM1165 977l43 -39l35 -35l49 -53v127h-127z" />
<glyph unicode="&#xec;" horiz-adv-x="946" d="M41 0v37h53q66 0 92.5 6t50 23.5t31.5 48t10.5 49t2.5 57.5v721l-11 53q-2 20 -28 41q-12 10 -45 18.5t-103 8.5h-53v41h864v-41h-53q-113 0 -145 -27q-16 -14 -27 -43l-12 -49l-2 -61v-715q0 -27 8 -49q6 -29 33 -51q18 -16 48.5 -23.5t96.5 -7.5h53v-37h-864zM137 1548 h359l63 -352h-33zM256 1501l176 -155l-29 155h-147zM268 37h305l-26 55h-238q-10 -23 -41 -55zM268 1063q18 -12 23 -21l18 -28h238q3 22 26 49h-305zM317 121h226v69h-219zM317 985l5 -41l2 -33h219v74h-226zM324 217h219v72h-219v-72zM324 317h219v70h-219v-70zM324 418 h219v69h-219v-69zM324 518h219v70h-219v-70zM324 614h219v72h-219v-72zM324 717h219v69h-219v-69zM324 815h219v72h-219v-72z" />
<glyph unicode="&#xed;" horiz-adv-x="950" d="M41 0v37h53q66 0 93.5 6t51 23.5t30.5 48t9.5 50t2.5 58.5v725l-11 53q-2 20 -28 41q-12 8 -45 17.5t-103 9.5h-53v41h868v-41h-53q-113 0 -145 -27q-18 -14 -29 -43l-10 -49l-2 -63v-717q0 -27 8 -51q4 -29 33 -51q16 -16 48 -23.5t97 -7.5h53v-37h-868zM268 37h307 l-26 55h-240q-8 -23 -41 -55zM268 1069q20 -12 25 -22l16 -29h240q6 24 26 51h-307zM317 121h228v69h-221zM317 991l5 -41l2 -32h221v73h-228zM326 219h219v72h-219v-72zM326 319h219v70h-219v-70zM326 420h219v69h-219v-69zM326 520h219v72h-219v-72zM326 618h219v72h-219 v-72zM326 719h219v72h-219v-72zM326 819h219v72h-219v-72zM395 1202l66 354h358l-389 -354h-35zM473 1352l174 157h-145z" />
<glyph unicode="&#xee;" horiz-adv-x="946" d="M41 0v37h53q66 0 92.5 6t50 23.5t31.5 48t10.5 49t2.5 57.5v723l-11 53q-2 20 -28 41q-12 8 -45 17.5t-103 9.5h-53v41h864v-41h-53q-113 0 -145 -27q-16 -14 -27 -43l-12 -49l-2 -61v-715q0 -29 8 -51q6 -29 33 -51q18 -16 48.5 -23.5t96.5 -7.5h53v-37h-864zM137 1196 l219 354h265l192 -354h-309l-148 262l-166 -262h-53zM268 37h305l-26 55h-238q-10 -23 -41 -55zM268 1065q18 -12 23 -23l18 -28h238q3 24 26 51h-305zM317 121h226v69h-219zM317 987l5 -41l2 -33h219v74h-226zM324 217h219v72h-219v-72zM324 319h219v70h-219v-70zM324 418 h219v69h-219v-69zM324 518h219v70h-219v-70zM324 616h219v72h-219v-72zM324 717h219v69h-219v-69zM324 815h219v74h-219v-74zM391 1503l60 -110h129l-62 110h-127zM469 1360l63 -117h130l-66 117h-127z" />
<glyph unicode="&#xef;" horiz-adv-x="946" d="M41 0v37h53q66 0 92.5 6t50 23.5t31.5 48t10.5 49t2.5 57.5v723l-11 51q-2 23 -28 41q-12 10 -45 18.5t-103 8.5h-53v41h864v-41h-53q-113 0 -145 -27q-16 -12 -27 -43l-12 -47l-2 -63v-715q0 -27 8 -49q6 -29 33 -51q18 -16 48.5 -23.5t96.5 -7.5h53v-37h-864zM106 1372 q0 66 45.5 111t110.5 45q66 0 111 -45t45 -111q0 -63 -45 -112q-45 -45 -111 -46q-66 0 -110 46q-20 25 -33 51t-13 61zM152 1384h159q0 34 -6 54q-8 18 -47 51q-45 -6 -69.5 -28.5t-36.5 -76.5zM154 1354q16 -84 104 -101q39 37 51 101h-155zM268 37h305l-26 55h-238 q-10 -23 -41 -55zM268 1063q18 -10 23 -21l18 -28h238q3 22 26 49h-305zM317 121h226v69h-219zM317 987l5 -41l2 -33h219v74h-226zM324 217h219v72h-219v-72zM324 317h219v72h-219v-72zM324 418h219v69h-219v-69zM324 518h219v70h-219v-70zM324 614h219v74h-219v-74z M324 717h219v69h-219v-69zM324 815h219v72h-219v-72zM547 1372q0 66 44 111t109 45q61 0 108.5 -46t47.5 -110q0 -63 -45 -112q-43 -45 -111 -46q-66 0 -110 46q-20 25 -31.5 51t-11.5 61zM590 1354q18 -88 108 -101q37 37 50 101h-158zM590 1384h160q-1 66 -52 105 q-45 -6 -70.5 -28.5t-37.5 -76.5z" />
<glyph unicode="&#xf0;" horiz-adv-x="1642" d="M41 0v37h53q111 0 150 32.5t39 153.5v266h-211v150h211v291q0 92 -46.5 118.5t-142.5 26.5h-53v41h932q43 0 63 -4q43 0 107 -16q203 -31 338 -195q121 -156 121 -348q0 -170 -103 -320q-109 -158 -285 -202l-63 -8l-123 -15l-102 -6l-58 -2h-827zM102 524h226l219 -4 l196 4v84h-196l-219 4l-226 -6v-82zM270 37h277v59h-236q-4 -18 -16 -30zM270 1075q23 -18 37 -41h240v41h-277zM322 133h225v92h-219q0 -59 -6 -92zM322 997q6 -37 6 -94h219v94h-225zM328 262h219v92h-219v-92zM328 389h219v94h-219v-94zM328 647h219v92h-219v-92z M328 774h219v92h-219v-92zM672 37h143l92 6q139 0 207 150q53 133 53 368q0 199 -28 307q-47 174 -168 197q-45 10 -170 10h-129v-436h194v-150h-194v-452zM1024 37q86 12 174 59h-96q-29 -33 -78 -59zM1024 1075q35 -12 63 -41h99l-25 13l-45 16zM1120 997q29 -37 49 -94 h156l-33 41l-51 53h-121zM1133 133h120q51 41 93 92h-170l-19 -49zM1182 866l20 -92h197l-19 43l-28 49h-170zM1186 262h182l29 57l16 35h-209zM1208 389h215l15 53l4 41h-230zM1208 739l4 -92h228l-15 53l-12 39h-205zM1214 520h230l2 37l-2 55h-230v-92z" />
<glyph unicode="&#xf1;" horiz-adv-x="1691" d="M41 0v35q133 0 199.5 76.5t66.5 226.5v602l-37 35l-61 43q-16 10 -36.5 22.5t-25.5 14.5q-25 12 -51 12l-37 2l-6 41h631l649 -614v274q0 299 -243 299v41h561v-41l-72 -2l-51 -18q-143 -59 -144 -279v-809h-36l-992 938v-561q0 -145 61.5 -224t182.5 -79v-35h-559z M188 1069l37 -20l45 -31h322l-57 51h-347zM203 35h164l-27 37h-92zM274 100h52l-13 66l-14 -31zM305 991l37 -30l43 -43h313l-77 73h-316zM313 1264q84 152 161 216t175 64q104 0 246 -76q125 -68 184.5 -90t98.5 -22q92 0 157 131l19 35l37 -17q-125 -289 -328 -288 q-115 0 -238 65l-137 78q-72 33 -151 33q-57 0 -96.5 -27t-94.5 -125zM414 891l75 -72h316l-78 72h-313zM498 1434h18l31 2q90 0 186 -50h131q-68 40 -125 58q-55 20 -123 20l-55 -6zM522 793l74 -74h313l-75 74h-312zM627 690l75 -72h316l-78 72h-313zM733 590l76 -70h313 l-78 70h-311zM791 1354l108 -58q33 -18 76 -26t90 -8l49 4l45 18l-22 -2q-31 0 -88 16l-56 17q-25 12 -35 16q-18 10 -38 23h-129zM840 492l73 -74h316l-76 74h-313zM946 391l76 -72h313l-78 72h-311zM1053 289l75 -72h218v72h-293zM1159 190l78 -71h109v71h-187zM1237 1069 q12 -6 23.5 -14t23.5 -19h90l27 33h-164zM1264 90l82 -78v78h-82zM1311 1008l32 -58q0 16 17 58h-49z" />
<glyph unicode="&#xf2;" horiz-adv-x="1568" d="M41 557q0 133 58.5 247t176.5 202q182 135 482 135q344 0 557 -164t213 -438q0 -141 -61.5 -261t-172.5 -196q-80 -55 -208 -88t-277 -33q-186 0 -309 37t-240 127q-219 168 -219 432zM86 555l2 -37h254v70h-256v-33zM90 489l8 -43l6 -28h252l-8 41l-2 30h-256zM90 616 h254l10 72h-252zM111 717h249l19 71h-238zM113 389l32 -72h234l-17 72h-249zM158 817h231l31 72h-211l-31 -37zM162 289l26 -39l29 -33h203l-31 72h-227zM233 913h203l23 39l26 35h-170l-45 -35zM242 188q41 -41 88 -69h151l-45 69h-194zM358 1016h148l76 80l-68 -15 l-49 -14l-47 -20zM373 90q92 -51 200 -72q-43 37 -71 72h-129zM449 1552h356l65 -354h-32zM492 555q0 -201 70.5 -377t232.5 -176q139 0 214.5 137t75.5 393v21q1 260 -75 405q-80 143 -213 144h-27l-45 -4q-35 -8 -49 -25q-82 -51 -133 -195.5t-51 -322.5zM567 1505 l174 -157l-26 157h-148zM946 2q104 12 205 88h-127q-39 -57 -78 -88zM948 1096l39 -41l29 -39h119l-39 22l-45 21zM1032 987l19 -37l16 -37h180l-33 39l-40 35h-142zM1038 119h148l33 28l34 41h-180l-18 -41zM1077 889l21 -72h215l-21 37l-22 35h-193zM1081 217h193l24 35 l21 37h-217l-10 -39zM1104 788l12 -71h238l-27 71h-223zM1110 317h223l25 72h-238zM1120 688l4 -72h254l-16 72h-242zM1124 418h244l12 71h-254zM1126 518h256v27l-2 43h-254v-70z" />
<glyph unicode="&#xf3;" horiz-adv-x="1576" d="M41 561q0 133 58.5 247t179.5 202q182 137 483 137q346 0 561 -164q213 -166 213 -440q0 -143 -61.5 -263t-174.5 -198q-80 -53 -208.5 -87t-278.5 -34q-186 0 -310 37t-241 127q-221 170 -221 436zM86 559l2 -39h256v72h-258v-33zM90 492l8 -43l8 -29h252l-8 43l-2 29 h-258zM90 618h256l10 74h-252zM111 721h251l19 72h-238zM113 391l34 -72h234l-16 72h-252zM158 821h233l31 72h-213l-29 -37zM162 291l28 -41l27 -33h205l-31 74h-229zM236 918h202l23 40l26 35h-170l-45 -35zM242 190q41 -41 88 -71h153l-45 71h-196zM360 1020h148l78 80 l-70 -13l-49 -14l-47 -22zM373 90q94 -51 205 -72q-43 37 -74 72h-131zM496 559q0 -203 69.5 -380t233.5 -177q141 0 217 138.5t76 394.5v22q0 261 -76 406q-80 145 -215 145h-27l-45 -4q-35 -10 -51 -25q-82 -51 -132 -196.5t-50 -323.5zM707 1204l63 357h360l-391 -357 h-32zM782 1356l176 157h-147zM950 2q106 12 207 88h-127q-41 -57 -80 -88zM952 1102l39 -43l31 -39h119l-39 24l-45 21zM1036 993l21 -37l16 -38h180l-32 40l-41 35h-144zM1044 119h148l33 31l35 40h-183l-16 -40zM1083 893l21 -72h215l-21 37l-22 35h-193zM1087 217h195 l23 35l22 39h-219l-10 -41zM1110 793l12 -72h240l-27 72h-225zM1116 319h223l27 72h-240zM1126 692l4 -74h254l-14 74h-244zM1130 420h246l10 72h-253zM1133 520h256v29l-3 43h-253v-72z" />
<glyph unicode="&#xf4;" horiz-adv-x="1576" d="M41 561q0 133 58.5 247t179.5 202q182 137 483 137q346 0 561 -164q213 -166 213 -440q0 -143 -61.5 -263t-174.5 -198q-80 -53 -208.5 -87t-278.5 -34q-186 0 -310 37t-241 127q-221 170 -221 436zM86 559l2 -39h256v72h-258v-33zM90 492l8 -43l8 -29h252l-8 43l-2 29 h-258zM90 618h256l10 74h-252zM111 721h251l19 72h-238zM113 391l34 -72h234l-16 72h-252zM158 821h233l31 72h-213l-29 -37zM162 291l28 -41l27 -33h205l-31 74h-229zM236 918h202l23 40l26 35h-170l-45 -35zM242 190q41 -41 88 -71h153l-45 71h-196zM360 1020h148l78 80 l-70 -13l-49 -14l-47 -22zM373 90q94 -51 205 -72q-43 37 -74 72h-131zM453 1204l219 357h266l195 -357h-314l-147 264l-168 -264h-51zM496 559q0 -203 69.5 -380t233.5 -177q141 0 217 138.5t76 394.5v22q0 261 -76 406q-80 145 -215 145h-27l-45 -4q-35 -10 -51 -25 q-82 -51 -132 -196.5t-50 -323.5zM707 1513l59 -110h131l-61 110h-129zM784 1368l66 -117h129l-66 117h-129zM950 2q106 12 207 88h-127q-41 -57 -80 -88zM952 1102l39 -43l31 -39h119l-39 24l-45 21zM1036 993l21 -37l16 -38h180l-32 40l-41 35h-144zM1044 119h148l33 31 l35 40h-183l-16 -40zM1083 893l21 -72h215l-21 37l-22 35h-193zM1087 217h195l23 35l22 39h-219l-10 -41zM1110 793l12 -72h240l-27 72h-225zM1116 319h223l27 72h-240zM1126 692l4 -74h254l-14 74h-244zM1130 420h246l10 72h-253zM1133 520h256v29l-3 43h-253v-72z" />
<glyph unicode="&#xf5;" horiz-adv-x="1574" d="M41 559q0 133 58.5 248t176.5 203q184 137 484 137q346 0 561 -164q213 -166 213 -440q0 -143 -61.5 -263t-174.5 -198q-80 -55 -208.5 -88t-276.5 -33q-188 0 -311 37t-240 127q-221 168 -221 434zM86 557l2 -37h256v72h-258v-35zM90 492l8 -43l6 -29h254l-8 43l-2 29 h-258zM90 618h256l10 72h-252zM111 721h249l21 72h-238zM113 391l34 -72h234l-19 72h-249zM158 819h233l31 74h-213l-29 -37zM162 291l28 -41l27 -33h205l-31 74h-229zM233 918h205l23 38l26 37h-170l-45 -37zM242 190q41 -41 88 -71h153l-45 71h-196zM285 1264 q84 154 161.5 218t174.5 64q102 0 247 -76q115 -66 185 -88q59 -25 98 -24q88 0 158 131l18 35l37 -17q-125 -291 -328 -290q-121 0 -237 67l-140 78q-70 31 -149 31q-59 0 -97 -26t-96 -124zM360 1020h148l76 80l-68 -15l-49 -12l-47 -22zM373 90q94 -51 202 -72 q-43 37 -71 72h-131zM471 1436h49q90 0 185 -47h131q-66 39 -123 57q-55 20 -123 20l-58 -6zM494 557q0 -201 70.5 -378t232.5 -177q141 0 217 138.5t76 394.5v20q0 263 -76 408q-80 145 -215 145h-25l-45 -4q-35 -10 -51 -25q-82 -51 -133 -197.5t-51 -324.5zM764 1356 l108 -58q33 -18 75 -27t91 -9l47 4l45 20l-20 -2q-31 0 -88 16l-57 17l-37.5 18t-34.5 21h-129zM950 2q104 12 205 88h-127q-39 -57 -78 -88zM952 1102l39 -43l29 -39h119l-39 22l-45 23zM1036 993l19 -39l16 -36h182l-34 38l-41 37h-142zM1042 119h148l33 31l34 40h-180 l-18 -40zM1083 893l19 -74h215l-19 39l-24 35h-191zM1085 217h195l23 35l22 39h-219l-10 -41zM1108 793l14 -72h238l-27 72h-225zM1114 319h225l25 72h-238zM1126 690l2 -72h256l-16 72h-242zM1128 420h246l10 72h-254zM1130 520h256v29l-2 43h-254v-72z" />
<glyph unicode="&#xf6;" horiz-adv-x="1574" d="M41 559q0 133 58.5 247t176.5 202q184 137 484 137q346 0 561 -164q213 -166 213 -440q0 -141 -61.5 -262t-174.5 -197q-80 -55 -208.5 -88t-276.5 -33q-188 0 -311 37t-240 127q-221 168 -221 434zM86 557l2 -37h256v70h-258v-33zM90 492l8 -43l6 -31h254l-8 43l-2 31 h-258zM90 618h256l10 72h-252zM111 719h249l21 72h-238zM113 391l34 -72h234l-19 72h-249zM158 819h233l31 72h-213l-29 -37zM162 289l28 -39l27 -33h205l-31 72h-229zM233 918h205l23 38l26 35h-170l-45 -35zM242 190q41 -41 88 -71h153l-45 71h-196zM360 1018h148l76 80 l-68 -13l-49 -14l-47 -22zM373 90q94 -51 202 -72q-43 37 -71 72h-131zM408 1380q0 66 45 111t112 45q66 0 111 -45t45 -111q0 -65 -45 -114q-45 -45 -111 -45q-72 0 -112 45q-45 45 -45 114zM453 1391h161q0 35 -6 55q-8 18 -47 51q-45 -6 -70.5 -28.5t-37.5 -77.5z M455 1360q16 -84 106 -100q39 39 51 100h-157zM494 557q0 -201 70.5 -378t232.5 -177q141 0 217 138.5t76 394.5v20q0 261 -76 406q-80 145 -215 145h-25l-45 -4q-35 -10 -51 -25q-82 -51 -133 -196.5t-51 -323.5zM850 1380q0 66 45 111t111 45q61 0 109 -46t48 -110 q0 -65 -45 -114q-45 -45 -112 -45q-70 0 -111 45q-45 45 -45 114zM895 1360q18 -88 106 -100q41 39 52 100h-158zM895 1391h160q-1 67 -54 106q-43 -6 -68.5 -28.5t-37.5 -77.5zM950 2q104 12 205 88h-127q-39 -57 -78 -88zM952 1100l39 -43l29 -39h119l-39 24l-45 21z M1036 991l19 -37l16 -36h182l-34 38l-41 35h-142zM1042 119h148l33 31l34 40h-180l-18 -40zM1083 891l19 -72h215l-19 37l-24 35h-191zM1085 217h195l23 35l22 37h-219l-10 -39zM1108 791l14 -72h238l-27 72h-225zM1114 319h225l25 72h-238zM1126 690l2 -72h256l-16 72h-242 zM1128 418h246l10 74h-254zM1130 520h256v27l-2 43h-254v-70z" />
<glyph unicode="&#xf7;" d="M41 553v242h903v-242h-903zM74 582h714v86h-714v-86zM74 713h714v51h-714v-51zM330 293q0 66 45 111t108 45q66 0 112 -44.5t46 -111.5q0 -68 -45 -113q-47 -47 -113 -47q-59 0 -106 47t-47 113zM330 1055q0 66 46 111.5t107 45.5q68 0 113 -45t45 -112q0 -68 -45 -113 t-113 -45q-61 0 -107 46t-46 112zM373 289l4 -35h153l5 41v24h-160zM373 1051l4 -33h153l5 39v26h-160zM385 346h143q-12 39 -45 66q-41 -6 -59 -19q-20 -8 -39 -47zM385 1112h143q-12 37 -45 62q-45 -6 -61 -15.5t-37 -46.5zM387 227l37 -41l18 -6l41 -10q18 18 39 57h-135 zM387 991q16 -25 37 -43l18 -6l41 -8q14 12 39 57h-135z" />
<glyph unicode="&#xf8;" horiz-adv-x="1576" d="M41 559q0 137 59 250q31 59 72 106.5t107 96.5q186 137 483 137q303 0 495 -121l148 137l27 -32l-136 -129q240 -172 240 -463q0 -135 -61.5 -257t-169.5 -202q-176 -119 -490 -119q-311 0 -496 119l-147 -135l-27 33l138 129q-242 178 -242 450zM90 559l4 -49h252l-2 49 l2 41h-254zM96 631h252l14 86h-245l-11 -37zM98 479l8 -45l13 -41h243l-14 86h-250zM129 752h242l26 86h-225l-22 -41zM133 360l21 -41l26 -45h217l-26 86h-238zM197 872h217l20 46l27 40h-182l-48 -40zM205 240l39 -45l45 -41h170l-27 45l-18 41h-209zM322 989h161l43 49 l56 56l-72 -13l-74 -18q-18 -8 -59 -35q-35 -23 -55 -39zM334 121q113 -76 239 -96q-59 49 -92 96h-147zM498 559q0 -121 26 -225l531 502q-70 272 -252 272q-76 0 -121 -29q-80 -51 -132 -198.5t-52 -321.5zM532 287q40 -147 103 -213q63 -70 164 -70q139 0 215 140.5 t76 387.5q0 68 -6.5 134.5t-16.5 121.5zM956 8q127 18 234 113h-143l-37 -58q-12 -18 -54 -55zM961 1094q45 -45 81 -105h138l-50 39l-43 23l-36 16zM1059 958l35 -86h192l-29 43l-43 43h-155zM1065 154h160q39 39 69 86h-196zM1100 838l10 -39l10 -47h228l-21 43l-22 43 h-205zM1106 274h207l24 48l17 38h-230zM1124 717l9 -74v-12h247l-22 86h-234zM1128 393h236l18 86h-247zM1135 600l2 -22v-68h249v37l-2 53h-249z" />
<glyph unicode="&#xf9;" horiz-adv-x="1617" d="M41 1059v41h862v-41h-51q-115 0 -147 -27q-18 -14 -28.5 -53t-10.5 -100v-590q0 -59 12 -105.5t41 -79.5q72 -92 203 -92q94 0 180 44t137 118q10 16 21 39q18 37 27 83t9 175v291q0 297 -241 297v41h522v-41q-229 -23 -229 -297v-307q0 -119 -15.5 -179.5t-60.5 -132.5 q-125 -182 -500 -182q-199 0 -330 84q-70 45 -108 115q-31 55 -41 99t-12 82t-2 103v494l-11 51q0 14 -21.5 36t-54 28t-98.5 6h-53zM266 1059q29 -20 39 -51h242q4 27 24 51h-305zM315 981l9 -74h215v21l2 41v12h-226zM324 350l6 -35h209v72h-215v-37zM324 414h215v71h-215 v-71zM324 514h215v70h-215v-70zM324 610h215v72h-215v-72zM324 713h215v71h-215v-71zM324 811h215v72h-215v-72zM332 287l6 -45l12 -27h197l-6 72h-209zM365 188l24 -36l29 -33h162l-15 26l-14 43h-186zM449 88l53 -37l57 -26l66 -19l69 -4l-32 21l-25 18l-41 47h-147z M510 1542h354l66 -352h-33zM627 1495l174 -156l-27 156h-147zM1200 1059l41 -29h98l23 29h-162zM1268 1001l24 -34l17 -35q0 31 16 69h-57z" />
<glyph unicode="&#xfa;" horiz-adv-x="1626" d="M41 1065v39h868v-39h-53q-115 0 -147 -29q-18 -12 -28.5 -51t-10.5 -102v-592q0 -59 12 -106.5t39 -80.5q74 -92 205 -92q96 0 182 44t137 118q12 18 21 39q18 39 27.5 85t9.5 177v291q0 299 -242 299v39h524v-39q-231 -23 -231 -299v-309q0 -119 -14.5 -180.5 t-61.5 -133.5q-125 -182 -502 -182q-201 0 -330 84q-74 47 -112 117q-31 53 -40 98t-11 83t-2 103v498l-11 49q-2 16 -23.5 38t-54 28t-98.5 6h-53zM266 1065q29 -20 41 -51h242q6 27 24 51h-307zM317 987l9 -76h215v23l2 41v12h-226zM326 352l4 -35h211v72h-215v-37z M326 416h215v71h-215v-71zM326 518h215v70h-215v-70zM326 614h215v72h-215v-72zM326 717h215v71h-215v-71zM326 815h215v72h-215v-72zM332 289l8 -45l12 -29h197l-6 74h-211zM367 188l24 -36l29 -33h162l-15 26l-12 43h-188zM451 90l53 -37l57 -28l68 -19l69 -4l-32 21 l-27 18l-39 49h-149zM766 1196l65 354h357l-389 -354h-33zM842 1346l176 157h-148zM1206 1065l41 -31h99l24 31h-164zM1274 1008l24 -35l17 -35q0 29 18 70h-59z" />
<glyph unicode="&#xfb;" horiz-adv-x="1622" d="M41 1061v41h864v-41h-51q-115 0 -147 -27q-18 -14 -28.5 -53t-10.5 -100v-592q0 -57 12 -104.5t39 -80.5q74 -92 205 -92q94 0 181 44t136 118q12 18 23 39q16 37 26 84t10 176v291q0 297 -243 297v41h524v-41q-231 -20 -231 -297v-307q0 -119 -14.5 -180.5t-61.5 -133.5 q-123 -182 -500 -182q-201 0 -330 84q-72 45 -110 117q-31 53 -41 98t-12 83t-2 103v494l-9 51q-2 16 -23.5 37t-54 27t-98.5 6h-53zM266 1061q29 -18 41 -49h240q6 27 26 49h-307zM315 983l9 -74h215v23l2 41v10h-226zM324 350l6 -35h209v72h-215v-37zM324 416h215v71h-215 v-71zM324 516h215v70h-215v-70zM324 612h215v72h-215v-72zM324 715h215v71h-215v-71zM324 813h215v72h-215v-72zM332 287l8 -45l12 -27h195l-6 72h-209zM365 188l24 -36l31 -33h160l-13 26l-14 43h-188zM451 90l51 -37l59 -28l66 -19l69 -4l-32 21l-25 18l-41 49h-147z M510 1194l217 352h264l195 -352h-312l-147 260l-164 -260h-53zM762 1499l61 -110h127l-59 110h-129zM840 1356l63 -117h129l-63 117h-129zM1202 1061l41 -29h100l23 29h-164zM1270 1006l26 -35l15 -35q0 29 18 70h-59z" />
<glyph unicode="&#xfc;" horiz-adv-x="1617" d="M41 1057v41h862v-41h-51q-115 0 -147 -27q-18 -12 -28.5 -51t-10.5 -100v-590q0 -59 12 -105.5t41 -79.5q72 -92 203 -92q94 0 180 44t137 118q10 16 21 39q18 37 27 83t9 175v291q0 295 -241 295v41h522v-41q-229 -20 -229 -295v-307q0 -119 -15.5 -179.5t-60.5 -132.5 q-125 -182 -500 -182q-199 0 -330 84q-70 45 -108 115q-31 55 -41 99t-12 82t-2 103v494l-11 49q0 16 -21.5 38t-54 27t-98.5 5h-53zM266 1057q29 -18 39 -49h242q4 27 24 49h-305zM315 981l9 -74h215v21l2 41v12h-226zM324 350l6 -35h209v72h-215v-37zM324 414h215v71h-215 v-71zM324 514h215v70h-215v-70zM324 610h215v72h-215v-72zM324 711h215v71h-215v-71zM324 809h215v72h-215v-72zM332 287l6 -45l12 -27h197l-6 72h-209zM365 186l24 -34l29 -35h162l-15 28l-14 41h-186zM449 88l53 -37l57 -26l66 -19l69 -4l-32 21l-25 18l-41 47h-147z M475 1364q0 68 44 112t110 44t110.5 -44t44.5 -112q0 -64 -45 -111q-45 -45 -110 -45q-70 0 -111 45q-43 43 -43 111zM518 1376h160q0 33 -6 56q-8 16 -47 49q-43 -6 -69 -27.5t-38 -77.5zM520 1346q16 -84 105 -99q39 37 51 99h-156zM911 1364q0 68 45 112t111 44 q59 0 106.5 -45t47.5 -111q0 -64 -45 -111q-43 -45 -109 -45q-70 0 -111 45q-45 43 -45 111zM956 1346q16 -86 107 -99q39 37 49 99h-156zM956 1376h158q0 66 -51 105q-45 -6 -70.5 -27.5t-36.5 -77.5zM1200 1057l41 -29h98l23 29h-162zM1268 1001l24 -34l17 -35q0 29 16 69 h-57z" />
<glyph unicode="&#xfd;" horiz-adv-x="1671" d="M41 1059v41h866v-41h-57q-127 0 -127 -62q0 -27 29 -67l274 -381l137 194q66 92 66 164t-46 112t-124 40h-33v41h604v-41q-106 0 -204.5 -77t-225.5 -257l-162 -231v-326q0 -27 8.5 -54.5t26 -43t55.5 -29.5l99 -4h49v-37h-862v37h53q66 0 91.5 6t50 23.5t36.5 54.5 q4 25 6 43t2 57v193l-374 530q-82 115 -201 115h-37zM219 1059l33 -19l29 -30h288l6 26l23 23h-379zM301 981l12 -14l39 -58h258l-18 23q-6 8 -11.5 20.5t-9.5 28.5h-270zM373 881l51 -70h256l-53 70h-254zM442 784l52 -71h256l-54 71h-254zM512 686l51 -74h254l-49 74h-256 zM582 586l51 -70h254l-51 70h-254zM641 37h305l-24 53h-242l-14 -29zM651 489l45 -65v-8h217v61l-6 12h-256zM688 119h227v10l-2 41v18h-217v-34zM696 217h217v72h-217v-72zM696 315h217v74h-217v-74zM741 1194l64 352h356l-387 -352h-33zM817 1343l174 156h-145zM1196 1059 l21 -25l20 -24h117l55 49h-213zM1251 981l13 -39l4 -43l30 45l33 37h-80z" />
<glyph unicode="&#xff;" horiz-adv-x="1693" d="M41 1075v41h879v-41h-60q-127 0 -127 -63q0 -27 29 -68l276 -387l142 199q66 88 65 164q0 74 -46 114.5t-126 40.5h-35v41h615v-41q-109 0 -208 -78.5t-228 -261.5l-164 -235v-330q0 -27 8 -51q6 -29 26.5 -46.5t57.5 -31.5l98 -4h51v-37h-874v37h53q66 0 92.5 6t51 23.5 t36.5 56.5q6 25 8.5 43t2.5 57v197l-381 541q-80 115 -205 114h-37zM221 1075l33 -20l31 -31h290l9 29l22 22h-385zM305 997l12 -16l39 -59h260l-16 24q-6 8 -12 20.5t-10 30.5h-273zM379 895l51 -72h258l-53 72h-256zM449 797l51 -72h258l-51 72h-258zM485 1386 q0 68 45 114t113 46q66 0 112 -46t46 -114q0 -67 -45 -112q-47 -45 -113 -45q-68 0 -113 45t-45 112zM520 696l51 -73h256l-49 73h-258zM530 1399h162q0 32 -6 55q-8 18 -47 51q-45 -6 -70.5 -28.5t-38.5 -77.5zM532 1368q16 -84 107 -100q39 37 51 100h-158zM590 594 l51 -70h258l-51 70h-258zM649 37h309l-24 55h-244l-16 -29zM662 496l45 -66v-8h219v63l-6 11h-258zM698 119h230v12l-2 41v21h-219v-37zM707 219h219v74h-219v-74zM707 319h219v76h-219v-76zM930 1386q0 68 45 114t110 46q63 0 110.5 -47t47.5 -113q0 -67 -45 -112t-113 -45 q-66 0 -110.5 45t-44.5 112zM975 1368q16 -88 106 -100q41 37 52 100h-158zM975 1399h160q-1 67 -54 106q-45 -6 -70.5 -28.5t-35.5 -77.5zM1212 1075l21 -24l22 -27h117l58 51h-218zM1268 997l12 -41l4 -43l31 45l35 39h-82z" />
<glyph unicode="&#x152;" horiz-adv-x="2820" d="M41 696q0 319 247 523t638 204h88q39 0 78 -8q49 -6 161 -37h1508v-501h-43q-70 96 -150 174l-80 82l-90 73q-88 70 -159.5 96.5t-184.5 26.5h-215v-581h53q119 0 208 54t169 187h49v-532h-49l-28 45q-12 27 -33 43l-58 53q-18 18 -61 45q-90 55 -197 55h-53v-651h211 l55 8q98 16 162 43t162 101q164 121 305 305l45 2v-506h-1517l-164 -37l-150 -8q-385 0 -646 212t-261 529zM90 692l2 -47h326l-2 45l2 43h-326zM94 768h326l10 90h-317zM96 610l19 -90h317l-12 90h-324zM123 893h315l11 47l14 43h-303l-19 -45zM127 485l39 -88h297l-10 33 l-13 55h-313zM180 1018h295l19 47l20 41h-270l-37 -47zM186 362l29 -47l39 -43h260l-22 47l-17 43h-289zM274 1141h258l60 92h-213l-55 -43zM287 238q45 -43 108 -91h195q-18 23 -29.5 40.5t-28.5 50.5h-245zM432 1266h189l38 43l56 53q-104 -16 -150 -31 q-29 -8 -58.5 -22.5t-74.5 -42.5zM451 113q125 -70 256 -88l-54 49l-37 39h-165zM604 709l6 -127q2 -33 5 -56.5t16 -81.5q25 -127 74 -234.5t125.5 -158.5t195.5 -51q190 0 281 86q33 33 42 67.5t9 122.5v826l-2 78q-6 47 -13.5 81.5t-106.5 74.5t-239 40q-111 0 -179 -47 t-122 -155q-92 -190 -92 -465zM1335 47h348v66h-299q-14 -31 -49 -66zM1335 1329l23 -20l26 -43h299v63h-348zM1397 147h286v91h-278v-54zM1397 1233l6 -47l2 -45h278v92h-286zM1405 272h278v90h-278v-90zM1405 397h278v88h-278v-88zM1405 520h278v90h-278v-90zM1405 645 h278v88h-278v-88zM1405 768h278v90h-278v-90zM1405 893h278v90h-278v-90zM1405 1018h278v88h-278v-88zM2060 707l31 -19l35 -20l49 -37l33 -31v107h-148zM2073 739h135v105l-43 -41l-39 -31zM2259 47h379v80h-230l-57 -37zM2292 1329l61 -35l60 -43h206v78h-327zM2456 162 h182v166l-72 -74l-26 -25l-39 -30zM2456 1217l24 -19l31 -31l63 -61l45 -47v158h-163z" />
<glyph unicode="&#x153;" horiz-adv-x="2301" d="M41 563q0 260 201.5 424t515.5 164q102 0 137 -8q33 -4 63 -10q33 -8 66 -17h1223v-405h-35l-60 73l-63 70q-23 29 -57.5 57.5t-82.5 66.5t-61 48q-33 20 -63.5 30.5t-68.5 14.5t-83 4h-174v-469h45q96 0 167 42t136 151h43v-430h-43l-20 39q-4 10 -29 30l-35 31 q-29 35 -61 51q-72 45 -158 45h-45v-530h182l35 8l72 12l59 25q59 25 131 82t133.5 116.5t114.5 129.5h35v-408h-1231l-135 -31l-119 -8q-313 0 -524 173t-211 429zM80 559l2 -37h264l-2 35l2 37h-264zM84 496l16 -76h258l-10 76h-264zM84 621h264l8 75h-258zM109 723h253 l9 33l12 39h-246l-14 -31zM111 393l8 -26l22 -50h242l-8 27l-10 49h-254zM154 823h239l31 70h-219l-29 -33zM160 291l22 -35l31 -37h211l-14 33l-17 39h-233zM229 922h211l47 73h-174l-41 -30zM240 190q37 -37 88 -71h157l-45 71h-200zM358 1024h152l33 35l45 43l-56 -8 l-67 -19l-47 -18zM373 90q45 -23 100 -42t107 -30q-43 37 -72 72h-135zM498 573q0 -223 82 -405q39 -88 101 -128t159 -40q154 0 227 70q18 14 35 53l6 100v668q0 76 -10 113q-10 45 -88 77.5t-193 32.5q-92 0 -145.5 -36t-100.5 -128q-12 -33 -28.5 -83t-26.5 -93l-12 -96z M1092 35h282v55h-244q-10 -29 -38 -55zM1092 1075q23 -16 38 -51h244v51h-282zM1141 119h233v71h-227zM1141 995l4 -41l2 -32h227v73h-233zM1147 219h227v72h-227v-72zM1147 317h227v76h-227v-76zM1147 420h227v76h-227v-76zM1147 522h227v72h-227v-72zM1147 621h227v75 h-227v-75zM1147 723h227v72h-227v-72zM1147 823h227v70h-227v-70zM1679 571l27 -14l31 -20l28 -21l33 -31v86h-119zM1690 598h108v86l-31 -33l-34 -26zM1841 35h305v65h-184l-55 -34zM1866 1075l49 -33l49 -30h170v63h-268zM1999 127h147v137l-51 -53l-57 -51zM1999 985 l43 -37l47 -45l45 -45v127h-135z" />
<glyph unicode="&#x178;" horiz-adv-x="2074" d="M41 1329v49h1087v-49h-73q-158 0 -158 -78q0 -39 37 -88l340 -477l176 248q78 113 78 205q0 88 -57.5 139t-155.5 51h-41v49h760v-49q-139 0 -258 -92t-281 -328l-203 -288v-345q0 -94 10.5 -129.5t38.5 -62.5l62 -29l123 -8h65v-47h-1081v47h65q84 0 113 6q16 0 26.5 4 t12.5 4l31 21q29 23 41 63q10 47 10 131v242l-469 670q-102 141 -252 141h-47zM264 1329l41 -26l37 -37h360l9 32l28 31h-475zM369 1231l14 -19l49 -71h322l-21 26q-8 10 -15 27.5t-13 36.5h-336zM457 1106l63 -88h320l-64 88h-319zM545 983l63 -90h320l-64 90h-319z M625 1630q0 70 47 117t116 47q70 0 117 -47t47 -117q0 -68 -47 -119q-47 -47 -117 -47q-74 0 -116 47q-47 47 -47 119zM633 858l63 -88h318l-62 88h-319zM672 1642h168q0 35 -6 58q-8 18 -50 53q-47 -6 -73.5 -29.5t-38.5 -81.5zM674 1610q16 -88 110 -105q41 39 54 105 h-164zM721 733l61 -88h320l-64 88h-317zM793 47h383q-20 29 -33 68h-299q-4 -14 -21 -35zM807 610l57 -80v-10h271v78l-9 12h-319zM854 147h283v17l-2 49v25h-271l-2 -43zM864 272h271v90h-271v-90zM864 397h271v88h-271v-88zM1087 1630q0 70 47.5 117t116.5 47 q63 0 113.5 -48t50.5 -116t-47 -119q-47 -47 -117 -47q-74 0 -116 47q-47 47 -48 119zM1135 1610q18 -92 112 -105q41 39 53 105h-165zM1135 1642h168q-1 70 -56 111q-47 -6 -73.5 -29.5t-38.5 -81.5zM1487 1329l29 -29l26 -34h146l69 63h-270zM1559 1231q18 -55 18 -103v-8 l39 60l41 51h-98z" />
<glyph unicode="&#x2c6;" horiz-adv-x="794" d="M41 1262l229 372h279l205 -372h-328l-156 276l-174 -276h-55zM307 1585l64 -117h135l-64 117h-135zM389 1434l68 -123h135l-68 123h-135z" />
<glyph unicode="&#x2dc;" horiz-adv-x="1212" d="M41 1325q88 160 169 227.5t183 67.5q111 0 258 -80q131 -70 193.5 -93.5t103.5 -23.5q88 0 166 138l19 32l38 -14q-131 -303 -344 -303q-125 0 -247 70l-146 81q-74 33 -158 33q-59 0 -101 -29.5t-99 -127.5zM236 1503h18l33 2q94 0 194 -51h137q-70 42 -129 62t-129 20 l-59 -4zM543 1421l112 -61q35 -18 80 -27.5t94 -9.5l52 4l47 21l-23 -2q-27 0 -41 2t-51 14q-37 8 -60.5 19.5t-33.5 15.5q-20 10 -41 24h-135z" />
<glyph unicode="&#x2000;" horiz-adv-x="937" />
<glyph unicode="&#x2001;" horiz-adv-x="1874" />
<glyph unicode="&#x2002;" horiz-adv-x="937" />
<glyph unicode="&#x2003;" horiz-adv-x="1874" />
<glyph unicode="&#x2004;" horiz-adv-x="624" />
<glyph unicode="&#x2005;" horiz-adv-x="468" />
<glyph unicode="&#x2006;" horiz-adv-x="312" />
<glyph unicode="&#x2007;" horiz-adv-x="312" />
<glyph unicode="&#x2008;" horiz-adv-x="234" />
<glyph unicode="&#x2009;" horiz-adv-x="374" />
<glyph unicode="&#x200a;" horiz-adv-x="104" />
<glyph unicode="&#x2010;" d="M41 553v242h903v-242h-903zM74 582h714v86h-714v-86zM74 713h714v51h-714v-51z" />
<glyph unicode="&#x2011;" d="M41 553v242h903v-242h-903zM74 582h714v86h-714v-86zM74 713h714v51h-714v-51z" />
<glyph unicode="&#x2012;" d="M41 553v242h903v-242h-903zM74 582h714v86h-714v-86zM74 713h714v51h-714v-51z" />
<glyph unicode="&#x2013;" horiz-adv-x="1708" d="M41 553v242h1626v-242h-1626zM74 582h1407v86h-1407v-86zM74 713h1407v51h-1407v-51z" />
<glyph unicode="&#x2014;" d="M41 553v242h903v-242h-903zM74 582h714v86h-714v-86zM74 713h714v51h-714v-51z" />
<glyph unicode="&#x2018;" horiz-adv-x="434" d="M41 1087q0 143 78 224.5t217 81.5l8 -39q-135 -25 -135 -105q0 -35 43 -47l31 -8q18 -8 39.5 -24.5t38 -38t24.5 -49t8 -52.5q0 -70 -51 -118t-119 -48q-82 0 -132 60.5t-50 162.5zM92 1096l2 -25h178q-18 63 -49 94q-27 27 -100 43q-31 -47 -31 -112zM98 1038 q14 -59 43 -94q31 -25 86 -33q27 27 39 54q10 31 10 73h-178z" />
<glyph unicode="&#x2019;" horiz-adv-x="434" d="M41 1229q0 68 51 117q25 23 53.5 35t65.5 12q78 0 130 -60.5t52 -163.5q0 -143 -73.5 -224t-221.5 -81l-8 41q135 29 135 107q0 29 -43 47l-28 8q-47 16 -80 59q-33 49 -33 103zM90 1237h170q-6 45 -14 57q-2 14 -13.5 30.5t-15.5 23.5q-109 0 -127 -111zM92 1204 q31 -113 162 -112l10 84v28h-172z" />
<glyph unicode="&#x201a;" horiz-adv-x="434" d="M41 172q0 68 51 119q25 23 53.5 35t65.5 12q80 0 131 -61.5t51 -161.5q0 -141 -74.5 -224.5t-220.5 -83.5l-8 39q135 25 135 107q0 31 -43 47l-28 10q-45 12 -79 61.5t-34 100.5zM90 180h170l-12 58l-10 22l-21 31q-109 0 -127 -111zM92 145q31 -111 162 -110l10 86v24 h-172z" />
<glyph unicode="&#x201c;" horiz-adv-x="882" d="M41 1087q0 143 78 224.5t219 81.5l6 -39q-135 -25 -135 -105q0 -18 9 -29.5t34 -17.5l31 -8q43 -16 76.5 -63.5t33.5 -100.5q0 -70 -51 -118t-119 -48q-76 0 -129 64.5t-53 158.5zM94 1071h180q-18 65 -49 92q-14 12 -41.5 24.5t-60.5 20.5q-29 -45 -29 -112v-25z M98 1038q14 -63 43 -94q31 -25 86 -33q29 29 41 54q10 31 11 73h-181zM489 1087q0 143 78 224.5t217 81.5l9 -39q-135 -25 -136 -105q0 -18 9.5 -29.5t33.5 -17.5l31 -8q43 -16 77 -63.5t34 -100.5q0 -70 -51.5 -118t-118.5 -48q-86 0 -134.5 58.5t-48.5 164.5zM541 1096 l2 -25h178q-18 63 -49 94q-27 27 -101 43q-16 -27 -25 -52.5t-5 -59.5zM547 1038q14 -59 43 -94q31 -25 86 -33q27 27 39 54q10 31 10 73h-178z" />
<glyph unicode="&#x201d;" horiz-adv-x="882" d="M41 1229q0 68 51 117q25 23 53.5 35t65.5 12q78 0 130 -60.5t52 -163.5q0 -139 -74.5 -222t-220.5 -83l-8 41q135 29 135 107q0 29 -43 47l-28 8q-51 16 -82 60t-31 102zM90 1237h170l-14 57q-6 20 -29 54q-109 0 -127 -111zM92 1204q31 -113 162 -112l10 84v28h-172z M489 1229q0 68 52 117q25 23 53.5 35t64.5 12q78 0 130.5 -60.5t52.5 -163.5q0 -139 -75 -222t-220 -83l-8 41q135 29 135 107q0 29 -43 47l-29 8q-45 12 -79 59.5t-34 102.5zM539 1237h170l-15 57q-6 20 -28 54q-109 0 -127 -111zM541 1204q31 -113 161 -112l11 84v28h-172 z" />
<glyph unicode="&#x201e;" horiz-adv-x="882" d="M41 172q0 68 51 119q25 23 53.5 35t65.5 12q80 0 131 -61.5t51 -161.5q0 -141 -74.5 -224.5t-220.5 -83.5l-8 39q135 25 135 107q0 31 -43 47l-28 10q-49 12 -80 62q-33 45 -33 100zM90 180h170l-12 58l-10 22l-21 31q-109 0 -127 -111zM92 145q31 -111 162 -110l10 86 v24h-172zM489 172q0 68 52 119q25 23 53.5 35t64.5 12q80 0 131.5 -61.5t51.5 -161.5q0 -141 -75 -224.5t-220 -83.5l-8 39q135 25 135 107q0 31 -43 47l-29 10q-49 16 -81 62.5t-32 99.5zM539 180h170l-13 58l-10 22l-20 31q-109 0 -127 -111zM541 145q31 -111 161 -110 l9 45l2 41v24h-172z" />
<glyph unicode="&#x2022;" horiz-adv-x="663" d="M41 680q0 123 85 207t206 84q123 0 207 -82t84 -209q0 -125 -84 -209t-207 -84t-207 84t-84 209zM121 668q0 -49 18 -86h271l10 43l6 43h-305zM121 692h305q0 41 -12 88h-275l-12 -39zM152 557q45 -81 176 -104q43 43 71 104h-247zM152 805h251q-20 55 -75 98 q-61 -6 -104.5 -30.5t-71.5 -67.5z" />
<glyph unicode="&#x2026;" horiz-adv-x="1316" d="M41 166q0 68 47 117t117 49q74 0 117 -47q47 -47 47 -119t-47 -119t-117 -47t-117 47t-47 119zM88 178h168q0 35 -6 58q-8 23 -49 55q-45 -6 -73 -32t-40 -81zM90 143q16 -88 111 -102q41 35 53 102h-164zM496 166q0 68 47 117t116 49q70 0 117 -48t47 -118 q0 -72 -47 -119t-117 -47t-116.5 47t-46.5 119zM543 143q18 -90 112 -102q41 35 54 102h-166zM543 178h168q-1 70 -56 113q-45 -6 -72.5 -32t-39.5 -81zM948 166q0 68 47 117t117 49t117 -48t47 -118q0 -72 -47 -119t-117 -47t-117 47t-47 119zM995 143q18 -90 113 -102 q41 35 53 102h-166zM995 178h168q0 70 -55 113q-45 -6 -72.5 -32t-40.5 -81z" />
<glyph unicode="&#x202f;" horiz-adv-x="374" />
<glyph unicode="&#x2039;" horiz-adv-x="477" d="M41 584l317 307h78l-309 -307l309 -308h-78z" />
<glyph unicode="&#x203a;" horiz-adv-x="477" d="M41 276l309 308l-309 307h78l317 -307l-317 -308h-78z" />
<glyph unicode="&#x205f;" horiz-adv-x="468" />
<glyph unicode="&#x20ac;" horiz-adv-x="1884" d="M41 401v197l344 -98zM43 774v197l344 -99zM274 696q0 317 221.5 522t569.5 205q90 0 180 -24q70 -18 176 -66l74 -33l59 -8q106 0 203 99h37l27 -576l-33 -8q-6 12 -31.5 65.5t-56.5 106.5q-68 113 -129 180q-80 92 -191 150q-49 23 -103 38t-116 15q-158 0 -248 -176 q-45 -90 -67.5 -212t-22.5 -288q0 -139 19 -256q8 -53 23.5 -109.5t35.5 -107.5q80 -197 275 -197q197 0 366.5 121t274.5 338l38 -20q-10 -23 -18 -45q-16 -35 -35 -60l-73 -100q-35 -47 -75 -85t-83 -69q-197 -141 -477 -141q-348 0 -584 211t-236 530zM328 692l2 -47h299 l-2 31l2 57h-299zM332 768h299l12 90h-297zM334 610l8 -61l8 -29h287l-8 90h-295zM356 893h293l21 90h-283l-16 -45zM360 485l17 -47l20 -41h267l-11 41l-10 47h-283zM403 1018h279l14 45l21 43h-258l-33 -51zM416 362l33 -55l28 -35h232l-35 90h-258zM487 1141h246l55 90 h-208l-52 -45zM506 238l47 -48l55 -43h166l-24 39l-27 52h-217zM629 1266h188l49 53l60 53l-80 -10l-43 -10l-64 -25l-49 -24zM659 113q100 -63 220 -88l-48 45l-32 43h-140zM829 860v31h52q158 0 276.5 36t224.5 124h66v-351h-66l-36 31l-46 27l-75 35q-23 12 -37 17 t-45 13q-123 37 -262 37h-52zM831 483v33h48q158 0 276.5 36t224.5 124h66v-350h-66l-37 30l-45 27l-75 35q-23 10 -37.5 15t-44.5 13q-123 37 -262 37h-48zM1106 489l84 -26l65 -25l43 -18v69h-192zM1112 864l84 -24l66 -25l45 -20v69h-195zM1118 510h180v70 q-41 -23 -49 -27q-20 -8 -59 -21zM1126 887h181v67q-41 -20 -50 -24q-23 -10 -61 -23zM1538 1255l29 -24h104l-2 51q-14 -6 -27.5 -11t-29.5 -11zM1602 1196l47 -63l30 -43l-6 106h-71z" />
<glyph unicode="&#x2122;" horiz-adv-x="2027" d="M41 1163v275h776v-275h-20q-6 27 -33 70l-43 67l-35 39l-59 54q-35 23 -74 22h-16v-475q0 -63 19 -82.5t85 -19.5h29v-21h-486v21h31l53 2q12 0 23.5 11t19.5 31.5t8 57.5v475h-14q-53 0 -94 -37q-27 -23 -49 -45q-41 -43 -66 -94l-35 -76h-20zM61 1298l23 35l25 31h-48 v-66zM61 1378h60l37 37h-97v-37zM311 838h174l-16 30h-133q-9 -18 -25 -30zM340 883h127v41h-123zM344 938h123v41h-123v-41zM344 995h123v39h-123v-39zM344 1051h123v39h-123v-39zM344 1106h123v39h-123v-39zM344 1161h123v41h-123v-41zM344 1219h123v38h-123v-38z M344 1274h123v43h-123v-43zM344 1329h123v41h-123v-41zM344 1384h123v31h-123v-31zM629 1415l22 -14l23 -23h78v37h-123zM690 1364q37 -33 62 -74v74h-62zM848 815v21q150 0 149 168v356q-37 53 -120 53h-27v23h358l232 -387l198 387h349v-23h-31q-59 0 -82 -17.5t-23 -84.5 v-373q0 -66 19.5 -84t85.5 -18h31v-21h-488v21h29l53 2q10 0 25.5 10t21.5 31.5t6 58.5v436l-291 -559h-16l-303 502v-313q0 -168 137 -168v-21h-313zM938 836h92l-14 20h-51zM969 1413q23 -8 37 -31h139l-17 31h-159zM979 872h29l-9 35zM1020 1368l6 -10l14 -23l4 -8h136 l-25 41h-135zM1053 1313l24 -41h135l-22 41h-137zM1087 1255l25 -38h133l-22 38h-136zM1120 1200l25 -41h135l-25 41h-135zM1153 1143l27 -39l133 2l-23 37h-137zM1188 1087l24 -38h136l-25 38h-135zM1221 1032l24 -39h135l-24 39h-135zM1253 977l27 -41h104l13 29l-6 12 h-138zM1288 922l25 -41h41l20 41h-86zM1321 866l14 -20l11 20h-25zM1626 836h172l-14 30h-133q-8 -18 -25 -30zM1655 881h127v10l-2 18v13h-121zM1659 936l121 2v39h-121v-41zM1659 993h121v39h-121v-39zM1659 1049h121v38h-121v-38zM1659 1104l121 2v37h-121v-39z M1659 1159h121v41h-121v-41zM1659 1217h121v38h-121v-38zM1659 1272h121v41h-121v-41zM1659 1327h121v10l2 27l-123 4v-41zM1659 1382h125l14 31h-139v-31z" />
<glyph unicode="&#xe000;" horiz-adv-x="1105" d="M0 0v1106h1106v-1106h-1106z" />
</font>
</defs>
</svg>
